<?xml version="1.0" encoding="UTF-8" standalone="no"?>
<svg width="23px" height="22px" viewBox="0 0 23 22" version="1.1" xmlns="http://www.w3.org/2000/svg" xmlns:xlink="http://www.w3.org/1999/xlink">
    <!-- Generator: sketchtool 3.7.1 (28215) - http://www.bohemiancoding.com/sketch -->
    <title>730260B7-CBFE-4C5C-88C5-B4CC35E5E7C0</title>
    <desc>Created with sketchtool.</desc>
    <defs></defs>
    <g id="main-page" stroke="none" stroke-width="1" fill="none" fill-rule="evenodd">
        <g id="callback-popup" transform="translate(-901.000000, -196.000000)" fill="#FFFFFF">
            <g id="Group-3" transform="translate(460.000000, 172.000000)">
                <g id="close-icon" transform="translate(441.000000, 24.000000)">
                    <path d="M21.4196651,21.4502 C21.7815034,21.8008172 22.3674515,21.8008172 22.7290224,21.4502 C23.0900584,21.0995829 23.0905933,20.5314678 22.7290224,20.1800645 L12.1536089,9.92149945 C11.792038,9.5708823 11.2066248,9.5708823 10.8453214,9.92149945 L0.270977624,20.1800645 C-0.0900583911,20.5314678 -0.0905932593,21.0990588 0.270977624,21.4502 C0.632548508,21.8008172 1.21849659,21.8008172 1.58006747,21.4502 L11.4994651,12.0943824 L21.4196651,21.4502 L21.4196651,21.4502 Z" id="Shape"></path>
                    <path d="M21.4196651,11.7916634 C21.7815034,12.1422806 22.3674515,12.1422806 22.7290224,11.7916634 C23.0900584,11.4410463 23.0905933,10.8729312 22.7290224,10.5215279 L12.1536089,0.26296286 C11.792038,-0.0876542866 11.2066248,-0.0876542866 10.8453214,0.26296286 L0.270977624,10.5215279 C-0.0900583911,10.8729312 -0.0905932593,11.4405222 0.270977624,11.7916634 C0.632548508,12.1422806 1.21849659,12.1422806 1.58006747,11.7916634 L11.4994651,2.4358458 L21.4196651,11.7916634 L21.4196651,11.7916634 Z" id="Shape-Copy" transform="translate(11.500000, 6.027313) scale(1, -1) translate(-11.500000, -6.027313) "></path>
                </g>
            </g>
        </g>
    </g>
</svg>