<?xml version="1.0" encoding="UTF-8" standalone="no"?>
<svg width="23px" height="23px" viewBox="0 0 23 23" version="1.1" xmlns="http://www.w3.org/2000/svg" xmlns:xlink="http://www.w3.org/1999/xlink" xmlns:sketch="http://www.bohemiancoding.com/sketch/ns">
    <!-- Generator: sketchtool 3.5.1 (25234) - http://www.bohemiancoding.com/sketch -->
    <title>footer mail icon</title>
    <desc>Created with sketchtool.</desc>
    <defs></defs>
    <g id="elements" stroke="none" stroke-width="1" fill="none" fill-rule="evenodd" sketch:type="MSPage">
        <g id="elements---iconset" sketch:type="MSArtboardGroup" transform="translate(-490.000000, -61.000000)" fill="#CEDAE2">
            <g id="Group-7" sketch:type="MSLayerGroup" transform="translate(490.000000, 61.000000)">
                <g id="Group" transform="translate(0.000000, 3.000000)" sketch:type="MSShapeGroup">
                    <path d="M20.8469315,18.0714286 C21.3584905,18.0714286 21.8017507,17.8918105 22.1785714,17.5371439 L15.7309286,10.6804168 C15.5762338,10.7982143 15.4262905,10.9127604 15.2846522,11.0216824 C14.8021398,11.399724 14.4105272,11.694723 14.1098143,11.9061081 C13.8091427,12.1179766 13.4091012,12.3339313 12.9097311,12.5544117 C12.4100304,12.7751556 11.9444998,12.8851761 11.5126433,12.8851761 L11.5,12.8851761 L11.4873567,12.8851761 C11.0554589,12.8851761 10.5899283,12.7751995 10.0902689,12.5544117 C9.59060955,12.3339313 9.19056804,12.1179766 8.8901857,11.9061081 C8.58951414,11.694723 8.1981081,11.3997679 7.71534782,11.0216824 C7.5808162,10.9168027 7.43161667,10.8017293 7.27031094,10.6785714 L0.821428571,17.5371439 C1.19820801,17.8918105 1.64175745,18.0714286 2.1532751,18.0714286 L20.8469315,18.0714286 L20.8469315,18.0714286 Z" id="Shape"></path>
                    <path d="M1.29794207,6.86032717 C0.809776721,6.53711834 0.376878531,6.16695393 0,5.75 L0,15.6071429 L5.75,9.89687104 C4.59967392,9.09933197 3.11753586,8.08831315 1.29794207,6.86032717 L1.29794207,6.86032717 Z" id="Shape"></path>
                    <path d="M21.7145455,6.86029911 C19.963649,8.03669141 18.475523,9.04942835 17.25,9.89904962 L23,15.6071429 L23,5.75 C22.6313352,6.15855719 22.2029061,6.52846316 21.7145455,6.86029911 L21.7145455,6.86029911 Z" id="Shape"></path>
                    <path d="M20.9462444,0 L2.0534633,0 C1.39435065,0 0.88761395,0.222567175 0.532626832,0.667242193 C0.177347405,1.112126 -1.77635684e-15,1.66850218 -1.77635684e-15,2.33574437 C-1.77635684e-15,2.8747077 0.235349653,3.45868555 0.705840167,4.08784495 C1.17633068,4.71675381 1.67697067,5.21074437 2.20750959,5.57006718 C2.49835599,5.77555556 3.37544686,6.38529775 4.83878218,7.39908497 C5.62872352,7.9464833 6.31568895,8.42360385 6.90602572,8.83533224 C7.40921297,9.18592774 7.84316499,9.48954611 8.20145101,9.74151053 C8.24258291,9.77036492 8.30726648,9.81663217 8.3931215,9.87801561 C8.48561609,9.94445171 8.60266454,10.02876 8.74706467,10.1330283 C9.02513304,10.3341322 9.25613983,10.4966939 9.4401268,10.6208805 C9.62386322,10.7451089 9.8464766,10.8838689 10.1076329,11.0379539 C10.3685803,11.1918301 10.6147036,11.3075399 10.8457104,11.3844989 C11.076759,11.4614161 11.2906449,11.5 11.4874099,11.5 L11.5001879,11.5 L11.5129659,11.5 C11.7096892,11.5 11.9236168,11.4614161 12.1547072,11.3844989 C12.3856722,11.3075399 12.6315867,11.1920806 12.892743,11.0379539 C13.1536487,10.8838689 13.3759697,10.7448166 13.5602908,10.6208805 C13.7442778,10.4966939 13.9752845,10.3341739 14.2533947,10.1330283 C14.3975025,10.02876 14.5145509,9.94440995 14.6070455,9.8782244 C14.6929423,9.81659041 14.7575841,9.77061547 14.7989666,9.74151053 C15.0780789,9.54729666 15.5130331,9.24493101 16.097816,8.83888163 C17.1619005,8.09956609 18.7290051,7.01140886 20.8057278,5.57006718 C21.4303063,5.13382716 21.9521178,4.60739107 22.3714962,3.99151053 C22.7901229,3.37562999 23,2.72960058 23,2.05363108 C23,1.48886166 22.7965119,1.00560276 22.3904127,0.60310276 C21.9838541,0.201103849 21.5024229,0 20.9462444,0 L20.9462444,0 Z" id="Shape"></path>
                </g>
            </g>
        </g>
    </g>
</svg>