<?xml version="1.0" encoding="UTF-8" standalone="no"?>
<svg width="23px" height="23px" viewBox="0 0 23 23" version="1.1" xmlns="http://www.w3.org/2000/svg" xmlns:xlink="http://www.w3.org/1999/xlink" xmlns:sketch="http://www.bohemiancoding.com/sketch/ns">
    <!-- Generator: sketchtool 3.5.1 (25234) - http://www.bohemiancoding.com/sketch -->
    <title>footer phone icon</title>
    <desc>Created with sketchtool.</desc>
    <defs></defs>
    <g id="elements" stroke="none" stroke-width="1" fill="none" fill-rule="evenodd" sketch:type="MSPage">
        <g id="elements---iconset" sketch:type="MSArtboardGroup" transform="translate(-490.000000, -33.000000)" fill="#CEDAE2">
            <g id="Group-6" sketch:type="MSLayerGroup" transform="translate(490.000000, 33.000000)">
                <g id="Capa_1" sketch:type="MSShapeGroup">
                    <path d="M8.59337319,13.7266617 C10.6030734,15.7023637 12.9292648,17.5897195 13.8425047,16.678396 C15.1501031,15.3739535 15.954966,14.2390372 18.8565763,16.5307424 C21.7581866,18.8235707 19.5421542,20.3665798 18.2757035,21.6305927 C16.8142604,23.0888922 11.3404369,21.7327897 5.91472691,16.4002019 C0.489340951,11.0665446 -0.921774554,5.65614587 0.540748495,4.19715114 C1.80757728,2.93308478 3.34904763,0.727533103 5.68441895,3.58439688 C8.02092426,6.43981675 6.88110235,7.24562764 5.57350393,8.55044446 C4.66069601,9.46139367 6.58334899,11.7505854 8.59337319,13.7266617 L8.59337319,13.7266617 Z M11.5075114,4.30116642 C11.5075114,4.30116642 10.9012588,4.20736549 10.4767685,4.62807921 C10.0398044,5.06082554 10.0207426,5.80631292 10.4811965,6.26194795 C10.7533001,6.53142506 11.1370207,6.58886075 11.1370207,6.58886075 C11.885022,6.72779735 13.0123161,6.96304835 14.2119694,8.15074771 C15.4112448,9.3383936 15.6487887,10.4548064 15.7890795,11.195962 C15.7890795,11.195962 15.847075,11.5759788 16.1191786,11.8454559 C16.5793085,12.3011444 17.3320078,12.2825874 17.7689719,11.8498411 C18.1934622,11.4295017 18.099071,10.829101 18.099071,10.829101 C17.8615271,9.32866055 17.1271336,7.7613188 15.8661368,6.51254723 C14.604816,5.26377565 13.022144,4.53679177 11.5075114,4.30116642 L11.5075114,4.30116642 Z M17.194255,5.19719518 C19.3930616,7.37477771 20.3304933,9.84616997 20.025342,11.8487715 C20.025342,11.8487715 19.9188549,12.4829706 20.3370812,12.8971599 C20.807849,13.3633837 21.5539604,13.3364841 21.9945965,12.9004756 C22.277716,12.6200889 22.3393835,12.1637052 22.3393835,12.1637052 C22.5916692,10.4330942 22.2744221,6.95149704 18.8484764,3.5589947 C15.4225307,0.166438874 11.9073778,-0.147746085 10.1598453,0.101730142 C10.1598453,0.101730142 9.6993914,0.162481481 9.41589391,0.44318903 C8.97525781,0.879571884 8.94847405,1.61853491 9.41918788,2.08470517 C9.83746818,2.49894801 10.4777945,2.39343534 10.4777945,2.39343534 C12.5000226,2.09122952 14.9954485,3.01966613 17.194255,5.19719518 L17.194255,5.19719518 Z" id="Shape"></path>
                </g>
            </g>
        </g>
    </g>
</svg>