<?xml version="1.0" encoding="UTF-8" standalone="no"?>
<svg width="36px" height="36px" viewBox="0 0 36 36" version="1.1" xmlns="http://www.w3.org/2000/svg" xmlns:xlink="http://www.w3.org/1999/xlink" xmlns:sketch="http://www.bohemiancoding.com/sketch/ns">
    <!-- Generator: sketchtool 3.5.2 (25235) - http://www.bohemiancoding.com/sketch -->
    <title>facebook36</title>
    <desc>Created with sketchtool.</desc>
    <defs></defs>
    <g id="elements" stroke="none" stroke-width="1" fill="none" fill-rule="evenodd" sketch:type="MSPage">
        <g id="elements---iconset" sketch:type="MSArtboardGroup" transform="translate(-569.000000, -188.000000)" fill="#3183BA">
            <g id="Group-12" sketch:type="MSLayerGroup" transform="translate(569.000000, 188.000000)">
                <path d="M18,0 C8.07484089,0 0,8.07484089 0,18 C0,27.9244341 8.07484089,36 18,36 C27.9244341,36 36,27.9244341 36,18 C36,8.07484089 27.9258842,0 18,0 L18,0 Z M22.476436,18.6336905 L19.5479739,18.6336905 L19.5479739,29.0714573 L15.2085717,29.0714573 L15.2085717,18.6336905 L13.1458149,18.6336905 L13.1458149,14.9446548 L15.2085717,14.9446548 L15.2085717,12.5585274 C15.2085717,10.8495932 16.0206235,8.17924756 19.5878514,8.17924756 L22.8034319,8.19157335 L22.8034319,11.7725771 L20.4695078,11.7725771 C20.0895835,11.7725771 19.549424,11.9625393 19.549424,12.7774913 L19.549424,14.9453798 L22.8556352,14.9453798 L22.476436,18.6336905 L22.476436,18.6336905 Z" id="facebook36" sketch:type="MSShapeGroup"></path>
            </g>
        </g>
    </g>
</svg>