<?xml version="1.0" encoding="UTF-8" standalone="no"?>
<svg width="36px" height="36px" viewBox="0 0 36 36" version="1.1" xmlns="http://www.w3.org/2000/svg" xmlns:xlink="http://www.w3.org/1999/xlink" xmlns:sketch="http://www.bohemiancoding.com/sketch/ns">
    <!-- Generator: sketchtool 3.5.2 (25235) - http://www.bohemiancoding.com/sketch -->
    <title>vk36</title>
    <desc>Created with sketchtool.</desc>
    <defs></defs>
    <g id="elements" stroke="none" stroke-width="1" fill="none" fill-rule="evenodd" sketch:type="MSPage">
        <g id="elements---iconset" sketch:type="MSArtboardGroup" transform="translate(-569.000000, -134.000000)" fill="#3183BA">
            <g id="Group-13" sketch:type="MSLayerGroup" transform="translate(569.000000, 134.000000)">
                <path d="M18,0 C8.05921228,0 0,8.05884399 0,18 C0,27.941156 8.05921228,36 18,36 C27.9407877,36 36,27.941156 36,18 C36,8.05884399 27.9407877,0 18,0 L18,0 Z M27.1305575,19.9467621 C27.9695141,20.7661995 28.8570844,21.5373913 29.6102302,22.4415345 C29.9438977,22.8414936 30.2584143,23.2550793 30.4978005,23.7202251 C30.8395703,24.383509 30.5309463,25.1108747 29.9372685,25.1502813 L26.2496164,25.1495448 C25.2972276,25.2283581 24.5392941,24.8442353 23.9003171,24.1931049 C23.3902404,23.6741893 22.9169923,23.1199182 22.4256982,22.5833248 C22.2249821,22.3630895 22.0135857,22.1557442 21.7616777,21.9925934 C21.2589668,21.665555 20.822179,21.7657289 20.534179,22.2909054 C20.2406547,22.825289 20.1736266,23.4174936 20.1456368,24.0122762 C20.1054936,24.8818005 19.8432737,25.1090332 18.9708031,25.149913 C17.1065371,25.2371969 15.3376573,24.9543529 13.6936266,24.0144859 C12.2433146,23.1854731 11.1207775,22.0154271 10.1426087,20.6907008 C8.2378312,18.1082762 6.77904859,15.2739437 5.46831714,12.3582199 C5.17331969,11.7015652 5.38913555,11.3502199 6.11355499,11.3365934 C7.31711509,11.3133913 8.52067519,11.3163376 9.72423529,11.3354885 C10.2140563,11.3432225 10.5381483,11.6234885 10.7263427,12.085688 C11.3767366,13.6858926 12.1740767,15.2083887 13.1732379,16.620399 C13.439509,16.9964194 13.7113043,17.371335 14.0983734,17.6368696 C14.5255857,17.9300256 14.8511509,17.8331662 15.0526036,17.3562353 C15.1815038,17.0531355 15.2371151,16.7290435 15.2651049,16.4042148 C15.3608593,15.2916215 15.3722762,14.1793964 15.2065473,13.0712225 C15.1034271,12.3777391 14.7134118,11.9299028 14.0221381,11.7987928 C13.6700563,11.732133 13.7216164,11.6017596 13.8928696,11.4006752 C14.1900767,11.0530128 14.4685013,10.8379335 15.0249821,10.8379335 L19.1914066,10.8371969 C19.8480614,10.9660972 19.995376,11.2607263 20.0845013,11.9221688 L20.0881841,16.552266 C20.0804501,16.8082251 20.2167161,17.5668951 20.6763376,17.7344655 C21.044624,17.856 21.2876931,17.5606343 21.5079284,17.327509 C22.5070895,16.2672123 23.2189872,15.0157749 23.856491,13.7205115 C24.1378619,13.1492992 24.3805627,12.5581995 24.616266,11.9659949 C24.7915703,11.5281023 25.0641023,11.3126547 25.5583427,11.3200205 L29.5704552,11.3248082 C29.6886752,11.3248082 29.8087366,11.325913 29.9258517,11.3461688 C30.6020256,11.4618107 30.7872737,11.752757 30.578087,12.4123581 C30.2488389,13.4487161 29.6091253,14.3119795 28.9837749,15.1774527 C28.3134936,16.1040614 27.5986496,16.9982609 26.9349974,17.9289207 C26.3251151,18.7796624 26.3733606,19.2079795 27.1305575,19.9467621 L27.1305575,19.9467621 Z" id="vk36" sketch:type="MSShapeGroup"></path>
            </g>
        </g>
    </g>
</svg>