<?xml version="1.0" encoding="UTF-8" standalone="no"?>
<svg width="46px" height="46px" viewBox="0 0 46 46" version="1.1" xmlns="http://www.w3.org/2000/svg" xmlns:xlink="http://www.w3.org/1999/xlink" xmlns:sketch="http://www.bohemiancoding.com/sketch/ns">
    <!-- Generator: sketchtool 3.5.2 (25235) - http://www.bohemiancoding.com/sketch -->
    <title>icon - theme</title>
    <desc>Created with sketchtool.</desc>
    <defs></defs>
    <g id="elements" stroke="none" stroke-width="1" fill="none" fill-rule="evenodd" sketch:type="MSPage">
        <g id="elements---iconset" sketch:type="MSArtboardGroup" transform="translate(-823.000000, -107.000000)">
            <g id="Group-18" sketch:type="MSLayerGroup" transform="translate(823.000000, 107.000000)">
                <g id="icon---theme" transform="translate(4.000000, 2.000000)" sketch:type="MSShapeGroup">
                    <path d="M35.4764925,0 L6.20577387,0 C2.78373869,0 0,2.72831356 0,6.08194915 L0,36.8418898 C0,40.1944322 2.78373869,42.9232924 6.20577387,42.9249322 L35.4766784,42.9249322 C36.2469849,42.9249322 36.8711508,42.3130932 36.8711508,41.5584068 L36.8711508,32.1268305 L36.8711508,10.7984661 L36.8711508,1.36652542 C36.8709648,0.611838983 36.246799,0 35.4764925,0 L35.4764925,0 Z M6.20577387,2.73305085 L34.082206,2.73305085 L34.082206,10.7984661 L34.082206,30.7604873 L6.20577387,30.7604873 C4.94405528,30.7604873 3.76953769,31.1323644 2.78894472,31.7688008 L2.78894472,6.08194915 C2.78894472,4.2353178 4.32174874,2.73305085 6.20577387,2.73305085 L6.20577387,2.73305085 Z M6.20633166,40.1918814 C4.32174874,40.1909703 2.78875879,38.688339 2.78875879,36.8418898 C2.78875879,34.9954407 4.32156281,33.4933559 6.20558794,33.4933559 L34.0820201,33.4933559 L34.0820201,35.4753644 L6.20577387,35.4753644 C5.43546734,35.4753644 4.81130151,36.0872034 4.81130151,36.8418898 C4.81130151,37.5965763 5.43546734,38.2084153 6.20577387,38.2084153 L34.082206,38.2084153 L34.082206,40.1918814 L6.20633166,40.1918814 L6.20633166,40.1918814 Z" id="Shape" fill="#3183BA"></path>
                    <path d="M11.8881065,14 L25.1118935,14 C25.6024835,14 26,13.7411896 26,13.4219542 L26,10.5780458 C26,10.2588104 25.6024835,10 25.1118935,10 L11.8881065,10 C11.3975165,10 11,10.2588104 11,10.5780458 L11,13.4219542 C11,13.7411896 11.3975165,14 11.8881065,14 L11.8881065,14 Z" id="Shape" fill="#F0B11D"></path>
                </g>
            </g>
        </g>
    </g>
</svg>