<?xml version="1.0" encoding="UTF-8" standalone="no"?>
<svg width="46px" height="46px" viewBox="0 0 46 46" version="1.1" xmlns="http://www.w3.org/2000/svg" xmlns:xlink="http://www.w3.org/1999/xlink" xmlns:sketch="http://www.bohemiancoding.com/sketch/ns">
    <!-- Generator: sketchtool 3.5.2 (25235) - http://www.bohemiancoding.com/sketch -->
    <title>icon - activity</title>
    <desc>Created with sketchtool.</desc>
    <defs></defs>
    <g id="elements" stroke="none" stroke-width="1" fill="none" fill-rule="evenodd" sketch:type="MSPage">
        <g id="elements---iconset" sketch:type="MSArtboardGroup" transform="translate(-824.000000, -184.000000)">
            <g id="Group-19" sketch:type="MSLayerGroup" transform="translate(824.000000, 184.000000)">
                <g id="icon---activity" transform="translate(5.000000, 0.000000)" sketch:type="MSShapeGroup">
                    <ellipse id="Oval" fill="#3183BA" cx="18.719" cy="4.19661538" rx="4.151" ry="4.19661538"></ellipse>
                    <path d="M12.97725,11.4805385 C13.13125,10.4154615 13.9485,9.775 14.54525,9.94307692 L18.8765,11.1638462 C19.4715,11.3354615 19.67625,12.7331538 19.50825,13.34 L15.94,28.152 C15.765,28.7606154 15.40625,29.0613846 14.8095,28.888 L11.8835,28.2475385 C9.52625,26.2854615 9.54025,24.5781538 10.02325,22.2215385 L12.97725,11.4805385 L12.97725,11.4805385 Z" id="Shape" fill="#3183BA"></path>
                    <path d="M9.262,28.5005385 L8.52,33.7463077 C8.52,33.7463077 6.61075,38.3303846 5.29825,41.0231538 C4.306,43.0630769 3.83875,44.5333077 4.52125,44.9013077 C5.56775,45.4639231 6.97475,44.2024615 8.44825,41.8794615 C10.91925,37.9836154 12.1915,36.0356923 12.6675,35.0891538 L13.41475,32.6157692 C13.41475,32.6175385 9.745,30.1618462 9.262,28.5005385 L9.262,28.5005385 Z" id="Shape" fill="#3183BA"></path>
                    <path d="M22.3765,30.6713846 L16.59625,24.8683077 C15.6845,23.9394615 14.323,24.3764615 13.40075,25.3 C12.48025,26.2164615 10.67775,27.0833846 11.586,28.0175385 L18.93775,34.2753077 L18.124,42.2934615 C18.0645,44.2714615 18.18,45.4179231 19.4225,45.5488462 C20.58275,45.6709231 21.09375,43.2311538 21.2145,42.6136923 C21.2145,42.6136923 22.70025,34.9334615 22.8805,33.8506923 C23.06075,32.7661538 23.16925,31.4905385 22.3765,30.6713846 L22.3765,30.6713846 Z" id="Shape" fill="#3183BA"></path>
                    <path d="M29.366,13.4656154 L25.0085,15.5373846 L19.51875,11.4858462 C18.64725,10.8471538 17.424,11.0453077 16.7905,11.9316923 C16.15875,12.8145385 16.35475,14.0476923 17.2315,14.6899231 L23.15175,19.0245385 C23.70825,19.4296923 24.564,19.642 25.1905,19.3677692 C25.1905,19.3677692 29.25575,16.8713846 30.346,16.1530769 C31.48875,15.3958462 32.684,14.4015385 32.243,13.5664615 C31.6165,12.3669231 30.4755,12.9242308 29.366,13.4656154 L29.366,13.4656154 Z" id="Shape" fill="#3183BA"></path>
                    <path d="M28.6481,11.2753077 L28.6481,44.8906923 L29.7899,44.8906923 L29.7899,11.2753077 L28.6481,11.2753077 L28.6481,11.2753077 Z" id="Shape" fill="#3183BA"></path>
                    <path d="M7.946,20.7513077 C7.55225,22.0463846 6.1785,22.9451538 4.23775,22.3471538 C2.297,21.7473846 0.28275,20.9246923 0.59775,18.6317692 C0.9425,16.1336154 3.277,12.8163077 5.30175,10.6826154 C7.3265,8.55069231 11.95,7.80938462 10.93675,11.3071538 C10.93675,11.3071538 8.33975,19.4562308 7.946,20.7513077 Z" id="Shape" fill="#F0B11D"></path>
                </g>
            </g>
        </g>
    </g>
</svg>