<?xml version="1.0" encoding="UTF-8" standalone="no"?>
<svg width="46px" height="46px" viewBox="0 0 46 46" version="1.1" xmlns="http://www.w3.org/2000/svg" xmlns:xlink="http://www.w3.org/1999/xlink" xmlns:sketch="http://www.bohemiancoding.com/sketch/ns">
    <!-- Generator: sketchtool 3.5.2 (25235) - http://www.bohemiancoding.com/sketch -->
    <title>icon - place</title>
    <desc>Created with sketchtool.</desc>
    <defs></defs>
    <g id="elements" stroke="none" stroke-width="1" fill="none" fill-rule="evenodd" sketch:type="MSPage">
        <g id="elements---iconset" sketch:type="MSArtboardGroup" transform="translate(-823.000000, -31.000000)">
            <g id="Group-17" sketch:type="MSLayerGroup" transform="translate(823.000000, 31.000000)">
                <g id="icon---place" transform="translate(1.000000, 0.000000)" sketch:type="MSShapeGroup">
                    <path d="M40.4136986,21.1823235 C39.0285274,22.7334706 37.6716096,24.4044281 36.7245548,26.7098399 C36.2935205,27.7744542 35.2687877,28.4654314 34.116726,28.4654314 C32.9577329,28.4654314 31.933,27.7744542 31.4948836,26.7028497 C30.3993288,24.0235752 28.7385548,22.1976307 27.1272055,20.4349739 C26.7244247,19.9908333 26.3215685,19.5466176 25.9258699,19.0883464 C25.9046986,19.0954118 25.8903836,19.1024771 25.869363,19.1094673 C24.3004315,19.5817941 23.091863,21.6546503 23.8198219,23.3397386 C24.3145205,24.4959771 27.7845685,24.2774771 27.4877945,26.7662124 C27.2404452,28.8037418 29.9117123,29.3395817 30.8587671,29.2409673 C31.8058219,29.1281471 33.2616644,30.7921144 32.5266233,31.5253333 C31.7988151,32.2586275 30.4205753,32.2868137 30.632589,34.1763464 C30.6890959,34.7262418 32.3571027,34.6558137 32.3571027,35.4877222 C32.3571027,36.3266961 31.4949589,37.2785654 32.1591781,38.2444902 C32.3005959,38.4559248 32.4489452,38.6181275 32.6044521,38.7450033 C29.4100822,41.6780294 25.1484863,43.4758627 20.4770274,43.4758627 C10.6040753,43.4758627 2.57565753,35.4665261 2.57565753,25.6170392 C2.57565753,22.6277157 3.31778082,19.8074346 4.62519863,17.3256895 C4.61811644,20.5336634 6.3354726,23.198732 7.14110959,24.0024542 C9.77010959,26.6181405 13.5794247,25.7932222 14.0669658,27.9858889 C14.5616644,30.1715654 11.4520548,30.1786307 11.6570616,31.8495131 C11.869,33.5275359 15.9185822,33.9717516 15.0140205,35.5157582 C13.8196164,37.5674183 15.8196575,37.7154902 15.2401986,40.2465425 C14.9292603,41.6284967 16.929226,41.8963791 17.6713493,40.8458954 C18.2367192,40.0421732 18.1236301,39.0550523 19.2614521,37.8495065 C20.6537055,36.3688627 23.8834863,36.1291667 23.5229726,33.682598 C22.9081781,29.6215948 18.9505137,28.9869902 17.2260753,28.0351209 C15.2684521,26.9635163 15.7490616,24.3900719 15.3249589,23.1633301 C14.7313356,21.4218693 12.7171301,23.6498627 11.6428973,22.6345556 C9.87611644,20.9706634 11.9609178,18.6157941 13.4450137,18.6651765 C16.5757945,18.763866 17.5369384,21.8026471 18.6888493,21.696817 C19.8125822,21.5981275 20.5405411,20.0329248 20.7383904,19.2010163 C21.155411,17.3890523 20.0316781,18.1998399 19.5793973,17.2550359 C18.9716096,15.9930425 21.7136986,14.7874216 22.7737671,13.8567484 C22.9363562,13.7157418 23.0564521,13.5818007 23.1200411,13.4548497 C23.4382123,12.834451 23.0211918,12.362049 22.3144041,11.9319641 C20.9010548,11.0787843 18.3214795,10.4020131 18.2013836,9.06951634 C18.130637,8.25158824 19.6996438,7.85683007 21.4875959,7.7863268 C21.7843699,7.80045752 22.074137,7.82864379 22.3710616,7.85683007 C22.519411,7.01778105 22.7596781,6.19286275 23.0847808,5.40327124 C22.2296438,5.29045098 21.3604178,5.23400327 20.4769521,5.23400327 C9.21174658,5.23400327 0.0455821918,14.3783824 0.0455821918,25.6168137 C0.0455068493,36.8556209 9.21174658,46 20.4769521,46 C31.7421575,46 40.9084726,36.8555458 40.9084726,25.6171144 C40.9084726,24.0942288 40.7388014,22.6065948 40.4136986,21.1823235 L40.4136986,21.1823235 Z" id="Shape" fill="#3183BA"></path>
                    <path d="M33.1553562,0.0453235294 C27.3877397,0.589205882 23.4373836,6.16460131 24.4440342,11.8563497 C25.4662808,17.6379935 30.8097192,19.4176373 33.4614726,25.9075458 C33.7004589,26.4923922 34.5258356,26.4953235 34.7646712,25.910402 C37.7042329,18.7123039 43.9545685,17.3075752 43.9545685,9.81746732 C43.9544932,4.08001961 39.0210685,-0.507803922 33.1553562,0.0453235294 Z M34.113637,15.0020882 C31.2433904,15.0020882 28.916589,12.6808922 28.916589,9.81746732 C28.916589,6.95411765 31.2433904,4.63292157 34.113637,4.63292157 C36.9838836,4.63292157 39.3105342,6.95411765 39.3105342,9.81746732 C39.3105342,12.680817 36.9837329,15.0020882 34.113637,15.0020882 Z" id="Path" fill="#F0B11D"></path>
                </g>
            </g>
        </g>
    </g>
</svg>