<?xml version="1.0" encoding="UTF-8" standalone="no"?>
<svg width="106px" height="86px" viewBox="0 0 106 86" version="1.1" xmlns="http://www.w3.org/2000/svg" xmlns:xlink="http://www.w3.org/1999/xlink" xmlns:sketch="http://www.bohemiancoding.com/sketch/ns">
    <!-- Generator: sketchtool 3.5.1 (25234) - http://www.bohemiancoding.com/sketch -->
    <title>mountain icon</title>
    <desc>Created with sketchtool.</desc>
    <defs></defs>
    <g id="elements" stroke="none" stroke-width="1" fill="none" fill-rule="evenodd" sketch:type="MSPage">
        <g id="elements---iconset" sketch:type="MSArtboardGroup" transform="translate(-668.000000, -152.000000)" fill="#FFE295">
            <g id="Group-9" sketch:type="MSLayerGroup" transform="translate(668.000000, 152.000000)">
                <g id="hills-selection" transform="translate(1.000000, 6.000000)" sketch:type="MSShapeGroup">
                    <path d="M28.0464275,23.2741935 C33.6321292,23.2741935 38.1602352,18.659838 38.1602352,12.9677419 C38.1602352,7.27564589 33.6321292,2.66129032 28.0464275,2.66129032 C22.4607258,2.66129032 17.9326198,7.27564589 17.9326198,12.9677419 C17.9326198,18.659838 22.4607258,23.2741935 28.0464275,23.2741935 L28.0464275,23.2741935 Z M28.0464275,19.2741935 C24.6285724,19.2741935 21.8578535,16.450699 21.8578535,12.9677419 C21.8578535,9.48478488 24.6285724,6.66129032 28.0464275,6.66129032 C31.4642825,6.66129032 34.2350015,9.48478488 34.2350015,12.9677419 C34.2350015,16.450699 31.4642825,19.2741935 28.0464275,19.2741935 L28.0464275,19.2741935 Z" id="Shape"></path>
                    <path d="M104.17738,68.6155707 L59.3330941,3.10816768 L57.7091372,0.735932369 L56.1045448,3.12181247 L13.3107929,66.7521521 C12.6980268,67.6632784 12.9260897,68.9080991 13.8201856,69.5325369 C14.7142816,70.1569747 15.9358346,69.9245678 16.5486007,69.0134414 L59.3423526,5.38310185 L56.1138032,5.39674664 L100.958089,70.9041496 C101.57825,71.8100652 102.801653,72.0321391 103.690635,71.4001655 C104.579618,70.7681918 104.797541,69.5214863 104.17738,68.6155707 L104.17738,68.6155707 Z" id="Shape"></path>
                    <path d="M30.144934,45.4779113 L22.4968245,35.0299526 L20.9579502,32.9277214 L19.3757472,34.9962821 L0.414676345,59.7858486 C-0.251678739,60.6570364 -0.0988297071,61.9137505 0.756074212,62.592798 C1.61097813,63.2718456 2.84420222,63.1160852 3.5105573,62.2448974 L22.4716282,37.4553308 L19.3505509,37.4216603 L26.9986605,47.8696189 C27.6467674,48.7549873 28.8764792,48.9373182 29.7452986,48.2768664 C30.6141181,47.6164146 30.7930409,46.3632797 30.144934,45.4779113 L30.144934,45.4779113 Z" id="Shape"></path>
                </g>
            </g>
        </g>
    </g>
</svg>