<?xml version="1.0" encoding="UTF-8" standalone="no"?>
<svg width="106px" height="86px" viewBox="0 0 106 86" version="1.1" xmlns="http://www.w3.org/2000/svg" xmlns:xlink="http://www.w3.org/1999/xlink" xmlns:sketch="http://www.bohemiancoding.com/sketch/ns">
    <!-- Generator: sketchtool 3.5.1 (25234) - http://www.bohemiancoding.com/sketch -->
    <title>travel icon</title>
    <desc>Created with sketchtool.</desc>
    <defs></defs>
    <g id="elements" stroke="none" stroke-width="1" fill="none" fill-rule="evenodd" sketch:type="MSPage">
        <g id="elements---iconset" sketch:type="MSArtboardGroup" transform="translate(-668.000000, -31.000000)" fill="#1F466F">
            <g id="Group-8" sketch:type="MSLayerGroup" transform="translate(668.000000, 31.000000)">
                <g id="Group" sketch:type="MSShapeGroup">
                    <path d="M32.8174316,46.583744 L88.3829445,10.8291531 C88.4696743,10.7715957 88.6158094,10.6815039 88.8380131,10.5571996 C89.2262267,10.3400266 89.6689157,10.1207968 90.1537667,9.91594696 C92.1492,9.07287551 94.1573732,8.75145464 95.9276964,9.20222624 C97.4345778,9.58591849 98.7591861,10.5258516 99.9014893,12.1964811 C101.932905,15.1674469 101.051853,17.7646729 98.0188919,20.3455366 C97.3022048,20.9553933 96.5257324,21.5003532 95.7495283,21.9679709 C95.2898194,22.2449187 94.9426383,22.4294256 94.7672254,22.5133069 L94.6402682,22.574017 L94.5230633,22.6519071 L41.1597304,58.115235 L40.9389145,58.2619812 L40.7639606,58.4611927 C40.6354126,58.607564 40.3103663,58.901309 39.8345241,59.2057089 C37.3765265,60.7781087 34.6490308,60.3808823 31.2244101,56.0659903 C28.141815,52.1820376 28.440979,49.7928416 30.6649194,47.8973873 C31.0703547,47.5518366 31.5124722,47.256366 31.9532847,47.015837 C32.2080533,46.8768227 32.3917688,46.7926744 32.4656387,46.7636933 L32.6504671,46.6911802 L32.8174316,46.583744 L32.8174316,46.583744 Z M30.6529492,43.2199641 L31.0047421,43.0400148 C30.2236972,43.3464392 29.1517339,43.9313553 28.070271,44.8530811 C24.2422709,48.1156683 23.6379818,52.9416674 28.091291,58.5526677 C32.8143266,64.5035132 37.8331404,65.2344421 41.9900399,62.5752417 C42.8150161,62.0474981 43.4107861,61.5090997 43.7694483,61.1007085 L43.3736784,61.4466663 L96.7370112,25.9833384 L96.492849,26.1219386 C97.5568119,25.6131587 99.0770482,24.6973048 100.611145,23.3918823 C105.020719,19.6396052 106.617639,14.9320994 103.203417,9.93876755 C101.517459,7.47303747 99.3741334,5.95214794 96.9147094,5.32591286 C94.161649,4.62491011 91.3242562,5.07905284 88.5970086,6.23131618 C87.5168212,6.68769585 86.6900584,7.1502003 86.1902454,7.48386802 L30.6529492,43.2199641 L30.6529492,43.2199641 Z" id="Shape"></path>
                    <path d="M42.0113063,58.0559919 L40.0321178,76.5904276 L40.8975278,75.1480281 L31.3517303,81.6278999 L31.536731,81.5164148 C31.4494693,81.5627708 31.2413698,81.6574356 30.9635749,81.7555967 C30.5193958,81.9125511 30.0901815,82.0023947 29.7519486,81.9999523 C29.449198,81.9977661 29.3539392,81.9531724 29.272403,81.8211823 C28.9911503,81.365893 28.8812523,80.3098627 29.1498081,78.568367 C29.4128685,76.8625067 29.745037,74.9466069 30.1361002,72.858939 C30.3435628,71.7514118 30.5659581,70.6043916 30.8012092,69.4254875 C31.3158738,66.8463698 31.8676436,64.2341939 32.4194197,61.7239124 C32.6125268,60.8453802 32.7917943,60.0425465 32.9525942,59.3322112 C33.0488633,58.9069409 33.117429,58.6076701 33.1536657,58.4511798 L29.2567763,57.5488202 C29.219096,57.7115444 29.1490674,58.0172009 29.0513046,58.4490695 C28.8887177,59.1672989 28.7076402,59.9782384 28.5126832,60.8651864 C27.9557051,63.3991342 27.3987206,66.0359977 26.8785479,68.6427179 C26.6403273,69.836503 26.4149571,70.9988663 26.2044837,72.1224664 C25.8060352,74.2495606 25.466732,76.2066123 25.1965376,77.9587338 C24.4090057,83.0656187 26.2059219,85.9744508 29.7230655,85.999848 C30.5894139,86.0061039 31.4509017,85.8257763 32.2962541,85.5270641 C32.7797325,85.356223 33.1629747,85.1818856 33.4132971,85.0489068 L33.5982977,84.9374217 L43.1440952,78.45755 L43.9110758,77.9369087 L44.0095052,77.0151505 L45.9886937,58.4807148 L42.0113063,58.0559919 L42.0113063,58.0559919 Z" id="Shape"></path>
                    <path d="M79.767309,34.9460374 C79.7656765,35.0066778 79.7630076,35.1161362 79.7595589,35.2757928 C79.7538553,35.5398411 79.7481626,35.8454964 79.7428561,36.1892872 C79.6799332,40.2658864 79.7238351,44.8325845 79.9551419,49.1629111 C80.2155218,54.0375184 80.6839201,57.9303801 81.4280073,60.5636726 C82.1744647,63.2053531 82.6307349,65.7310771 82.8512395,68.0852437 C83.0020266,69.6950868 83.0266631,71.022545 82.980257,72.0110157 C82.9733753,72.1575991 82.9670934,72.2488832 82.9641128,72.282109 L83.5495904,71.0389488 L75.697988,78.8058426 L76.1137352,78.4903615 C76.032173,78.5368749 75.8278325,78.6357961 75.5496873,78.7391947 C75.0357988,78.9302292 74.5369772,79.0260672 74.1516483,78.9939257 C73.6438248,78.9515665 73.3584439,78.713561 73.1052441,77.7999835 C72.624646,76.065923 71.3924073,70.7042515 69.6590394,62.8873203 C69.5876236,62.5651828 69.5876236,62.5651828 69.5162369,62.2428856 C68.7273855,58.6805845 67.8905432,54.8632881 67.0593352,51.0459155 C66.7683994,49.7097753 66.4989551,48.4690917 66.2576998,47.3557056 C66.1732704,46.9660662 66.1233495,46.7354498 66.0339222,46.3220474 C65.9686307,46.0200307 65.9686307,46.0200307 65.9549587,45.9567032 L62.0450413,46.8008271 C62.0588561,46.8648162 62.0588561,46.8648162 62.1243035,47.1675537 C62.2138937,47.5817097 62.2638774,47.8126162 62.3484229,48.2027914 C62.5899533,49.317447 62.8596817,50.5594385 63.1509157,51.8969484 C63.9830502,55.718576 64.8208587,59.5402799 65.6108464,63.1077123 C65.6823549,63.4305597 65.6823549,63.4305597 65.7538972,63.7532673 C67.5097066,71.6714029 68.7421196,77.0338327 69.250551,78.8683191 C69.9497074,81.3909658 71.636876,82.7980518 73.8191501,82.9800823 C74.8772392,83.068341 75.9254668,82.8669463 76.9434699,82.4885107 C77.4443854,82.3022987 77.8382901,82.1116095 78.0952863,81.9650493 L78.3239183,81.8346646 L78.5110335,81.6495681 L86.3626358,73.8826744 L86.8827451,73.3681765 L86.9481134,72.6395142 C86.9561045,72.5504381 86.9662802,72.402569 86.9758561,72.1985988 C87.1278965,68.9600744 86.7166977,64.5700061 85.2772848,59.4759856 C84.6347259,57.2019975 84.1950826,53.5481191 83.9494477,48.949553 C83.723842,44.7259587 83.680752,40.24371 83.7423797,36.2510204 C83.7475571,35.9155938 83.753097,35.6181448 83.7586261,35.3621746 C83.761917,35.2098201 83.7644899,35.1042986 83.7658528,35.0539626 L79.767309,34.9460374 L79.767309,34.9460374 Z" id="Shape"></path>
                    <path d="M70.6397426,17.1107763 C70.5953064,17.0957785 70.5017803,17.0639377 70.3667526,17.017559 C70.1398053,16.9396081 69.8760054,16.8481454 69.5784405,16.743944 C68.7263362,16.4455538 67.776062,16.1054349 66.7523704,15.7297991 C63.829345,14.6572174 60.9072067,13.5163882 58.1861262,12.3582717 C55.8142944,11.3487986 53.7082003,10.3731022 51.9419152,9.45208028 C50.3918733,8.64381742 49.1326056,7.89222641 48.2105339,7.21898862 C45.3978284,5.16533099 42.6087106,3.58015572 39.9640259,2.4038296 C38.3530127,1.68726898 37.1280796,1.26178849 36.4080494,1.06843299 L35.6922089,0.876202593 L35.0239818,1.19690891 L25.0334404,5.99172996 L24.7951547,6.10609183 L24.5947573,6.27842739 C24.2510199,6.57403093 23.7936897,7.04436174 23.335889,7.66941723 C22.0243615,9.4601034 21.5053555,11.4694886 22.5011874,13.4834599 C22.9177261,14.3258681 23.5805531,15.0733868 24.4754352,15.7198667 C26.0527061,16.8593173 30.8061738,19.9777339 37.8345057,24.5119577 C37.9599597,24.5928887 37.9599597,24.5928887 38.0854239,24.6738111 C41.1603863,26.6570223 44.4545221,28.7717132 47.748593,30.8797779 C48.9014671,31.6175681 49.9720088,32.3018461 50.932793,32.9153351 C51.2691072,33.1300817 51.4681386,33.2571103 51.8251236,33.4848793 C52.0860711,33.6513255 52.0860711,33.6513255 52.1412284,33.686486 L54.2913586,30.313514 C54.2367747,30.2787191 54.2367747,30.2787191 53.976452,30.1126714 C53.6201198,29.8853189 53.4213397,29.7584507 53.0854896,29.5440005 C52.1258045,28.9312132 51.0563948,28.2476588 49.9047057,27.510627 C46.6143104,25.4049145 43.3239801,23.2926665 40.2534407,21.3123081 C40.1281892,21.2315228 40.1281892,21.2315228 40.0029511,21.1507311 C33.0637541,16.6740114 28.3095855,13.5551349 26.8178169,12.4774528 C26.4275981,12.1955513 26.1993686,11.9381601 26.086804,11.7105094 C25.892238,11.3170189 26.0392143,10.747985 26.5629198,10.0329468 C26.8171724,9.68580458 27.0718955,9.42384033 27.2028603,9.31121471 L26.7641772,9.59791214 L36.7547186,4.80309109 L35.370651,4.93156701 C35.4809449,4.96118514 35.7317555,5.03792471 36.1081321,5.16865911 C36.760467,5.39524765 37.5088594,5.68962881 38.3384211,6.05860856 C40.7331762,7.12376876 43.2767576,8.56939518 45.8518012,10.4495273 C46.9580474,11.2572375 48.3794671,12.1056086 50.0924691,12.9988463 C51.9618857,13.9736457 54.1589274,14.9914757 56.6196651,16.0387879 C59.4098178,17.2263022 62.3925721,18.3907964 65.3744394,19.4849697 C66.4174602,19.8676981 67.3862761,20.2144535 68.2564322,20.5191651 C68.5616584,20.6260493 68.8329894,20.7201231 69.0673619,20.8006244 C69.209126,20.8493169 69.3062787,20.8823923 69.3602574,20.9006203 L70.6397426,17.1107763 L70.6397426,17.1107763 Z" id="Shape"></path>
                    <path d="M32.4990982,41.6928589 L14.5342436,37.0632757 L13.6096439,36.8250043 L12.8429997,37.3941393 L3.58049198,44.2703636 L3.41247377,44.4099521 C3.09684018,44.7027445 2.6748892,45.1632507 2.25154569,45.763913 C1.34925862,47.044126 0.842809716,48.4031697 1.03992229,49.8592076 C1.36953389,52.2939938 3.51816452,53.9123542 7.26542484,54.6893143 C9.0788101,55.0653032 11.1279491,55.4476109 13.3708648,55.8330442 C16.5046962,56.3715766 19.8580673,56.8898514 23.2108402,57.3693844 C24.3838486,57.5371548 25.4732211,57.6881333 26.451254,57.8199641 C26.793939,57.8661552 27.0983636,57.9066706 27.361061,57.9412148 C27.5193213,57.9620257 27.6280593,57.9761629 27.686343,57.9836603 L28.1966052,54.0163397 C28.1437024,54.0095367 28.0370163,53.9956664 27.8825643,53.9753562 C27.6240744,53.9413653 27.323922,53.9014185 26.985589,53.855814 C26.0178564,53.7253716 24.9390902,53.5758631 23.77718,53.4096799 C20.4587569,52.9350598 17.140932,52.4222788 14.0483138,51.8908287 C11.8474127,51.5126154 9.8418943,51.138446 8.07751591,50.7726183 C6.75695538,50.4988121 5.86391154,50.1424778 5.35960353,49.7626303 C5.09558917,49.5637732 5.01967565,49.4401263 5.0037652,49.3225984 C4.96983693,49.071976 5.14503111,48.6018465 5.52109196,48.0682713 C5.76248758,47.7257664 6.00527571,47.4607938 6.13280154,47.3424965 L5.96478333,47.482085 L15.2272911,40.6058607 L13.5360472,40.9367243 L31.5009018,45.5663075 L32.4990982,41.6928589 L32.4990982,41.6928589 Z" id="Shape"></path>
                </g>
            </g>
        </g>
    </g>
</svg>