<?xml version="1.0" encoding="UTF-8" standalone="no"?>
<svg width="228px" height="74px" viewBox="0 0 228 74" version="1.1" xmlns="http://www.w3.org/2000/svg" xmlns:xlink="http://www.w3.org/1999/xlink" xmlns:sketch="http://www.bohemiancoding.com/sketch/ns">
    <!-- Generator: sketchtool 3.5.1 (25234) - http://www.bohemiancoding.com/sketch -->
    <title>vs logo rus big</title>
    <desc>Created with sketchtool.</desc>
    <defs>
        <path id="path-1" d="M0,0.173831533 L227.563205,0.173831533 L227.563205,73.3736501 L0,73.3736501"></path>
        <path id="path-3" d="M0,0.173831533 L227.563205,0.173831533 L227.563205,73.3736501 L0,73.3736501 L0,0.173831533 Z"></path>
    </defs>
    <g id="elements" stroke="none" stroke-width="1" fill="none" fill-rule="evenodd" sketch:type="MSPage">
        <g id="elements---iconset" sketch:type="MSArtboardGroup" transform="translate(-16.000000, -123.000000)">
            <g id="logo-rus" sketch:type="MSLayerGroup" transform="translate(16.000000, 18.000000)">
                <g id="Page-1" transform="translate(0.000000, 105.000000)">
                    <path d="M185.462488,32.5721391 C185.952959,31.7556726 186.876778,30.4871456 187.132847,30.2158108 L187.131369,30.2158108 C186.708363,30.1665667 186.587715,29.895232 186.562108,29.7671974 C186.381382,29.8962168 185.728406,30.3738842 185.462488,30.711206 C185.152251,31.1046661 184.548026,31.8049166 184.241235,32.2461434 C184.050168,32.5204328 183.866981,32.8208216 183.741408,33.0547309 C183.698566,33.2064026 183.663603,33.3561045 183.641935,33.5008821 C183.596138,33.8027482 183.710384,34.0844242 184.053616,34.0593097 C184.38749,34.0346877 184.652423,33.7904371 184.858263,33.5506186 C184.937546,33.4585322 185.021261,33.3600441 185.104976,33.2581089 C185.168501,33.0990505 185.2793,32.8774523 185.462488,32.5721391" id="Fill-1" fill="#008CCF" sketch:type="MSShapeGroup"></path>
                    <path d="M187.532314,31.8884838 L187.532314,31.8884838 C187.617014,31.6723024 187.929222,31.0272052 188.191692,30.8356458 C188.162638,30.825797 188.1326,30.8154557 188.100591,30.8041296 C187.819407,30.7017019 187.825809,30.1772527 187.851416,30.100432 C187.872098,30.0383844 187.787891,30.1900562 187.493904,30.2196026 C187.305299,30.419041 186.938924,30.8253045 186.757705,31.1527775 C186.50853,31.6033607 186.172686,32.1406134 185.84669,32.6394557 C185.520695,33.1378056 185.320764,33.5460389 185.219321,33.5962678 L185.218336,33.5962678 C185.213904,33.6056242 185.209965,33.6149806 185.20504,33.6243369 C185.116893,33.8011231 184.922379,34.1246566 185.041057,34.3270497 C185.272997,34.7229719 185.771347,34.2674644 185.957489,34.0798445 C186.51444,33.5199395 186.94631,32.8142721 187.366362,32.1509546 C187.421515,32.0637927 187.476669,31.9761382 187.532314,31.8884838" id="Fill-3" fill="#008CCF" sketch:type="MSShapeGroup"></path>
                    <path d="M185.465197,30.2863283 C185.70206,30.077041 185.989153,29.7736976 186.18613,29.6195637 C186.176281,29.6220259 186.166432,29.6244881 186.155598,29.6274428 C186.009343,29.6678229 185.865551,29.6116847 185.747365,29.521568 L185.747857,29.5220605 C185.747857,29.5220605 184.966354,30.0494644 184.429102,30.4522808 C183.892341,30.8550972 182.693248,31.8813434 182.511045,32.1310108 C182.328842,32.3801857 181.896972,32.6490583 181.79159,33.0661555 C181.698518,33.4340086 182.09641,33.4699568 182.192436,33.4734039 C182.213611,33.4734039 182.235279,33.4734039 182.257931,33.4719266 C182.483469,33.4571533 182.707529,33.3793477 182.923218,33.2724881 C182.924203,33.2719957 183.767754,32.514622 184.103106,32.0064233 C184.43895,31.4977322 185.110147,30.600013 185.465197,30.2863283" id="Fill-5" fill="#008CCF" sketch:type="MSShapeGroup"></path>
                    <path d="M227.31467,2.78568726 C227.23785,2.80095292 227.163984,2.82705227 227.09258,2.86103067 C227.015759,2.90978229 226.873444,3.0348622 226.638549,3.359873 C226.247059,3.90106523 224.443742,5.0395879 223.516968,5.42319914 C222.798005,5.72014082 222.487768,5.86344104 222.383863,5.9126851 C222.447387,5.93681469 222.769444,6.0776527 222.851189,6.50115162 C223.12991,6.36622289 224.365936,5.76692268 224.834247,5.5379378 C225.315854,5.30156631 226.349979,4.62889244 226.734083,4.25316026 C227.058109,3.86019266 227.30039,3.36332009 227.417098,2.8881149 C227.432856,2.82311274 227.376718,2.77337624 227.31467,2.78568726" id="Fill-7" fill="#008CCF" sketch:type="MSShapeGroup"></path>
                    <g id="Group-11">
                        <mask id="mask-2" sketch:name="Clip 10" fill="white">
                            <use xlink:href="#path-1"></use>
                        </mask>
                        <g id="Clip-10"></g>
                        <path d="M222.684695,5.26483024 C222.656625,5.31555162 222.625109,5.36331836 222.594086,5.40763801 C222.949135,5.25251922 224.121636,4.72216069 225.038561,4.1110419 C226.132271,3.38173737 226.778353,2.71054082 226.989118,2.37814341 C227.029498,2.31461857 227.067908,2.26438963 227.104349,2.22548683 C227.355986,1.64686911 227.652928,0.906730886 227.537697,0.276406911 C227.520954,0.182843197 227.40326,0.150342117 227.327917,0.191214687 C226.904418,0.42216933 226.699563,0.824985745 226.45088,1.22041555 C226.012608,1.91771145 225.334517,2.45594903 224.723891,2.99320173 C224.051217,3.58462289 223.330777,4.09626868 222.588176,4.57541339 C222.663027,4.76303326 222.774811,5.10232484 222.684695,5.26483024" id="Fill-9" fill="#008CCF" sketch:type="MSShapeGroup" mask="url(#mask-2)"></path>
                    </g>
                    <path d="M227.142612,4.71457711 C226.973212,4.66385572 226.852072,4.67124233 226.728469,4.72097883 C226.727484,4.72196371 226.726992,4.72245616 226.726007,4.72344104 C226.605359,4.86723369 225.952875,5.34096156 225.390508,5.66055551 C224.827648,5.98014946 223.797955,6.52331145 223.516771,6.651346 C223.313886,6.7434324 223.02827,6.86211058 222.88497,6.92120346 C222.937661,7.22750151 222.919441,7.26541944 222.787959,7.45697883 C222.634318,7.68103931 222.583104,7.74505659 222.583104,7.74505659 C222.583104,7.74505659 222.585566,7.74702635 222.588521,7.74998099 C222.766784,7.70073693 223.40154,7.51705659 223.945195,7.27822289 C224.575519,7.00048639 225.738663,6.51937192 226.442361,6.0121581 C226.76294,5.68222289 227.027873,5.29270238 227.215493,4.84261166 C227.237653,4.78942808 227.191856,4.72935032 227.142612,4.71457711" id="Fill-12" fill="#008CCF" sketch:type="MSShapeGroup"></path>
                    <path d="M183.946067,30.4007715 C184.233652,30.1515965 185.539604,29.3247888 185.539604,29.3247888 L185.543051,29.3277434 C185.49233,29.277022 185.448995,29.2218687 185.416987,29.16967 C185.319483,29.0130739 185.391872,28.8476138 185.416987,28.8003395 L185.230844,28.9017823 L184.283388,29.468089 L183.505332,29.9846592 C183.471846,30.01913 183.437375,30.0521235 183.403889,30.0861019 C183.043423,30.3436484 182.681971,30.6002099 182.331846,30.873022 C182.07627,31.0724605 181.834974,31.2886419 181.585306,31.4949745 C181.451362,31.5649011 181.319388,31.6372898 181.191846,31.7165728 C180.977142,31.8495317 180.725997,32.0159767 180.550689,32.2262488 C180.310378,32.4015577 180.115371,32.6152769 180.052831,32.9132035 C180.026732,33.0348363 180.12325,33.1146117 180.237989,33.0983611 C180.547734,33.0550263 180.848615,32.9471819 181.142602,32.8122531 C181.675915,32.3749659 181.95119,32.1080631 182.305747,31.7658168 C182.660797,31.4240631 183.658481,30.6499464 183.946067,30.4007715" id="Fill-14" fill="#008CCF" sketch:type="MSShapeGroup"></path>
                    <path d="M225.597432,8.99088207 C225.52455,8.92194039 225.439358,8.87417365 225.347272,8.83970281 C225.157682,8.8140959 224.858771,8.81508078 224.418529,8.91947819 C223.529673,9.13073521 222.949578,9.17062289 222.775254,9.16914557 C222.705328,9.16816069 222.430546,9.14895551 222.383764,9.14895551 C222.343876,9.20607862 222.516723,9.26960346 222.471911,9.30062721 C222.599453,9.5635905 222.466987,9.91568553 222.219289,10.0584933 C222.218304,10.0594782 222.217319,10.0594782 222.216334,10.0599706 C222.210917,10.0678497 222.205993,10.0757287 222.199591,10.0836078 C222.19319,10.0905019 222.188265,10.0964112 222.182356,10.1023205 C222.204516,10.1170937 222.226676,10.1303896 222.246866,10.1476251 C222.319747,10.1840657 222.378347,10.2485754 222.400507,10.3317978 C222.416758,10.3948302 222.425622,10.4524458 222.426606,10.5110462 C222.427099,10.5120311 222.427099,10.5120311 222.428084,10.5125235 C222.454676,10.5410851 222.474866,10.5730937 222.489146,10.6070721 C223.111591,10.571124 223.979764,10.5233572 224.873051,10.1328518 C225.192645,9.9929987 226.08347,9.45180648 225.597432,8.99088207" id="Fill-16" fill="#008CCF" sketch:type="MSShapeGroup"></path>
                    <path d="M226.481018,6.84812527 C226.321467,6.74520518 226.089527,6.73289417 225.836413,6.76539525 C225.657657,6.83039741 225.478901,6.91608207 225.36564,7.02294168 C225.064266,7.30707991 223.663765,7.78031533 223.446599,7.86993952 C223.279169,7.93888121 222.890141,8.00339093 222.718771,8.02998272 C222.794607,8.14570626 222.865026,8.30673434 222.81332,8.46480778 C222.778357,8.57265227 222.739454,8.67261771 222.697104,8.76027214 C223.053139,8.7307257 224.238936,8.53374946 224.546219,8.48401296 C224.771756,8.44707991 225.05097,8.32741685 225.309502,8.27423326 C225.391739,8.23533045 225.474469,8.19692009 225.555229,8.15801728 C225.830996,8.02505832 227.148767,7.27753348 226.481018,6.84812527" id="Fill-18" fill="#008CCF" sketch:type="MSShapeGroup"></path>
                    <path d="M189.46997,31.5010808 C189.169581,31.4114566 189.169581,31.0214436 189.137572,30.8998108 C189.105564,30.7786704 188.971127,30.8426877 188.881503,30.8870073 C188.816501,30.9200009 188.706194,30.914584 188.542212,30.8697719 C188.4127,31.038679 188.121667,31.4400181 188.003482,31.7857114 C187.905978,32.0703421 187.716881,32.5578583 187.574073,32.8419965 C187.461797,33.1320441 187.298799,33.3989469 187.187508,33.6904717 C187.049624,34.0499533 187.013676,34.4956121 187.525322,34.4089425 C188.223603,34.2902644 188.773166,33.3226186 189.177952,32.8287006 C189.521184,32.4086488 189.82108,31.9393529 190.067793,31.4434652 C190.063361,31.4030851 190.057944,31.3607352 190.052035,31.3218324 C190.032829,31.200692 189.770359,31.590705 189.46997,31.5010808" id="Fill-20" fill="#008CCF" sketch:type="MSShapeGroup"></path>
                    <path d="M205.55766,27.2796337 C205.556182,27.2648605 205.552735,27.2505797 205.548303,27.2367914 C205.464588,26.8748475 205.232156,26.2553572 205.03715,25.8431844 C204.767292,25.2724458 204.20591,24.5569296 203.62877,24.1004371 C202.963975,23.575003 202.570022,22.9402471 202.27899,22.456178 C202.011595,22.0115041 202.242549,22.4025019 202.090878,22.1607136 C201.747647,21.634787 201.356649,21.8711585 201.007508,22.0400657 C198.95994,22.9954004 197.245755,23.3701477 195.109547,24.0748302 C194.098074,24.4082125 193.121565,24.8258022 192.136191,25.2256639 C192.09975,25.2404371 192.062817,25.2547179 192.025392,25.2694911 L188.262653,27.3293702 C188.273979,27.3416812 188.285798,27.3534998 188.297124,27.3658108 C188.161703,27.3525149 188.031698,27.4465711 187.982947,27.5711585 C187.964234,27.5514609 187.945029,27.5322557 187.927794,27.5130505 L186.218532,28.4486877 C186.114627,28.6052838 186.07474,28.6821045 186.291906,28.9834782 C186.521876,29.3030721 187.039923,28.964273 187.134472,28.9834782 C187.228528,29.0026834 187.123146,29.0602989 187.078333,29.2070462 C187.033521,29.354286 187.147768,29.5990289 187.455543,29.6866834 C187.763318,29.7748302 188.172044,29.424705 188.297616,29.4439102 C188.422696,29.4631153 188.370005,29.6098626 188.318791,29.7442989 C188.267578,29.8787352 188.304018,30.145638 188.467508,30.2751499 C188.631491,30.4051542 189.143629,30.249543 189.252459,30.1855257 C189.361288,30.1215084 189.354886,30.1855257 189.342083,30.3391672 C189.329279,30.4923162 189.246057,30.613949 189.438109,30.8380095 C189.629668,31.0615775 189.994074,30.7931974 190.064493,30.6779663 C190.134912,30.5627352 190.23734,30.6011456 190.262947,30.6523594 C190.288554,30.7035732 190.173323,30.8946402 190.218135,31.0807827 C190.21912,31.0861996 190.222074,31.0916164 190.223552,31.0970333 C190.332873,31.2767741 190.537729,31.3043508 190.724856,31.2038929 C190.942022,31.0881693 191.102066,30.8882384 191.240934,30.6656553 C191.264571,30.7341045 191.314308,30.7912276 191.376355,30.8222514 C191.476813,30.9163076 191.607802,30.9719533 191.75061,30.9340354 C191.975163,30.8749425 192.156873,30.7129296 192.311992,30.5149685 C192.328735,30.5464847 192.345971,30.577016 192.365668,30.6065624 C192.465634,30.7552795 192.623707,30.8163421 192.795076,30.7730073 C192.998947,30.722286 193.16096,30.5105365 193.278653,30.3519706 C193.369262,30.2303378 193.45347,30.1047654 193.53423,29.9777158 C193.469228,30.2800743 193.45347,30.5947438 193.658817,30.8468734 C193.703137,30.9010419 193.807534,30.900057 193.851854,30.8468734 C194.02667,30.6380786 194.186221,30.4002298 194.328044,30.1495775 C194.302437,30.3682212 194.317703,30.5804631 194.448692,30.7370592 C194.620061,30.9433918 194.879578,31.0113486 195.070644,30.7892579 C195.19474,30.6449728 195.263189,30.4534134 195.308493,30.257422 C195.329668,30.3170073 195.355275,30.3751153 195.384822,30.431746 C195.393686,30.4509512 195.403534,30.4696639 195.41486,30.4873918 C195.423232,30.5011801 195.429634,30.5159533 195.438005,30.5297417 C195.46312,30.5691369 195.498083,30.5991758 195.537478,30.6203508 C195.552251,30.6326618 195.56801,30.6449728 195.584752,30.6572838 C195.813245,30.8247136 196.056511,30.693232 196.195379,30.4888691 C196.260381,30.3928432 196.305686,30.2825365 196.340156,30.166813 C196.351975,30.1801089 196.365271,30.1919274 196.379552,30.2027611 C196.414022,30.278597 196.467206,30.3485235 196.551413,30.4086013 C196.742973,30.5454998 196.904493,30.3170073 196.968018,30.1673054 C197.020709,30.0427179 197.055673,29.9122212 197.082264,29.7787698 C197.110826,29.801422 197.140865,29.8230894 197.174351,29.8442644 C197.289582,29.917638 197.576675,29.8944933 197.652018,29.9752536 C197.77759,30.1101823 198.008545,29.9521089 198.088813,29.8398324 C198.171543,29.7241089 198.223249,29.5837633 198.254765,29.4320916 C198.263629,29.4384933 198.272986,29.444895 198.28185,29.4503119 C198.365565,29.5842557 198.485228,29.6935775 198.635422,29.7551326 C198.919068,29.8713486 199.200744,29.4547438 199.365219,29.1839015 C199.617349,29.3995905 199.852735,29.4345538 200.013271,29.1666661 C200.027552,29.1789771 200.040848,29.192273 200.056113,29.2040916 C200.101418,29.2444717 200.176761,29.2656467 200.23093,29.2267438 C200.364873,29.129733 200.477642,29.0332147 200.586472,28.9179836 L200.626852,28.9504847 C200.694809,29.0046531 200.807085,29.0110549 200.852882,28.9214307 C200.895724,28.8367309 200.944968,28.7584328 200.99372,28.6791499 C200.997167,28.6816121 201.001107,28.6845667 201.004554,28.6875214 C201.039025,28.7131283 201.081867,28.7131283 201.120277,28.6988475 C201.218273,28.7500613 201.334489,28.7687741 201.463016,28.748584 C201.665902,28.7165754 201.817573,28.5476683 201.875189,28.3575862 C201.96826,28.4284976 202.079552,28.4723248 202.195768,28.4634609 C202.344977,28.4516423 202.452822,28.3738367 202.519794,28.2650073 C202.543923,28.272394 202.56953,28.2778108 202.598584,28.2783032 C202.766999,28.2792881 202.936891,28.2980009 203.102351,28.2541737 C203.289478,28.2049296 203.395353,28.0517806 203.399292,27.8769641 C203.403232,27.8754868 203.406679,27.8735171 203.410126,27.8720397 C203.458385,27.9350721 203.526835,27.9769296 203.626308,27.9769296 C203.811465,27.9769296 203.918325,27.8104847 203.952303,27.6484717 C203.958213,27.6199102 203.959197,27.591841 203.957228,27.5642644 C203.974463,27.5460441 203.991698,27.5273313 204.007949,27.5086186 C204.046852,27.530286 204.08083,27.5524458 204.099051,27.5701737 C204.175871,27.6425624 204.28667,27.6578281 204.381711,27.6140009 C204.488571,27.5642644 204.509254,27.4835041 204.54077,27.3830462 C204.552588,27.3845235 204.563914,27.3874782 204.575241,27.3904328 C204.664865,27.4391844 204.767785,27.4578972 204.862826,27.4199793 C204.904683,27.4037287 204.941124,27.3791067 204.969686,27.3490678 C205.036657,27.4116078 205.114463,27.4583896 205.201625,27.4963076 C205.2228,27.5071413 205.24496,27.5169901 205.269089,27.5228994 C205.39023,27.5519533 205.516787,27.4864587 205.550765,27.3633486 C205.556182,27.3431585 205.558152,27.3234609 205.558152,27.3042557 C205.559629,27.3037633 205.561107,27.302286 205.561107,27.302286 C205.561107,27.2953918 205.559137,27.2870203 205.55766,27.2796337" id="Fill-22" fill="#008CCF" sketch:type="MSShapeGroup"></path>
                    <path d="M211.638612,29.1311611 C211.742517,29.248362 211.720357,29.5408717 211.720357,29.5408717 L211.678499,29.5034462 C211.636642,29.4655283 211.638612,29.3616233 211.461333,29.3394635 C211.284054,29.3173037 211.246629,29.4167767 211.251061,29.6693987 C211.255493,29.9220207 211.38599,29.9993339 211.31754,30.0017961 C211.248599,30.0037659 211.122534,29.8333814 211.023061,29.6231093 C210.923095,29.4123447 210.850214,29.3350315 210.748279,29.2862799 C210.646344,29.2375283 210.692633,29.5275758 210.692633,29.5275758 C210.624184,29.4724225 210.498612,29.3330618 210.436564,29.0804397 C210.374517,28.8283102 210.296219,28.4461762 210.218413,28.2890877 C210.1411,28.1315067 209.983026,27.7867983 209.85253,27.5366384 C209.722033,27.2864786 209.486154,26.7250963 209.318232,26.7053987 C209.103527,26.6802842 209.12224,26.4217529 209.139968,26.27993 C209.157696,26.1381071 209.040003,25.8731741 209.040003,25.8731741 C209.130612,25.6934333 209.186257,25.8554462 209.376832,26.0593166 C209.567406,26.2626946 209.587104,26.4202756 209.653584,26.6369495 C209.720063,26.8541158 209.899804,27.1180639 210.023899,27.3923533 C210.147994,27.6671352 210.482361,27.9571827 210.757143,28.178781 C211.031432,28.4003793 211.534707,29.0139603 211.638612,29.1311611 L211.638612,29.1311611 Z M209.248797,30.0815715 C209.248797,30.0815715 209.129134,30.0594117 209.000607,30.0505477 C208.87208,30.0416838 208.792305,30.1613469 208.812495,30.4336665 C208.832193,30.7064786 208.956288,30.980768 208.932158,31.0319819 C208.907536,31.0827032 208.825791,30.9610704 208.721394,30.8433771 C208.617489,30.7261762 208.521955,30.653295 208.437748,30.6931827 C208.354033,30.7330704 208.44021,30.9920942 208.44021,30.9920942 C208.44021,30.9920942 208.356003,30.9167508 208.287553,30.8039819 C208.218612,30.6907205 208.032469,29.7028847 207.968944,29.5541676 C207.905419,29.405943 207.844357,29.3951093 207.857653,29.2311266 C207.870949,29.0671438 207.77246,28.862781 207.695147,28.4176147 C207.617342,27.9724484 207.432184,27.6228156 207.341083,27.5144786 C207.250473,27.4061417 207.374568,27.2199991 207.327787,27.1599214 C207.281497,27.1003361 207.157402,26.8831698 207.157402,26.8831698 C207.126871,26.8304786 207.212556,26.757105 207.212556,26.757105 C207.212556,26.757105 207.332219,26.8368803 207.38097,26.9077918 C207.429722,26.9787032 207.62719,27.1003361 207.698102,27.2244311 C207.769013,27.3485261 207.744391,27.5720942 207.71583,27.6582713 C207.686776,27.7449408 207.885722,28.2319646 207.952201,28.5067464 C208.018681,28.7810359 208.098949,28.8834635 208.200391,28.9307378 C208.302327,28.9785045 208.267363,29.1493814 208.324979,29.2065045 C208.382594,29.2641201 208.459908,29.2488544 208.685938,29.4571568 C208.911968,29.6649667 209.10008,29.915619 209.10008,29.915619 L209.308383,30.0928976 L209.248797,30.0815715 Z M202.690966,19.1779516 C202.551113,19.1779516 202.437359,19.0641978 202.437359,18.9243447 C202.437359,18.7844916 202.551113,18.6707378 202.690966,18.6707378 C202.831311,18.6707378 202.944573,18.7844916 202.944573,18.9243447 C202.944573,19.0641978 202.831311,19.1779516 202.690966,19.1779516 L202.690966,19.1779516 Z M221.632201,8.81552397 C221.938992,8.89234471 222.284685,8.52744622 222.239873,8.0226946 C222.195061,7.51745054 221.472158,7.79863413 221.472158,7.79863413 C221.472158,7.79863413 221.332797,7.72181339 221.441134,7.68980475 C221.548979,7.65828855 222.441281,7.66961469 222.316694,6.76303153 C222.191614,5.85595594 221.649929,6.40207257 221.600193,6.32180475 C221.550456,6.24153693 222.271882,5.81656069 222.163052,5.33052181 C222.134491,5.20199482 222.104452,5.10498402 222.076875,5.03111793 C221.360374,5.48761037 220.625653,5.91751102 219.894378,6.36316976 C219.815588,6.41142894 219.73532,6.46018056 219.655545,6.50893218 C219.656037,6.50991706 219.657022,6.51139438 219.657514,6.51237927 C219.633385,6.52518272 219.61024,6.54044838 219.589558,6.55965356 C219.585126,6.56408553 219.580694,6.56802505 219.575769,6.57245702 C219.554102,6.58723024 219.530957,6.60003369 219.507813,6.61283715 C219.484175,6.6256406 219.459553,6.63696674 219.435424,6.64829287 C219.431977,6.64977019 219.428037,6.65124752 219.42459,6.65321728 C219.417203,6.65617192 219.408832,6.65961901 219.403908,6.66158877 C219.355648,6.68128639 219.313298,6.70886307 219.277843,6.74234903 C218.648504,7.13679395 218.017687,7.56226263 217.464184,8.05913521 C216.483735,8.69733823 215.418093,9.19076371 214.542534,9.98211577 C213.338517,11.0694246 212.434888,12.4965175 211.413566,13.7473166 C210.853169,14.4332864 210.28046,15.0975888 209.733359,15.7835585 C209.489601,16.0460294 209.255692,16.3208112 209.033601,16.6015024 C209.010949,16.6024873 208.988789,16.6123361 208.973031,16.637943 C208.943977,16.6852173 208.912953,16.7305218 208.882422,16.7763188 C208.85386,16.8088199 208.825298,16.8418134 208.796737,16.8743145 C208.348124,17.2318263 207.93989,17.6420294 207.523286,18.0345045 C207.215018,18.3240596 206.896409,18.6037659 206.581739,18.8879041 C206.336011,19.0548415 206.090283,19.1986341 205.811562,19.2985996 C205.36935,19.2562497 204.817324,19.1523447 204.287458,18.9085866 C203.138102,18.3801978 202.485618,18.1320078 201.895182,18.4112216 C201.304746,18.6909279 201.056063,19.2503404 201.056063,19.2503404 C201.056063,19.2503404 200.279484,19.2350747 200.139631,19.4832648 C199.999778,19.7319473 200.015044,19.8875585 200.015044,19.8875585 C200.015044,19.8875585 201.555398,19.6620207 202.053748,21.2013901 C202.05818,21.210254 202.062612,21.2176406 202.067044,21.2274894 C202.200987,21.5180294 202.841653,22.2739257 203.187346,22.8092086 C203.500538,23.2937702 204.577013,24.028984 205.177791,24.9518177 C205.712581,25.7737011 206.089298,27.1092 206.165134,27.3923533 C206.258206,27.7173641 206.192219,28.0738911 206.192219,28.0738911 C206.111458,28.5747032 206.027743,29.0745305 205.947968,29.5753425 C205.860806,30.1244138 205.802698,30.6759473 205.723415,31.2260035 C205.692391,31.4387378 205.66383,31.6554117 205.680573,31.8651914 C205.632314,32.0872821 205.657921,32.3064181 205.84751,32.4935456 C206.136573,32.7781762 206.456659,32.5319559 206.664469,32.2231957 C206.679735,32.5122583 206.859476,32.7683274 207.206646,32.8362842 C207.245057,32.8436708 207.282975,32.8481028 207.319908,32.850565 C207.531165,32.8988242 207.741929,32.8535197 207.879813,32.6580207 C207.887199,32.647187 207.893108,32.6358609 207.900003,32.6250272 C207.942352,32.5821849 207.981255,32.535403 208.015726,32.4841892 C208.041333,32.5290013 208.071372,32.5708587 208.10535,32.6087767 C208.165428,32.8397313 208.369791,33.0155326 208.644573,32.979092 C208.875035,32.9485607 209.024737,32.8096924 209.105497,32.6294592 C209.228115,32.8894678 209.445774,33.1829624 209.751087,33.0603447 C209.781126,33.0775801 209.818059,33.0834894 209.857454,33.0652691 C209.956927,33.0184873 210.040149,32.9505305 210.110076,32.8712475 C210.306067,32.7279473 210.393722,32.5260467 210.4277,32.2975542 C210.465126,32.319714 210.50846,32.3320251 210.55278,32.3335024 C210.560167,32.3546773 210.567061,32.3763447 210.575925,32.3970272 C210.667519,32.6107464 210.837411,32.8077227 211.060979,32.8865132 C211.329851,32.9810618 211.451977,32.7456752 211.507622,32.4797572 C211.510085,32.4733555 211.511562,32.4669538 211.513532,32.4605521 C211.526828,32.4546428 211.538646,32.448241 211.549972,32.4408544 C211.557359,32.4905909 211.579026,32.5378652 211.618914,32.5782454 C211.681946,32.6407853 211.771571,32.6629451 211.853808,32.6447248 C211.914871,32.6801806 211.990707,32.692984 212.055709,32.6747637 C212.198024,32.6358609 212.257117,32.4989624 212.232987,32.3630488 C212.226586,32.328578 212.216737,32.2955844 212.205411,32.2630834 C212.208858,32.2453555 212.210828,32.2276276 212.210335,32.2098998 C212.243329,32.2143317 212.276815,32.2118695 212.309316,32.1995585 C212.317687,32.1961114 212.325566,32.1916795 212.333938,32.1882324 C212.368901,32.2542194 212.411251,32.3142972 212.465912,32.3650186 C212.559476,32.4511957 212.728383,32.4211568 212.760391,32.287213 C212.777627,32.2163015 212.786983,32.1444052 212.791415,32.0730013 C212.803726,32.0414851 212.807666,32.0065218 212.799294,31.9695888 C212.797324,31.9607248 212.795847,31.9523533 212.793877,31.9439819 C212.7924,31.892768 212.78846,31.8415542 212.782059,31.7903404 C212.815052,31.7893555 212.847553,31.7785218 212.87119,31.7578393 C212.909601,31.7819689 212.954413,31.7962497 213.002672,31.7962497 C213.046499,31.7962497 213.087864,31.7839387 213.124305,31.7632562 C213.181921,31.7558695 213.238059,31.7297702 213.276962,31.6903749 C213.344918,31.6224181 213.363139,31.5278695 213.338517,31.4426773 C213.339994,31.370781 213.336054,31.2993771 213.32916,31.2284657 C213.39367,31.2658911 213.467044,31.2870661 213.549774,31.2816492 C213.769402,31.2678609 213.91221,31.0856579 213.985584,30.8945909 C214.054525,30.7148501 214.054525,30.5375715 214.0171,30.3652173 C214.071268,30.3726039 214.126914,30.3647248 214.176651,30.3356708 C214.269722,30.2810099 214.3298,30.15593 214.292867,30.0490704 C214.270707,29.9845607 214.24313,29.9220207 214.216538,29.8594808 C214.214568,29.8545564 214.205212,29.8319041 214.19881,29.8171309 C214.194378,29.8062972 214.190439,29.7949711 214.186007,29.7841374 C214.194871,29.7880769 214.203735,29.7925089 214.212599,29.7959559 C214.232789,29.8353512 214.26135,29.869822 214.300746,29.8919819 C214.7011,30.1125952 215.091113,30.0067205 215.145774,29.5196968 C215.156607,29.4246557 215.152175,29.3207508 215.137895,29.2143836 C215.156607,29.0154376 215.105886,28.800241 215.00986,28.6150834 C215.186154,28.6209927 215.355061,28.568794 215.458966,28.4013641 C215.519536,28.302876 215.545143,28.2009408 215.544158,28.1004829 C215.576167,28.0019948 215.569765,27.9064613 215.531355,27.8197918 C215.634767,27.8089581 215.73621,27.7636536 215.826327,27.6695974 C215.867692,27.6267551 215.8997,27.5789883 215.924322,27.528267 C215.985877,27.4662194 216.017886,27.3943231 216.02872,27.3170099 C216.059743,27.2721978 216.079933,27.2175369 216.076979,27.1687853 C216.066638,26.9826428 215.996219,26.8127508 215.871139,26.6930877 C215.822879,26.561606 215.703216,26.4567162 215.542188,26.4064873 C215.5284,26.4020553 215.515104,26.400578 215.502301,26.400578 C215.434836,26.3518263 215.360478,26.313416 215.281195,26.2883015 C215.046301,26.1479559 214.778413,26.0603015 214.517912,25.9637832 C213.875769,25.7264268 213.273022,25.3807335 212.649592,25.0995499 C212.143363,24.8715499 211.637134,24.6071093 211.118102,24.3781244 C210.905368,24.0023922 211.020106,23.4385477 211.463795,23.3016492 C211.599709,23.2592994 211.67259,23.2115326 211.789791,23.133727 C212.008435,22.9889495 212.011389,22.7378048 212.276322,22.6043533 C212.464435,22.5098048 212.641713,22.2478263 212.732815,21.9883102 C212.922897,21.9366039 213.050439,21.7750834 213.073584,21.5549624 C213.078508,21.5091654 213.074568,21.4609063 213.067182,21.4126471 C213.08097,21.3895024 213.095743,21.3658652 213.113964,21.3417356 C213.126275,21.3254851 213.139078,21.3112043 213.152374,21.2979084 C213.319311,21.3545391 213.515303,21.3309019 213.698983,21.2018825 C213.922059,21.0457788 214.046154,20.8113771 214.051571,20.572051 C214.163847,20.5484138 214.26529,20.484889 214.333247,20.3662108 C214.389877,20.2672302 214.411545,20.1633253 214.409575,20.0604052 C214.502646,20.0037745 214.606551,19.9688112 214.729169,19.8407767 C214.82421,19.7422886 214.886257,19.643308 214.925653,19.5379257 C214.990655,19.5512216 215.067968,19.5354635 215.160054,19.4744009 C215.490975,19.2537875 215.67761,18.9450272 215.748029,18.5963793 C215.813523,18.6047508 215.889851,18.5909624 215.979968,18.5436881 C216.314828,18.3683793 216.484227,18.0960596 216.537903,17.7863145 C216.733895,17.7759732 216.932841,17.6592648 217.068754,17.4755844 C217.189402,17.3120942 217.248003,17.1097011 217.238646,16.9171568 C217.500625,16.8812086 217.726655,16.6665045 217.779346,16.3892605 C217.794119,16.31047 217.796089,16.2316795 217.786733,16.1558436 C217.968443,16.2252778 218.150646,16.24793 218.34713,16.1326989 C218.550508,16.0130359 218.65786,15.7540121 218.682975,15.5304441 C218.689376,15.4703663 218.692331,15.4053641 218.690854,15.3374073 C218.855329,15.3211568 219.022266,15.2339948 219.17246,15.049822 C219.374361,14.8031093 219.410802,14.4318091 219.333981,14.0787292 C219.625506,14.0245607 219.873696,13.8398955 219.98548,13.4932173 C220.036201,13.3356363 220.045065,13.1746082 220.021428,13.0165348 C220.057376,13.0160423 220.092832,13.0150575 220.125333,13.0125952 C220.140599,13.0116104 220.155372,13.0096406 220.170638,13.0081633 C220.273065,13.0140726 220.381895,12.9988069 220.486784,12.9599041 C220.58281,12.9244484 220.660124,12.8495974 220.670957,12.7456924 C220.674404,12.7402756 220.678344,12.7358436 220.681791,12.7304268 C220.759597,12.5915585 220.740884,12.4477659 220.683761,12.3143145 C220.686223,12.3024959 220.686715,12.2901849 220.688685,12.2783663 C220.876305,12.284768 221.06294,12.260146 221.253022,12.1710143 C221.525834,12.0439646 221.717394,11.758349 221.633679,11.4589451 C221.587389,11.2934851 221.464771,11.157079 221.322949,11.0418479 C221.392383,11.0443102 221.460832,11.0443102 221.527804,11.0384009 C221.820806,11.0123015 222.070473,10.751308 222.018275,10.4504268 C221.995622,10.3218998 221.980357,10.282997 221.863648,10.2076536 C221.876452,10.2071611 221.809972,10.1480683 221.823268,10.1475758 C221.724288,10.0658307 221.582957,9.98556285 221.402232,9.97916112 C221.02453,9.96635767 221.050137,9.91514384 221.050137,9.91514384 C221.050137,9.91514384 221.508106,9.7969581 221.657808,9.5507378 C221.80751,9.30451749 221.562767,8.97507473 221.441134,8.93075508 L221.319009,8.88594298 C221.319009,8.88594298 221.325411,8.73870324 221.632201,8.81552397 L221.632201,8.81552397 Z" id="Fill-24" fill="#008CCF" sketch:type="MSShapeGroup"></path>
                    <path d="M82.7414462,44.6305814 C81.6117875,43.3920933 79.8631309,42.7730955 77.4959689,42.7730955 C76.1924786,42.7730955 74.8131525,43.1754194 73.3579905,43.9790825 L72.0219991,42.7730955 L68.0800121,43.1320847 L68.3405132,44.3045857 L70.2955024,44.3045857 L70.2955024,62.4667801 L68.1775153,63.1512726 L68.4380164,64.3237737 L75.2474851,64.3237737 L75.5084786,63.1512726 L73.3579905,62.4667801 L73.3579905,45.1845771 C75.0086514,44.5980803 76.2904743,44.3045857 77.2024743,44.3045857 C78.4621374,44.3045857 79.4066384,44.733994 80.0369624,45.5918255 C80.666794,46.4501495 80.9819559,47.3291559 80.9819559,49.4358168 C80.9819559,51.5429702 80.4550445,52.6499767 79.401714,53.9638082 C78.3478911,55.2781322 77.1374721,55.9350479 75.7689797,55.9350479 L75.2986989,55.9350479 C75.2962367,56.3388492 75.2834333,56.7396959 75.2499473,57.1405425 L75.8339819,57.1405425 C78.3538004,57.1405425 80.4171266,56.3969572 82.0244527,54.9088017 C83.6317788,53.4211387 84.4354419,52.074806 84.4354419,49.6638168 C84.4354419,47.1439983 83.8706125,45.8685771 82.7414462,44.6305814" id="Fill-26" fill="#184E82" sketch:type="MSShapeGroup"></path>
                    <g id="Group-30">
                        <mask id="mask-4" sketch:name="Clip 29" fill="white">
                            <use xlink:href="#path-3"></use>
                        </mask>
                        <g id="Clip-29"></g>
                        <path d="M6.2882203,36.6949011 L8.86220734,36.6949011 C10.3611965,36.6949011 11.4573693,37.0696484 12.1531879,37.8186505 C12.8480216,38.5681451 13.1956847,39.551549 13.1956847,40.7678773 C13.1956847,41.8970436 12.7987775,42.8582877 12.0064406,43.6511171 C11.2131188,44.4439464 10.2518747,44.8398687 9.12270842,44.8398687 L8.32692441,44.8398687 L8.32692441,46.2083611 L10.2306998,46.2083611 C11.7291965,46.2083611 12.9726091,46.7298557 13.9609374,47.7728449 C14.9492657,48.8148492 15.443676,50.0646635 15.443676,51.519333 C15.443676,52.9749875 15.0251015,54.2129832 14.1889374,55.2338125 C13.3527732,56.2551343 12.2831922,56.7648104 10.9801944,56.7648104 L8.22449676,56.7648104 C8.22843629,56.8066678 8.22892873,56.850495 8.22646652,56.8967844 C8.20085961,57.310927 8.2092311,57.7226073 8.22449676,58.1333028 L11.9246955,58.1333028 C14.1401857,58.1333028 15.9159266,57.5359724 17.2519179,56.3413114 C18.5879093,55.147143 19.2556587,53.6589875 19.2556587,51.8778298 C19.2556587,50.1400069 18.6474946,48.66367 17.4311663,47.4468492 C16.2143456,46.230521 14.7375162,45.6223568 13.0001857,45.6223568 L13.0001857,45.49186 C14.1510194,45.231359 15.1068467,44.6340285 15.8671749,43.6998687 C16.6275032,42.7662013 17.0076674,41.6912035 17.0076674,40.4743827 C17.0076674,39.0403957 16.4699222,37.8245598 15.3949244,36.8249054 C14.3194341,35.8262359 12.9888596,35.3264086 11.4036933,35.3264086 L0.22824622,35.3264086 L-0.000246220302,36.6949011 L2.83473434,37.7698989 L2.83473434,55.6898125 L0.0327473002,56.7648104 L0.29324838,58.1333028 L6.34682073,58.1333028 L6.2882203,36.6949011 Z" id="Fill-28" fill="#184E82" sketch:type="MSShapeGroup" mask="url(#mask-4)"></path>
                    </g>
                    <path d="M49.4267559,44.0909158 L46.0057711,44.0909158 L46.0057711,56.2763585 L48.0907646,56.9603585 L47.8627646,58.1333521 L41.0207948,58.1333521 L40.7927948,56.9603585 L42.9102894,56.2763585 L42.9102894,44.0909158 L39.4893045,44.0909158 L38.7073089,46.6649028 L37.5018143,46.4364104 L37.5018143,42.9179222 L51.4142462,42.9179222 L51.4142462,46.4364104 L50.2087516,46.6649028 L49.4267559,44.0909158 Z" id="Fill-31" fill="#184E82" sketch:type="MSShapeGroup"></path>
                    <path d="M57.6674048,50.0856907 L66.5727006,50.0856907 C66.9420311,49.303695 67.1266963,48.5005244 67.1266963,47.6747015 C67.1266963,46.13287 66.5126229,44.8943819 65.2859533,43.9607145 C64.0582989,43.0265546 62.4888907,42.559721 60.5777287,42.559721 C58.2534091,42.559721 56.3584976,43.2712976 54.8925019,44.6934661 C53.4265063,46.1166194 52.6932622,48.0553581 52.6932622,50.5091896 C52.6932622,53.0073408 53.4043464,54.96233 54.8274998,56.3741572 C56.2496683,57.7864769 58.3622384,58.4921443 61.1642255,58.4921443 C63.4880527,58.4921443 65.3563724,57.851479 66.7681996,56.5696562 L66.0191974,55.4941659 C64.476381,56.4716605 62.9237158,56.960654 61.3597244,56.960654 C59.6657287,56.960654 58.3730721,56.3524898 57.4827395,55.1361616 C56.5919145,53.9198333 56.1467482,52.2903473 56.1467482,50.2486886 L56.2122428,48.9126972 C56.5160786,45.4813711 57.9712406,43.7652156 60.5777287,43.7652156 C61.706895,43.7652156 62.5706359,44.0744683 63.1679663,44.6934661 C63.7652968,45.3124639 64.0642082,46.2195395 64.0642082,47.4142004 C64.0642082,47.9140276 63.9878799,48.4133624 63.8362082,48.9126972 L57.6649425,48.9126972 L57.6674048,50.0856907 Z" id="Fill-33" fill="#184E82" sketch:type="MSShapeGroup"></path>
                    <path d="M26.1843965,50.0856907 L35.0896924,50.0856907 C35.4590229,49.303695 35.6436881,48.5005244 35.6436881,47.6747015 C35.6436881,46.13287 35.0296147,44.8943819 33.8029451,43.9607145 C32.5752907,43.0265546 31.0058825,42.559721 29.0947205,42.559721 C26.7704009,42.559721 24.8754894,43.2712976 23.4094937,44.6934661 C21.9434981,46.1166194 21.210254,48.0553581 21.210254,50.5091896 C21.210254,53.0073408 21.9213382,54.96233 23.3444916,56.3741572 C24.76666,57.7864769 26.8792302,58.4921443 29.6812173,58.4921443 C32.0050445,58.4921443 33.8733641,57.851479 35.2851914,56.5696562 L34.5361892,55.4941659 C32.9933728,56.4716605 31.4407076,56.960654 29.8767162,56.960654 C28.1827205,56.960654 26.8900639,56.3524898 25.9997313,55.1361616 C25.1089063,53.9198333 24.66374,52.2903473 24.66374,50.2486886 L24.7292346,48.9126972 C25.0330704,45.4813711 26.4882324,43.7652156 29.0947205,43.7652156 C30.2238868,43.7652156 31.0876276,44.0744683 31.6849581,44.6934661 C32.2822886,45.3124639 32.5812,46.2195395 32.5812,47.4142004 C32.5812,47.9140276 32.5048717,48.4133624 32.3532,48.9126972 L26.1819343,48.9126972 L26.1843965,50.0856907 Z" id="Fill-35" fill="#184E82" sketch:type="MSShapeGroup"></path>
                    <path d="M159.191865,44.7013451 C157.93171,43.2570168 156.128885,42.5346065 153.78339,42.5346065 C153.081662,42.5346065 152.411451,42.6483603 151.772755,42.8743905 C151.04542,43.5135784 150.981895,44.5117555 151.022276,45.1105633 C151.726958,44.1990557 152.646345,43.7401011 153.78339,43.7401011 C155.086388,43.7401011 156.052556,44.3428484 156.68288,45.5488354 C157.312712,46.75433 157.627874,48.367073 157.627874,50.3865719 C157.627874,52.4508829 157.312712,54.1123775 156.68288,55.3720406 C156.052556,56.6317037 155.086388,57.2615352 153.78339,57.2615352 C152.458232,57.2615352 151.426077,56.6100363 150.687908,55.306546 C150.100919,54.2709434 149.751286,53.018667 149.630638,51.5575957 C149.629654,51.5531637 149.626699,51.5507015 149.625714,51.5452847 C149.466656,50.7416216 149.414949,47.8214488 149.691209,45.0559024 C149.751779,44.4506929 149.813826,44.0286713 149.884245,43.7258203 L149.942846,43.3210341 C150.168876,41.7122307 151.404902,39.798114 153.620392,39.2766194 C156.052556,38.6901227 157.671209,38.0711248 158.474872,37.4196259 C159.278042,36.768127 159.756202,35.540965 159.908859,33.7376475 L159.747338,33.7376475 C159.48733,34.3896389 159.068263,34.8348052 158.493584,35.0736389 C157.917429,35.312965 157.032021,35.540965 155.837852,35.7576389 C154.643191,35.9752976 152.544902,36.2904596 151.567407,36.7026324 C150.655407,37.0936302 149.878336,37.6367922 149.238163,38.3316259 C148.597498,39.0269521 148.103088,39.7601961 147.755425,40.5308657 C147.407762,41.3025201 147.136427,42.2632717 146.94142,43.4145978 C146.745429,44.565924 146.620349,45.6300881 146.566673,46.6075827 C146.512012,47.5850773 146.484928,48.7900795 146.484928,50.2240665 C146.484928,52.7222177 147.114759,54.7205417 148.374915,56.2190384 C149.634086,57.7175352 151.437403,58.4670298 153.78339,58.4670298 C156.128885,58.4670298 157.93171,57.739695 159.191865,56.2840406 C160.451528,54.8293711 161.08136,52.8955568 161.08136,50.4845676 C161.08136,48.0735784 160.451528,46.1461659 159.191865,44.7013451" id="Fill-37" fill="#184E82" sketch:type="MSShapeGroup"></path>
                    <path d="M93.2586972,50.9561287 C92.1073711,43.1987119 94.590749,40.8502626 95.5032415,39.7102626 C96.4152415,38.5697702 97.6315698,37.663187 99.1522263,36.9895283 C100.67239,36.316362 102.388054,35.9795326 104.299708,35.9795326 C106.862861,35.9795326 108.648943,36.6206903 110.864434,37.9015283 L110.864434,42.3325089 L109.495941,42.5605089 L107.932442,38.1950229 C106.476788,37.7828501 105.668693,37.5760251 104.299708,37.5760251 C101.671552,37.5760251 99.7224726,38.4067724 98.4519758,40.068267 C97.1809866,41.7297616 96.5457382,43.6955844 96.5457382,47.1707378 C96.5457382,54.1865391 99.1300665,57.0909538 104.299708,57.0909538 C105.755362,57.0909538 106.530956,56.8846212 107.834447,56.4719559 L109.495941,51.8779775 L110.864434,52.1059775 L110.864434,56.7649581 C110.060771,57.3514549 109.001531,57.818781 107.687699,58.1659516 C106.373375,58.5131222 105.646533,58.6874462 104.299708,58.6874462 C102.258049,58.6874462 100.466058,58.3501244 98.9242263,57.6774505 C97.3814099,57.0042842 96.1709909,56.0917918 95.2909996,54.9404657 C94.4115006,53.7891395 93.4896518,52.3413641 93.2586972,50.9561287" id="Fill-39" fill="#184E82" sketch:type="MSShapeGroup"></path>
                    <path d="M118.302798,44.0909158 L120.127291,44.0909158 C120.887127,44.0909158 121.528284,44.3139914 122.049779,44.7586652 C122.570781,45.204324 122.831775,45.7962376 122.831775,46.534406 C122.831775,47.273067 122.570781,47.8925572 122.049779,48.391892 C121.528284,48.8917192 120.887127,49.1408942 120.127291,49.1408942 L119.670798,49.1408942 L119.670798,50.3463888 L120.876785,50.3463888 C121.83212,50.3463888 122.646617,50.6723844 123.320276,51.3238834 C123.992949,51.9758747 124.329779,52.7795378 124.329779,53.7348726 C124.329779,54.6690324 123.992949,55.4401944 123.320276,56.0483585 C122.646617,56.6565227 121.83212,56.9603585 120.876785,56.9603585 L120.15142,56.9603585 C120.150435,56.973162 120.152898,56.9839957 120.15142,56.9972916 C120.128276,57.2346479 120.089865,57.474959 120.048008,57.7162549 C120.04653,57.8556156 120.037667,57.9954687 120.013537,58.1333521 L123.548276,58.1333521 C124.699602,58.1333521 125.687438,57.7261037 126.51326,56.9116069 C127.338098,56.0971102 127.751256,55.1146911 127.751256,53.963365 C127.751256,52.8120389 127.338098,51.8237106 126.51326,50.9983801 C125.687438,50.1730497 124.699602,49.7387171 123.548276,49.6948898 C124.329779,49.5210583 124.976353,49.1197192 125.486522,48.4893952 C125.997183,47.8595637 126.252759,47.1430626 126.252759,46.3389071 C126.252759,45.3835724 125.915438,44.5744924 125.242271,43.9116674 C124.568613,43.2493348 123.754116,42.9179222 122.798781,42.9179222 L113.284829,42.9179222 L113.056829,44.0909158 L115.239818,44.7749158 L115.239818,56.2763585 L113.08933,56.9603585 L113.350323,58.1333521 L118.284578,58.1333521 C118.283593,58.1294125 118.282116,58.1264579 118.281623,58.1220259 L118.302798,44.0909158 Z" id="Fill-41" fill="#184E82" sketch:type="MSShapeGroup"></path>
                    <path d="M188.646461,58.1285754 L189.765286,58.1334998 L191.014608,58.1334998 L191.68285,60.2509944 L192.3506,62.3689814 L192.936604,62.2877287 L193.523101,62.2059836 L193.523101,59.5832449 L193.523101,56.9605063 L192.611101,56.9605063 L191.699101,56.9605063 L191.699101,50.8675387 L191.699101,44.7750635 L192.790349,44.4328173 L193.88209,44.0910635 L193.767844,43.5045667 L193.65409,42.91807 L187.333122,42.91807 L181.012155,42.91807 L180.897908,43.5045667 L180.784155,44.0910635 L181.875403,44.4328173 L182.967144,44.7750635 C182.967144,46.1327222 182.904604,47.427841 182.779524,48.6604199 C182.654937,49.8929987 182.467317,51.0630376 182.217649,52.1710289 C181.967982,53.2785279 181.655282,54.2318929 181.281027,55.0301391 C180.90628,55.8283853 180.468993,56.4720052 179.969658,56.9605063 L179.252664,56.9605063 L178.536163,56.9605063 L178.536163,59.5507438 L178.536163,62.1409814 L179.138911,62.2552276 L179.741658,62.3689814 L180.393157,60.2509944 L181.044656,58.1334998 L183.919524,58.1334998 L186.735792,58.1334998 C186.711662,57.944895 186.753027,57.7572752 186.741209,57.5686704 C186.72939,57.3800657 186.723973,57.1899836 186.722988,56.9974393 C186.722988,56.9905451 186.724466,56.9846359 186.725451,56.9787266 C186.726928,56.9728173 186.727913,56.966908 186.728405,56.9605063 L184.212034,56.9605063 L181.696155,56.9605063 C182.597813,55.7550117 183.273934,54.1338972 183.724517,52.0976553 C184.175101,50.0614134 184.400638,47.6095516 184.400638,44.7425624 L184.400638,44.4165667 L184.400638,44.0910635 L186.518133,44.0910635 L188.63612,44.0910635 L188.63612,50.5257849 L188.63612,56.9605063 L188.646461,58.1285754 Z" id="Fill-43" fill="#184E82" sketch:type="MSShapeGroup"></path>
                    <path d="M212.372545,56.2437097 L212.372545,44.774768 L210.255051,44.090768 L210.483051,42.9177745 L217.32502,42.9177745 L217.55302,44.090768 L215.435526,44.774768 L215.435526,56.2437097 L217.55302,56.9607032 L217.32502,58.1332043 L210.483051,58.1332043 L210.255051,56.9607032 L212.372545,56.2437097 Z M204.16159,49.1407464 C204.813582,49.1407464 205.449323,49.2116579 206.067828,49.3524959 C206.687318,49.4943188 207.311241,49.7272432 207.941565,50.0532389 C208.570904,50.3792346 209.07664,50.8628112 209.456312,51.502984 C209.835984,52.1441417 210.027051,52.8990531 210.027051,53.7677184 C210.027051,54.9190445 209.586809,55.9339646 208.706817,56.8139559 C207.827318,57.6934549 206.811413,58.1332043 205.66058,58.1332043 L196.407621,58.1332043 L196.179621,56.9277097 L198.297115,56.2762108 L198.297115,44.774768 L196.114619,44.090768 L196.37512,42.9177745 L203.315085,42.9177745 L203.543085,44.090768 L201.360096,44.774768 L201.360096,56.9607032 L203.412588,56.9607032 C204.367923,56.9607032 205.139085,56.6347076 205.726074,55.9832086 C206.312571,55.3312173 206.605573,54.517213 206.605573,53.5392259 C206.605573,52.5838911 206.312571,51.8073123 205.726074,51.2099819 C205.139085,50.6126514 204.367923,50.3142324 203.412588,50.3142324 L202.761089,50.3142324 L202.761089,49.1407464 L204.16159,49.1407464 Z" id="Fill-45" fill="#184E82" sketch:type="MSShapeGroup"></path>
                    <path d="M142.616117,44.6527413 C141.324446,43.2404216 139.418208,42.5347542 136.89839,42.5347542 C134.356904,42.5347542 132.446234,43.2241711 131.163919,44.6039896 C129.883081,45.9828233 129.241923,47.9540631 129.241923,50.5172164 C129.241923,53.0148752 129.915089,54.9644475 131.261914,56.3659335 C131.634692,56.7534842 132.052282,57.0819421 132.506312,57.3626333 C133.597068,57.7595404 134.663694,57.5256311 135.591452,57.0533806 C134.799608,56.7884475 134.130873,56.2699076 133.591651,55.4859421 C132.776662,54.3021149 132.369413,52.6785382 132.369413,50.6152121 C132.369413,48.5297261 132.776662,46.8628147 133.591651,45.6139853 C134.405655,44.3646635 135.50823,43.7402488 136.89839,43.7402488 C138.266882,43.7402488 139.35813,44.3700803 140.172627,45.6297434 C140.987616,46.8894065 141.394865,48.5509011 141.394865,50.6152121 C141.394865,52.6563784 140.987616,54.2750307 140.172627,55.4696916 C140.135694,55.52386 140.095314,55.5701495 140.057396,55.6218557 C138.690873,57.7260544 135.251176,58.2509961 134.972947,58.2898989 C135.573232,58.4036527 136.211435,58.4671775 136.89839,58.4671775 C139.288204,58.4671775 141.161448,57.7556009 142.519107,56.33294 C143.876273,54.9097866 144.554856,52.9715404 144.554856,50.5172164 C144.554856,48.0190652 143.908774,46.064076 142.616117,44.6527413" id="Fill-47" fill="#184E82" sketch:type="MSShapeGroup"></path>
                    <path d="M176.386611,44.6527413 C175.094939,43.2404216 173.188702,42.5347542 170.668883,42.5347542 C168.127397,42.5347542 166.216727,43.2241711 164.934412,44.6039896 C163.653574,45.9828233 163.012416,47.9540631 163.012416,50.5172164 C163.012416,53.0148752 163.685583,54.9644475 165.032408,56.3659335 C165.405185,56.7534842 165.822775,57.0819421 166.276805,57.3626333 C167.367561,57.7595404 168.434187,57.5256311 169.361946,57.0533806 C168.570101,56.7884475 167.901367,56.2699076 167.362144,55.4859421 C166.547155,54.3021149 166.139907,52.6785382 166.139907,50.6152121 C166.139907,48.5297261 166.547155,46.8628147 167.362144,45.6139853 C168.176149,44.3646635 169.278723,43.7402488 170.668883,43.7402488 C172.037375,43.7402488 173.128624,44.3700803 173.943121,45.6297434 C174.75811,46.8894065 175.165358,48.5509011 175.165358,50.6152121 C175.165358,52.6563784 174.75811,54.2750307 173.943121,55.4696916 C173.906187,55.52386 173.865807,55.5701495 173.827889,55.6218557 C172.461367,57.7260544 169.021669,58.2509961 168.74344,58.2898989 C169.343725,58.4036527 169.981928,58.4671775 170.668883,58.4671775 C173.058697,58.4671775 174.931941,57.7556009 176.2896,56.33294 C177.646766,54.9097866 178.325349,52.9715404 178.325349,50.5172164 C178.325349,48.0190652 177.679267,46.064076 176.386611,44.6527413" id="Fill-49" fill="#184E82" sketch:type="MSShapeGroup"></path>
                    <path d="M133.88421,71.703981 L132.750119,71.703981 L131.509661,69.3215533 L130.873921,69.3215533 L130.873921,71.703981 L129.862448,71.703981 L129.862448,66.4107369 L130.873921,66.4107369 L130.873921,68.5479292 L131.524927,68.5479292 L132.72008,66.4107369 L133.746327,66.4107369 L132.359614,68.8463482 L133.88421,71.703981 Z" id="Fill-51" fill="#184E82" sketch:type="MSShapeGroup"></path>
                    <path d="M137.698704,71.703981 L136.718255,71.703981 L136.718255,68.3947801 L135.729927,68.3947801 L135.630454,69.482089 C135.57924,70.054305 135.517685,70.4832207 135.446773,70.7693287 C135.374877,71.0554367 135.256199,71.2760501 135.090246,71.4316613 C134.924294,71.587765 134.670194,71.7089054 134.327948,71.7960674 L134.082713,71.0682402 C134.25162,70.9963438 134.37276,70.916076 134.446626,70.8269443 C134.520985,70.7373201 134.574168,70.5959896 134.607654,70.4014756 C134.640648,70.207454 134.675119,69.8780112 134.711067,69.4136397 L134.84895,67.6516873 L137.698704,67.6516873 L137.698704,71.703981 Z" id="Fill-53" fill="#184E82" sketch:type="MSShapeGroup"></path>
                    <path d="M140.096447,72.8874635 C139.764542,73.1652 139.310019,73.3281978 138.732879,73.3735024 L138.633406,72.6614333 C138.898831,72.6205607 139.112058,72.5629451 139.273086,72.4885866 C139.433622,72.4147205 139.562641,72.3167248 139.659652,72.1941071 C139.757155,72.0714894 139.846287,71.9079991 139.928032,71.7041287 L139.591203,71.7041287 L138.303963,67.6513425 L139.345967,67.6513425 L140.226943,71.0526298 L141.145838,67.6513425 L142.157311,67.6513425 L140.83954,71.7193944 C140.676049,72.219714 140.428352,72.6092346 140.096447,72.8874635" id="Fill-55" fill="#184E82" sketch:type="MSShapeGroup"></path>
                    <path d="M144.872776,70.796019 C145.023463,70.6098765 145.098806,70.2868354 145.098806,69.8268959 C145.098806,69.403397 145.037251,69.1030082 144.914633,68.9272069 C144.792016,68.7509132 144.608335,68.6627663 144.3631,68.6627663 C144.174003,68.6627663 143.996724,68.7134877 143.830771,68.8159153 C143.664819,68.918343 143.525951,69.0739542 143.413182,69.2832415 L143.413182,69.7963646 C143.413182,70.2149391 143.48754,70.5330557 143.635273,70.750222 C143.783497,70.9673883 143.990322,71.0757253 144.255748,71.0757253 C144.516249,71.0757253 144.721597,70.982654 144.872776,70.796019 M145.397225,68.1417641 C145.627195,68.2899888 145.806936,68.5056778 145.937432,68.7893235 C146.067929,69.0724769 146.132931,69.4088138 146.132931,69.7963646 C146.132931,70.2149391 146.054633,70.5768829 145.899022,70.8802263 C145.743411,71.1840622 145.524767,71.4164942 145.244076,71.5775222 C144.963385,71.7380579 144.636404,71.8188181 144.263627,71.8188181 C143.686486,71.8188181 143.228024,71.6233192 142.888733,71.2328138 C142.548949,70.8423084 142.379549,70.2484251 142.379549,69.4521486 C142.379549,68.864667 142.426331,68.3820752 142.521372,68.0038808 C142.615428,67.6261788 142.779903,67.3159413 143.01529,67.073168 C143.249692,66.8308873 143.579134,66.6408052 144.003126,66.5024294 C144.314348,66.4004942 144.559584,66.3098851 144.738832,66.2306022 C144.917588,66.1513192 145.111117,66.0479067 145.320897,65.920857 L145.696137,66.5792501 C145.517381,66.6969434 145.328776,66.8003559 145.129337,66.8894877 C144.929899,66.9786194 144.69008,67.069721 144.409389,67.1613149 C144.174003,67.2376432 143.986383,67.3272674 143.846037,67.429695 C143.705692,67.5316302 143.5944,67.6759153 143.512655,67.8620579 C143.43091,68.0486929 143.375264,68.30033 143.34424,68.6164769 C143.640689,68.1521054 144.064188,67.9196734 144.616214,67.9196734 C144.906754,67.9196734 145.167748,67.994032 145.397225,68.1417641" id="Fill-57" fill="#184E82" sketch:type="MSShapeGroup"></path>
                    <path d="M149.947179,68.4021175 L149.947179,71.7039317 L148.967222,71.7039317 L148.967222,67.651638 L152.275931,67.651638 L152.275931,71.7039317 L151.295482,71.7039317 L151.295482,68.4021175 L149.947179,68.4021175 Z" id="Fill-59" fill="#184E82" sketch:type="MSShapeGroup"></path>
                    <path d="M154.673476,72.8874635 C154.341571,73.1652 153.887049,73.3281978 153.309908,73.3735024 L153.210435,72.6614333 C153.475861,72.6205607 153.689088,72.5629451 153.850116,72.4885866 C154.010651,72.4147205 154.139671,72.3167248 154.236682,72.1941071 C154.334185,72.0714894 154.423317,71.9079991 154.505062,71.7041287 L154.168232,71.7041287 L152.880993,67.6513425 L153.922997,67.6513425 L154.803973,71.0526298 L155.722867,67.6513425 L156.73434,67.6513425 L155.416569,71.7193944 C155.253079,72.219714 155.005381,72.6092346 154.673476,72.8874635" id="Fill-61" fill="#184E82" sketch:type="MSShapeGroup"></path>
                    <path d="M159.001586,68.4021175 L159.001586,71.7039317 L158.021137,71.7039317 L158.021137,68.4021175 L156.764921,68.4021175 L156.764921,67.651638 L160.311478,67.651638 L160.18886,68.4021175 L159.001586,68.4021175 Z" id="Fill-63" fill="#184E82" sketch:type="MSShapeGroup"></path>
                    <path d="M163.153156,69.2985071 C163.153156,68.5889002 162.890193,68.2338505 162.363774,68.2338505 C162.123955,68.2338505 161.935843,68.3219974 161.800914,68.4982911 C161.665493,68.6740924 161.584733,68.9567533 161.559618,69.3447965 L163.153156,69.3447965 L163.153156,69.2985071 Z M164.103074,69.9805374 L161.559618,69.9805374 C161.590149,70.3739974 161.692085,70.6546886 161.866409,70.8231032 C162.039255,70.9915179 162.269225,71.0757253 162.555333,71.0757253 C162.734089,71.0757253 162.902504,71.0466713 163.06107,70.9875784 C163.219635,70.928978 163.38805,70.8383689 163.566806,70.7157512 L163.972577,71.2751637 C163.522979,71.6376 163.022659,71.8188181 162.471126,71.8188181 C161.853113,71.8188181 161.377415,71.629721 161.042556,71.252019 C160.708188,70.8738246 160.540759,70.3582393 160.540759,69.7042782 C160.540759,69.2906281 160.612655,68.9193279 160.755463,68.5903775 C160.89827,68.2609348 161.105095,68.0028959 161.375938,67.8162609 C161.646288,67.6296259 161.968344,67.5370471 162.341121,67.5370471 C162.907921,67.5370471 163.347178,67.7167879 163.6584,68.076762 C163.970115,68.4367361 164.126219,68.938533 164.126219,69.5816605 C164.126219,69.6333667 164.11834,69.7658333 164.103074,69.9805374 L164.103074,69.9805374 Z" id="Fill-65" fill="#184E82" sketch:type="MSShapeGroup"></path>
                    <path d="M165.030143,71.703981 L165.030143,67.6516873 L165.972181,67.6516873 L165.972181,70.9608881 L167.021572,70.9608881 L167.021572,67.6516873 L167.89467,67.6516873 L167.89467,70.9608881 L168.94406,70.9608881 L168.94406,67.6516873 L169.886099,67.6516873 L169.886099,71.703981 L165.030143,71.703981 Z" id="Fill-67" fill="#184E82" sketch:type="MSShapeGroup"></path>
                    <path d="M173.417982,69.2985071 C173.417982,68.5889002 173.155019,68.2338505 172.6286,68.2338505 C172.388781,68.2338505 172.200669,68.3219974 172.06574,68.4982911 C171.930319,68.6740924 171.849559,68.9567533 171.824444,69.3447965 L173.417982,69.3447965 L173.417982,69.2985071 Z M174.3679,69.9805374 L171.824444,69.9805374 C171.854975,70.3739974 171.956911,70.6546886 172.131235,70.8231032 C172.304081,70.9915179 172.534051,71.0757253 172.820159,71.0757253 C172.998915,71.0757253 173.16733,71.0466713 173.325895,70.9875784 C173.484461,70.928978 173.652876,70.8383689 173.831632,70.7157512 L174.237403,71.2751637 C173.787805,71.6376 173.287485,71.8188181 172.735952,71.8188181 C172.117939,71.8188181 171.642241,71.629721 171.307381,71.252019 C170.973014,70.8738246 170.805584,70.3582393 170.805584,69.7042782 C170.805584,69.2906281 170.877481,68.9193279 171.020289,68.5903775 C171.163096,68.2609348 171.369921,68.0028959 171.640764,67.8162609 C171.911114,67.6296259 172.23317,67.5370471 172.605947,67.5370471 C173.172746,67.5370471 173.612003,67.7167879 173.923226,68.076762 C174.234941,68.4367361 174.391044,68.938533 174.391044,69.5816605 C174.391044,69.6333667 174.383165,69.7658333 174.3679,69.9805374 L174.3679,69.9805374 Z" id="Fill-69" fill="#184E82" sketch:type="MSShapeGroup"></path>
                    <path d="M177.642187,67.651441 C177.853936,67.7282618 178.054359,67.8479248 178.243457,68.0114151 L177.798783,68.609238 C177.666316,68.5068104 177.535819,68.4319594 177.408277,68.3832078 C177.280735,68.3349486 177.139897,68.3103266 176.987241,68.3103266 C176.379569,68.3103266 176.075241,68.7727283 176.075241,69.6965469 C176.075241,70.1668276 176.154524,70.5051343 176.313089,70.7119594 C176.471163,70.9187844 176.695716,71.022197 176.987241,71.022197 C177.135465,71.022197 177.268917,70.9980674 177.389072,70.9493158 C177.508735,70.9010566 177.643171,70.8207888 177.791396,70.7080199 L178.243457,71.3516397 C177.860338,71.6628622 177.424035,71.8189659 176.933565,71.8189659 C176.545029,71.8189659 176.2082,71.7332812 175.922584,71.5619119 C175.636476,71.391035 175.416355,71.1472769 175.263698,70.8306376 C175.110057,70.5139983 175.033729,70.1412207 175.033729,69.712305 C175.033729,69.2828968 175.110057,68.9042099 175.263698,68.5747672 C175.416355,68.2453244 175.636476,67.9897477 175.922584,67.8085296 C176.2082,67.6273114 176.543059,67.5371948 176.925686,67.5371948 C177.191111,67.5371948 177.429945,67.5751127 177.642187,67.651441" id="Fill-71" fill="#184E82" sketch:type="MSShapeGroup"></path>
                    <path d="M180.625687,68.4021175 L180.625687,71.7039317 L179.645238,71.7039317 L179.645238,68.4021175 L178.389022,68.4021175 L178.389022,67.651638 L181.935579,67.651638 L181.812962,68.4021175 L180.625687,68.4021175 Z" id="Fill-73" fill="#184E82" sketch:type="MSShapeGroup"></path>
                    <path d="M184.620513,70.8994315 C184.776124,70.8176864 184.854422,70.6645374 184.854422,70.4399844 C184.854422,70.2252803 184.787943,70.0736086 184.654492,69.9844769 C184.522025,69.8948527 184.335883,69.8500406 184.096064,69.8500406 L183.482483,69.8500406 L183.482483,71.0220492 L184.003978,71.0220492 C184.259062,71.0220492 184.464902,70.9811767 184.620513,70.8994315 M183.482483,68.2417296 L183.482483,69.2679758 L184.034509,69.2679758 C184.47869,69.2679758 184.700781,69.0867577 184.700781,68.7238289 C184.700781,68.3766583 184.460962,68.2028268 183.980833,68.2028268 C183.837533,68.2028268 183.67158,68.2161227 183.482483,68.2417296 M185.616228,69.7963646 C185.787105,69.9652717 185.87279,70.1972112 185.87279,70.4936605 C185.87279,70.9023862 185.712254,71.2057296 185.390198,71.405168 C185.068634,71.6046065 184.639718,71.7040795 184.103451,71.7040795 L182.502526,71.7040795 L182.502526,67.6975827 C183.049135,67.5902307 183.541576,67.5370471 183.980833,67.5370471 C184.506759,67.5370471 184.92041,67.628641 185.221783,67.8123214 C185.523157,67.9960017 185.673844,68.2624121 185.673844,68.6095827 C185.673844,68.8341356 185.607364,69.0202782 185.474405,69.1680104 C185.341939,69.316235 185.127235,69.423587 184.831278,69.4900665 C185.183865,69.5260147 185.445351,69.6279499 185.616228,69.7963646" id="Fill-75" fill="#184E82" sketch:type="MSShapeGroup"></path>
                    <path d="M189.105859,69.2985071 C189.105859,68.5889002 188.842896,68.2338505 188.316477,68.2338505 C188.076658,68.2338505 187.888546,68.3219974 187.753617,68.4982911 C187.618196,68.6740924 187.537436,68.9567533 187.512321,69.3447965 L189.105859,69.3447965 L189.105859,69.2985071 Z M190.055777,69.9805374 L187.512321,69.9805374 C187.542853,70.3739974 187.644788,70.6546886 187.819112,70.8231032 C187.991959,70.9915179 188.221928,71.0757253 188.508036,71.0757253 C188.686792,71.0757253 188.855207,71.0466713 189.013773,70.9875784 C189.172339,70.928978 189.340753,70.8383689 189.519509,70.7157512 L189.92528,71.2751637 C189.475682,71.6376 188.975362,71.8188181 188.423829,71.8188181 C187.805816,71.8188181 187.330118,71.629721 186.995259,71.252019 C186.660892,70.8738246 186.493462,70.3582393 186.493462,69.7042782 C186.493462,69.2906281 186.565358,68.9193279 186.708166,68.5903775 C186.850974,68.2609348 187.057799,68.0028959 187.328641,67.8162609 C187.598991,67.6296259 187.921047,67.5370471 188.293825,67.5370471 C188.860624,67.5370471 189.299881,67.7167879 189.611103,68.076762 C189.922818,68.4367361 190.078922,68.938533 190.078922,69.5816605 C190.078922,69.6333667 190.071043,69.7658333 190.055777,69.9805374 L190.055777,69.9805374 Z" id="Fill-77" fill="#184E82" sketch:type="MSShapeGroup"></path>
                    <path d="M191.962409,70.010724 L191.962409,71.7037348 L190.982452,71.7037348 L190.982452,67.651441 L191.962409,67.651441 L191.962409,69.2676311 L193.333856,69.2676311 L193.333856,67.651441 L194.314305,67.651441 L194.314305,71.7037348 L193.333856,71.7037348 L193.333856,70.010724 L191.962409,70.010724 Z" id="Fill-79" fill="#184E82" sketch:type="MSShapeGroup"></path>
                    <path d="M196.474199,70.010724 L196.474199,71.7037348 L195.494242,71.7037348 L195.494242,67.651441 L196.474199,67.651441 L196.474199,69.2676311 L197.845646,69.2676311 L197.845646,67.651441 L198.826095,67.651441 L198.826095,71.7037348 L197.845646,71.7037348 L197.845646,70.010724 L196.474199,70.010724 Z" id="Fill-81" fill="#184E82" sketch:type="MSShapeGroup"></path>
                    <path d="M202.441643,71.703981 L202.441643,70.0799119 C202.441643,69.7839551 202.453954,69.5042488 202.480054,69.2412855 C202.50566,68.9783222 202.53373,68.7803611 202.564261,68.6474022 L201.070689,71.703981 L200.006032,71.703981 L200.006032,67.6516873 L200.955457,67.6516873 L200.955457,69.2752639 C200.955457,69.5564475 200.941177,69.8346765 200.913108,70.1109356 C200.885531,70.3862099 200.855984,70.5831862 200.825453,70.700387 L202.311146,67.6516873 L203.383682,67.6516873 L203.383682,71.703981 L202.441643,71.703981 Z" id="Fill-83" fill="#184E82" sketch:type="MSShapeGroup"></path>
                    <path d="M208.048473,71.703981 L206.968551,71.703981 L205.980223,69.9036181 L205.543428,69.9036181 L205.543428,71.703981 L204.563471,71.703981 L204.563471,67.6516873 L205.543428,67.6516873 L205.543428,69.2526117 L206.003368,69.2526117 L206.945406,67.6516873 L207.925856,67.6516873 L206.784871,69.5283784 L208.048473,71.703981 Z" id="Fill-85" fill="#184E82" sketch:type="MSShapeGroup"></path>
                    <path d="M209.327637,69.6740916 C209.327637,70.1542212 209.400518,70.5073011 209.545788,70.7348086 C209.691551,70.9618238 209.910194,71.07607 210.200734,71.07607 C210.491767,71.07607 210.71041,70.9608389 210.856173,70.7308691 C211.001443,70.5013918 211.074324,70.1488043 211.074324,69.6740916 C211.074324,69.1988864 211.001443,68.8477762 210.856173,68.6202687 C210.71041,68.3932536 210.494721,68.2799922 210.208613,68.2799922 C209.621624,68.2799922 209.327637,68.7443637 209.327637,69.6740916 M211.606652,68.1071456 C211.941512,68.4878022 212.107957,69.0097892 212.107957,69.6740916 C212.107957,70.0975905 212.031629,70.4718454 211.878972,70.7958713 C211.72533,71.1208821 211.505702,71.3720268 211.220086,71.5507827 C210.933978,71.7295387 210.594194,71.8186704 210.200734,71.8186704 C209.603896,71.8186704 209.136078,71.6285883 208.799248,71.2479317 C208.461927,70.8677676 208.293512,70.3428259 208.293512,69.6740916 C208.293512,69.2501002 208.370333,68.8773227 208.523482,68.555759 C208.676631,68.2337028 208.897737,67.983543 209.186307,67.804787 C209.474384,67.6260311 209.815153,67.5368994 210.208613,67.5368994 C210.806436,67.5368994 211.271793,67.7269814 211.606652,68.1071456" id="Fill-87" fill="#184E82" sketch:type="MSShapeGroup"></path>
                    <path d="M215.145577,70.8994315 C215.301188,70.8176864 215.379486,70.6645374 215.379486,70.4399844 C215.379486,70.2252803 215.313006,70.0736086 215.179555,69.9844769 C215.047089,69.8948527 214.860946,69.8500406 214.621127,69.8500406 L214.007546,69.8500406 L214.007546,71.0220492 L214.529041,71.0220492 C214.784125,71.0220492 214.989965,70.9811767 215.145577,70.8994315 M214.007546,68.2417296 L214.007546,69.2679758 L214.559572,69.2679758 C215.003754,69.2679758 215.225844,69.0867577 215.225844,68.7238289 C215.225844,68.3766583 214.986026,68.2028268 214.505896,68.2028268 C214.362596,68.2028268 214.196644,68.2161227 214.007546,68.2417296 M216.141292,69.7963646 C216.312168,69.9652717 216.397853,70.1972112 216.397853,70.4936605 C216.397853,70.9023862 216.237317,71.2057296 215.915261,71.405168 C215.593698,71.6046065 215.164782,71.7040795 214.628514,71.7040795 L213.02759,71.7040795 L213.02759,67.6975827 C213.574199,67.5902307 214.066639,67.5370471 214.505896,67.5370471 C215.031823,67.5370471 215.445473,67.628641 215.746847,67.8123214 C216.04822,67.9960017 216.198907,68.2624121 216.198907,68.6095827 C216.198907,68.8341356 216.132428,69.0202782 215.999469,69.1680104 C215.867002,69.316235 215.652298,69.423587 215.356341,69.4900665 C215.708929,69.5260147 215.970415,69.6279499 216.141292,69.7963646" id="Fill-89" fill="#184E82" sketch:type="MSShapeGroup"></path>
                </g>
            </g>
        </g>
    </g>
</svg>