<?xml version="1.0" encoding="UTF-8" standalone="no"?>
<svg width="188px" height="61px" viewBox="0 0 188 61" version="1.1" xmlns="http://www.w3.org/2000/svg" xmlns:xlink="http://www.w3.org/1999/xlink" xmlns:sketch="http://www.bohemiancoding.com/sketch/ns">
    <!-- Generator: sketchtool 3.5.1 (25234) - http://www.bohemiancoding.com/sketch -->
    <title>vs logo rus small</title>
    <desc>Created with sketchtool.</desc>
    <defs>
        <path id="path-1" d="M0,0.143334773 L187.639836,0.143334773 L187.639836,60.5010799 L0,60.5010799"></path>
        <path id="path-3" d="M0,0.143334773 L187.639836,0.143334773 L187.639836,60.5010799 L0,60.5010799 L0,0.143334773 Z"></path>
    </defs>
    <g id="elements" stroke="none" stroke-width="1" fill="none" fill-rule="evenodd" sketch:type="MSPage">
        <g id="elements---iconset" sketch:type="MSArtboardGroup" transform="translate(-16.000000, -18.000000)">
            <g id="logo-rus" sketch:type="MSLayerGroup" transform="translate(16.000000, 18.000000)">
                <g id="Page-1-Copy">
                    <path d="M152.92521,26.8577287 C153.329633,26.1845019 154.091378,25.1385235 154.302523,24.9147914 L154.301305,24.9147914 C153.95251,24.8741866 153.853028,24.6504544 153.831914,24.5448821 C153.682894,24.6512665 153.144475,25.0451326 152.92521,25.3232752 C152.6694,25.6477071 152.171179,26.2251067 151.918212,26.5889253 C151.760665,26.8150937 151.609616,27.0627827 151.506073,27.2556553 C151.470747,27.3807179 151.441918,27.5041564 151.424052,27.6235343 C151.386289,27.8724415 151.480492,28.1047006 151.763508,28.0839922 C152.038808,28.0636898 152.257261,27.8622903 152.426989,27.6645451 C152.492363,27.5886143 152.561391,27.5074048 152.630419,27.4233529 C152.682799,27.2921996 152.77416,27.1094782 152.92521,26.8577287" id="Fill-1" fill="#008CCF" sketch:type="MSShapeGroup"></path>
                    <path d="M154.631908,26.294013 L154.631908,26.294013 C154.701749,26.1157581 154.959183,25.5838359 155.175606,25.4258834 C155.151649,25.4177624 155.12688,25.4092354 155.100487,25.3998963 C154.868634,25.3154384 154.873913,24.8829978 154.895027,24.8196544 C154.912081,24.7684924 154.842647,24.8935551 154.600237,24.9179179 C154.444721,25.0823672 154.142621,25.4173564 153.993196,25.687378 C153.787736,26.0589114 153.510811,26.5019093 153.242008,26.9132354 C152.973204,27.3241555 152.808349,27.6607689 152.724703,27.7021857 L152.723891,27.7021857 C152.720237,27.7099006 152.716988,27.7176156 152.712928,27.7253305 C152.640245,27.8711015 152.479857,28.1378747 152.577714,28.3047603 C152.768962,28.6312225 153.179883,28.2556285 153.333368,28.1009244 C153.792608,27.6392484 154.148712,27.0573823 154.49507,26.5104363 C154.540548,26.4385659 154.586025,26.3662894 154.631908,26.294013" id="Fill-3" fill="#008CCF" sketch:type="MSShapeGroup"></path>
                    <path d="M152.927443,24.9729374 C153.122752,24.8003672 153.359477,24.5502419 153.521896,24.423149 C153.513775,24.4251793 153.505654,24.4272095 153.496721,24.4296458 C153.376125,24.4629417 153.257559,24.4166523 153.160108,24.3423456 L153.160514,24.3427516 C153.160514,24.3427516 152.516117,24.7776285 152.073119,25.1097754 C151.630527,25.4419222 150.641801,26.2881253 150.491564,26.4939914 C150.341326,26.6994514 149.985222,26.9211533 149.898328,27.2650756 C149.821585,27.5683931 150.149672,27.5980346 150.228851,27.6008769 C150.246311,27.6008769 150.264177,27.6008769 150.282855,27.5996587 C150.468825,27.5874773 150.653577,27.5233218 150.831425,27.4352095 C150.832238,27.4348035 151.527797,26.8103024 151.804315,26.3912613 C152.08124,25.9718143 152.634683,25.2315896 152.927443,24.9729374" id="Fill-5" fill="#008CCF" sketch:type="MSShapeGroup"></path>
                    <path d="M187.434904,2.29697019 C187.37156,2.30955767 187.310653,2.33107819 187.251776,2.35909546 C187.188433,2.39929417 187.071085,2.50243024 186.8774,2.7704216 C186.554593,3.21666782 185.067647,4.15544968 184.303465,4.47176069 C183.710636,4.71660734 183.454826,4.83476717 183.36915,4.87537192 C183.42153,4.89526825 183.687085,5.01139784 183.754489,5.3605987 C183.984312,5.24934168 185.003491,4.75518186 185.389642,4.56636976 C185.786757,4.37146695 186.639457,3.81680605 186.956174,3.50699179 C187.223353,3.18296587 187.423128,2.77326393 187.519362,2.38142808 C187.532355,2.32782981 187.486066,2.28681901 187.434904,2.29697019" id="Fill-7" fill="#008CCF" sketch:type="MSShapeGroup"></path>
                    <g id="Group-11">
                        <mask id="mask-2" sketch:name="Clip 10" fill="white">
                            <use xlink:href="#path-1"></use>
                        </mask>
                        <g id="Clip-10"></g>
                        <path d="M183.617204,4.34117581 C183.59406,4.3829987 183.568073,4.42238531 183.542492,4.45892959 C183.835252,4.33102462 184.802051,3.89371145 185.558111,3.38980648 C186.459943,2.78845011 186.992677,2.23500734 187.166466,1.96092527 C187.199762,1.90854514 187.231433,1.86712829 187.261481,1.83505054 C187.468971,1.35794471 187.713818,0.747655292 187.618803,0.227914471 C187.604997,0.150765443 187.507952,0.123966307 187.445826,0.157668251 C187.096625,0.348104536 186.92771,0.680251404 186.722656,1.00630756 C186.361273,1.58127084 185.802146,2.02508078 185.298647,2.46807862 C184.743986,2.95574168 184.149939,3.37762505 183.537619,3.77270929 C183.599338,3.92741339 183.691511,4.20718013 183.617204,4.34117581" id="Fill-9" fill="#008CCF" sketch:type="MSShapeGroup" mask="url(#mask-2)"></path>
                    </g>
                    <path d="M187.293031,3.88745832 C187.15335,3.84563542 187.053463,3.85172613 186.951545,3.89273693 C186.950733,3.89354903 186.950327,3.89395508 186.949514,3.89476717 C186.850033,4.01333305 186.31202,4.40395076 185.848314,4.66747559 C185.384201,4.93100043 184.535156,5.37887084 184.303303,5.4844432 C184.136011,5.56037408 183.900504,5.65823153 183.782344,5.70695724 C183.825791,5.95951879 183.810767,5.99078445 183.702352,6.14873693 C183.575666,6.33348855 183.533437,6.38627473 183.533437,6.38627473 C183.533437,6.38627473 183.535467,6.38789892 183.537903,6.39033521 C183.684892,6.34973045 184.208288,6.19827473 184.656564,6.00134168 C185.176305,5.77233089 186.135389,5.37562246 186.715631,4.95739352 C186.979968,4.68534168 187.198422,4.3641581 187.353126,3.99303067 C187.371398,3.94917754 187.333635,3.89963974 187.293031,3.88745832" id="Fill-12" fill="#008CCF" sketch:type="MSShapeGroup"></path>
                    <path d="M151.674827,25.0673028 C151.911959,24.8618428 152.988797,24.180089 152.988797,24.180089 L152.991639,24.1825253 C152.949816,24.1407024 152.914084,24.0952251 152.887691,24.052184 C152.807293,23.9230609 152.866982,23.7866289 152.887691,23.7476484 L152.734205,23.8312942 L151.952969,24.2982488 L151.311414,24.7241927 C151.283803,24.752616 151.25538,24.7798212 151.227768,24.8078384 C150.930542,25.0202013 150.632503,25.2317521 150.343803,25.4567024 C150.133064,25.6211516 149.934101,25.7994065 149.728235,25.9695404 C149.61779,26.0271991 149.508969,26.0868881 149.403803,26.1522618 C149.226766,26.2618946 149.019682,26.3991387 148.875129,26.572521 C148.676978,26.7170739 148.516183,26.8932985 148.464615,27.1389572 C148.443095,27.239251 148.52268,27.3050307 148.617289,27.2916311 C148.872693,27.2558989 149.120788,27.1669745 149.363198,27.0557175 C149.802948,26.6951473 150.029928,26.4750695 150.322283,26.1928665 C150.615043,25.9110695 151.437695,25.2727629 151.674827,25.0673028" id="Fill-14" fill="#008CCF" sketch:type="MSShapeGroup"></path>
                    <path d="M186.018935,7.41353434 C185.95884,7.35668769 185.888594,7.31730108 185.812663,7.28887775 C185.656334,7.26776328 185.409863,7.26857538 185.046857,7.35465745 C184.313941,7.52885184 183.835617,7.56174168 183.691876,7.56052354 C183.634218,7.55971145 183.407643,7.54387559 183.369069,7.54387559 C183.336179,7.59097711 183.478702,7.64335724 183.441751,7.66893823 C183.546917,7.8857676 183.437691,8.17609158 183.233449,8.29384536 C183.232637,8.29465745 183.231825,8.29465745 183.231013,8.2950635 C183.226546,8.30156026 183.222486,8.30805702 183.217207,8.31455378 C183.211928,8.32023844 183.207868,8.32511102 183.202995,8.32998359 C183.221267,8.34216501 183.23954,8.35312829 183.256187,8.36733996 C183.316283,8.39738747 183.364602,8.4505797 183.382874,8.51920173 C183.396274,8.57117581 183.403583,8.61868337 183.404395,8.66700302 C183.404801,8.66781512 183.404801,8.66781512 183.405613,8.66822117 C183.42754,8.69177192 183.444187,8.71816501 183.455963,8.74618229 C183.969207,8.71654082 184.685069,8.67715421 185.421639,8.35515853 C185.685164,8.23984104 186.419704,7.79359482 186.018935,7.41353434" id="Fill-16" fill="#008CCF" sketch:type="MSShapeGroup"></path>
                    <path d="M186.747506,5.64669978 C186.615946,5.56183585 186.424698,5.55168467 186.21599,5.5784838 C186.068594,5.63208207 185.921199,5.70273434 185.827808,5.79084665 C185.579307,6.02513607 184.424508,6.41534773 184.245441,6.48924838 C184.107385,6.54609503 183.786607,6.59928726 183.645303,6.62121382 C183.707834,6.71663499 183.765899,6.84941253 183.723264,6.97975378 C183.694435,7.06867819 183.662357,7.15110583 183.627437,7.22338229 C183.921009,7.19901944 184.898771,7.03660043 185.152145,6.99558963 C185.338115,6.96513607 185.568344,6.86646652 185.781519,6.82261339 C185.849329,6.79053564 185.917545,6.75886393 185.984137,6.72678618 C186.211523,6.61715335 187.298106,6.00077322 186.747506,5.64669978" id="Fill-18" fill="#008CCF" sketch:type="MSShapeGroup"></path>
                    <path d="M156.229624,25.9745754 C155.981935,25.9006747 155.981935,25.5790851 155.955542,25.4787914 C155.929149,25.3789037 155.818298,25.4316898 155.744397,25.4682341 C155.690799,25.4954393 155.599844,25.4909728 155.464631,25.4540225 C155.35784,25.5932968 155.117866,25.9242255 155.020415,26.2092708 C154.940017,26.4439663 154.784095,26.8459533 154.666341,27.0802428 C154.573762,27.3194048 154.439361,27.5394825 154.347594,27.7798626 C154.233901,28.0762773 154.204259,28.4437503 154.626143,28.372286 C155.201918,28.2744285 155.655067,27.4765451 155.988838,27.0692795 C156.271853,26.722921 156.519136,26.3359577 156.722566,25.9270678 C156.718911,25.8937719 156.714445,25.8588518 156.709572,25.8267741 C156.693737,25.7268864 156.477313,26.048476 156.229624,25.9745754" id="Fill-20" fill="#008CCF" sketch:type="MSShapeGroup"></path>
                    <path d="M169.494912,22.493733 C169.493694,22.4815516 169.490852,22.4697762 169.487197,22.4584069 C169.418169,22.159962 169.226515,21.6491542 169.06572,21.3092924 C168.843206,20.8386834 168.380312,20.2486963 167.904424,19.8722903 C167.35626,19.4390376 167.031422,18.9156423 166.791448,18.5164976 C166.570964,18.1498367 166.7614,18.4722384 166.636338,18.2728691 C166.353323,17.8392104 166.030921,18.0341132 165.743033,18.1733875 C164.054688,18.9611197 162.641236,19.2701218 160.879802,19.8511758 C160.045781,20.12607 159.240588,20.4703983 158.428087,20.8001089 C158.39804,20.8122903 158.367586,20.8240657 158.336727,20.8362471 L155.234117,22.5347438 C155.243457,22.544895 155.253202,22.5546402 155.262541,22.5647914 C155.150878,22.5538281 155.043681,22.6313832 155.003483,22.7341132 C154.988053,22.7178713 154.972217,22.7020354 154.958005,22.6861996 L153.548614,23.4576898 C153.462938,23.586813 153.430048,23.6501564 153.609115,23.8986575 C153.79874,24.1621823 154.225902,23.8828216 154.303863,23.8986575 C154.381418,23.9144933 154.294524,23.9620009 154.257573,24.083003 C154.220623,24.2044112 154.314826,24.4062168 154.568606,24.4784933 C154.822385,24.5511758 155.159405,24.262476 155.262947,24.2783119 C155.366083,24.2941477 155.322636,24.4151499 155.280407,24.5260009 C155.238178,24.6368518 155.268225,24.8569296 155.403033,24.9637201 C155.538247,25.0709166 155.960537,24.9426056 156.050273,24.8898194 C156.14001,24.8370333 156.134731,24.8898194 156.124174,25.0165063 C156.113616,25.142787 156.044994,25.2430808 156.203353,25.4278324 C156.361305,25.612178 156.661781,25.3908821 156.719845,25.295867 C156.77791,25.2008518 156.862368,25.2325235 156.883483,25.2747525 C156.904597,25.3169814 156.809582,25.4745279 156.846532,25.6280138 C156.847344,25.6324803 156.849781,25.6369469 156.850999,25.6414134 C156.941141,25.7896207 157.110057,25.8123594 157.264355,25.7295257 C157.443422,25.6341045 157.575387,25.4692492 157.689893,25.2857158 C157.709383,25.3421564 157.750394,25.3892579 157.801556,25.4148389 C157.88439,25.492394 157.992398,25.5382773 158.110152,25.5070117 C158.29531,25.458286 158.445141,25.3246963 158.573046,25.1614652 C158.586852,25.1874523 158.601063,25.2126272 158.617305,25.2369901 C158.699733,25.3596164 158.830074,25.4099663 158.971379,25.3742341 C159.139483,25.3324112 159.273072,25.1578108 159.370117,25.0270635 C159.44483,24.9267698 159.514264,24.8232276 159.580856,24.7184674 C159.527258,24.9677806 159.514264,25.2272449 159.683586,25.4351413 C159.72013,25.4798065 159.806213,25.4789944 159.842757,25.4351413 C159.986904,25.2629771 160.118463,25.0668562 160.235405,24.860178 C160.21429,25.0404631 160.226878,25.2154695 160.334886,25.3445927 C160.476191,25.5147266 160.690178,25.5707611 160.847724,25.3876337 C160.950048,25.2686618 161.006489,25.1107093 161.043845,24.9491024 C161.061305,24.9982341 161.08242,25.0461477 161.106783,25.0928432 C161.114092,25.108679 161.122213,25.1241089 161.131552,25.1387266 C161.138454,25.1500959 161.143733,25.1622773 161.150636,25.1736467 C161.171344,25.2061305 161.200174,25.2308994 161.232657,25.2483594 C161.244839,25.2585106 161.257832,25.2686618 161.271638,25.278813 C161.460044,25.4168691 161.660632,25.3084544 161.775137,25.1399447 C161.828735,25.0607654 161.866092,24.9698108 161.894515,24.8743896 C161.90426,24.8853529 161.915223,24.8950981 161.926999,24.9040311 C161.955422,24.9665624 161.999275,25.0242212 162.068709,25.073759 C162.226662,25.1866402 162.359845,24.9982341 162.412225,24.8747957 C162.455673,24.7720657 162.484502,24.6644631 162.506429,24.5544242 C162.529979,24.5731024 162.554748,24.5909685 162.582359,24.6084285 C162.677375,24.6689296 162.9141,24.6498454 162.976225,24.7164371 C163.079768,24.8276942 163.270204,24.6973529 163.33639,24.6047741 C163.404606,24.5093529 163.447241,24.3936294 163.473228,24.2685667 C163.480537,24.2738454 163.488251,24.279124 163.49556,24.2835905 C163.564588,24.3940354 163.663258,24.484178 163.787102,24.5349339 C164.020986,24.6307611 164.253245,24.2872449 164.388865,24.0639188 C164.596761,24.2417676 164.790852,24.270597 164.923223,24.0497071 C164.934999,24.0598583 164.945962,24.0708216 164.958549,24.0805667 C164.995906,24.1138626 165.058031,24.1313227 165.102696,24.0992449 C165.213141,24.0192536 165.306126,23.9396683 165.395863,23.8446531 L165.429159,23.8714523 C165.485193,23.9161175 165.577772,23.9213961 165.615534,23.8474955 C165.65086,23.7776553 165.691465,23.7130937 165.731664,23.6477201 C165.734506,23.6497503 165.737755,23.6521866 165.740597,23.6546229 C165.76902,23.6757374 165.804346,23.6757374 165.836018,23.663962 C165.916822,23.7061909 166.012649,23.7216207 166.118627,23.7049728 C166.285919,23.6785797 166.410981,23.5393054 166.458489,23.3825711 C166.535232,23.4410419 166.626999,23.4771801 166.722826,23.4698713 C166.845858,23.4601261 166.934783,23.3959706 166.990005,23.3062341 C167.009902,23.3123248 167.031016,23.3167914 167.054973,23.3171974 C167.193841,23.3180095 167.333927,23.3334393 167.470359,23.2973011 C167.624657,23.2566963 167.711958,23.1304156 167.715206,22.9862687 C167.718454,22.9850505 167.721297,22.9834263 167.724139,22.9822082 C167.763932,23.0341823 167.820372,23.0686963 167.902394,23.0686963 C168.055068,23.0686963 168.14318,22.9314523 168.171197,22.7978626 C168.17607,22.7743119 168.176882,22.7511672 168.175258,22.7284285 C168.18947,22.7134048 168.203681,22.6979749 168.217081,22.6825451 C168.249159,22.7004112 168.277176,22.7186834 168.2922,22.7333011 C168.355543,22.7929901 168.446904,22.8055775 168.525271,22.7694393 C168.613383,22.7284285 168.630437,22.6618367 168.656424,22.579003 C168.666169,22.5802212 168.675508,22.5826575 168.684848,22.5850937 C168.758748,22.6252924 168.843612,22.6407222 168.921979,22.6094566 C168.956493,22.596057 168.986541,22.5757546 169.010092,22.5509857 C169.065314,22.6025538 169.12947,22.6411283 169.20134,22.672394 C169.2188,22.681327 169.237072,22.6894479 169.256968,22.6943205 C169.356856,22.7182773 169.46121,22.664273 169.489228,22.5627611 C169.493694,22.5461132 169.495318,22.5298713 169.495318,22.5140354 C169.496537,22.5136294 169.497755,22.5124112 169.497755,22.5124112 C169.497755,22.5067266 169.49613,22.4998238 169.494912,22.493733" id="Fill-22" fill="#008CCF" sketch:type="MSShapeGroup"></path>
                    <path d="M174.509031,24.0204311 C174.594707,24.1170704 174.576435,24.3582626 174.576435,24.3582626 L174.541921,24.327403 C174.507406,24.2961374 174.509031,24.2104613 174.362854,24.1921892 C174.216676,24.1739171 174.185817,24.2559387 174.189471,24.464241 C174.193126,24.6725434 174.300728,24.7362929 174.244288,24.7383231 C174.187441,24.7399473 174.083493,24.5994549 174.001471,24.4260726 C173.919044,24.2522842 173.858949,24.1885348 173.774897,24.1483361 C173.690845,24.1081374 173.729013,24.3472994 173.729013,24.3472994 C173.672573,24.301822 173.569031,24.1869106 173.517869,23.9786082 C173.466707,23.7707119 173.402145,23.455619 173.33799,23.3260898 C173.27424,23.1961546 173.143899,22.9119214 173.036296,22.7056492 C172.928694,22.4993771 172.734197,22.0364829 172.595735,22.020241 C172.418698,21.9995326 172.434128,21.7863577 172.448746,21.669416 C172.463363,21.5524743 172.366318,21.3340207 172.366318,21.3340207 C172.441031,21.1858134 172.486914,21.319403 172.644054,21.4875067 C172.801195,21.6552043 172.817437,21.7851395 172.872253,21.9638004 C172.92707,22.1428674 173.075277,22.3605089 173.177601,22.5866773 C173.279925,22.8132518 173.555631,23.0524138 173.782206,23.2351352 C174.008374,23.4178566 174.423355,23.9237918 174.509031,24.0204311 L174.509031,24.0204311 Z M172.538482,24.8041028 C172.538482,24.8041028 172.439813,24.7858307 172.333834,24.7785218 C172.227856,24.771213 172.162076,24.8698825 172.178724,25.0944268 C172.194966,25.3193771 172.29729,25.5455456 172.277394,25.5877745 C172.257091,25.6295974 172.189687,25.5293037 172.103605,25.4322583 C172.017929,25.335619 171.939156,25.275524 171.869722,25.3084138 C171.800694,25.3413037 171.871752,25.5548847 171.871752,25.5548847 C171.871752,25.5548847 171.802318,25.4927594 171.745877,25.3997745 C171.689031,25.3063836 171.535545,24.4918523 171.483165,24.3692259 C171.430784,24.2470056 171.380435,24.2380726 171.391398,24.1028587 C171.402361,23.9676449 171.321152,23.7991352 171.257402,23.4320683 C171.193247,23.0650013 171.040573,22.7767076 170.965454,22.6873771 C170.890741,22.5980467 170.993065,22.4445607 170.954491,22.3950229 C170.916322,22.3458911 170.813998,22.1668242 170.813998,22.1668242 C170.788823,22.1233771 170.859476,22.062876 170.859476,22.062876 C170.859476,22.062876 170.958145,22.1286557 170.998344,22.1871266 C171.038543,22.2455974 171.201368,22.3458911 171.259838,22.4482151 C171.318309,22.5505391 171.298007,22.7348847 171.274456,22.805943 C171.250499,22.8774073 171.414543,23.2789883 171.469359,23.5055629 C171.524175,23.7317313 171.590361,23.8161892 171.674007,23.8551698 C171.758059,23.8945564 171.729229,24.0354549 171.776737,24.0825564 C171.824244,24.1300639 171.887994,24.1174765 172.07437,24.2892346 C172.260746,24.4605866 172.415856,24.6672648 172.415856,24.6672648 L172.587614,24.8134419 L172.538482,24.8041028 Z M167.131147,15.8133987 C167.01583,15.8133987 166.922033,15.7196017 166.922033,15.6042842 C166.922033,15.4889667 167.01583,15.3951698 167.131147,15.3951698 C167.246871,15.3951698 167.340262,15.4889667 167.340262,15.6042842 C167.340262,15.7196017 167.246871,15.8133987 167.131147,15.8133987 L167.131147,15.8133987 Z M182.749359,7.26894082 C183.002327,7.33228423 183.287372,7.03140302 183.250422,6.61520432 C183.213471,6.19859957 182.617394,6.4304527 182.617394,6.4304527 C182.617394,6.4304527 182.502482,6.36710929 182.591813,6.3407162 C182.680737,6.31472916 183.416495,6.32406825 183.313765,5.57653477 C183.210629,4.82859525 182.763977,5.27890194 182.722966,5.2127162 C182.681955,5.14653045 183.276815,4.79611145 183.187078,4.39534255 C183.163527,4.28936415 183.138759,4.20937279 183.11602,4.14846566 C182.525221,4.52487171 181.919398,4.87935119 181.316417,5.24682419 C181.25145,5.28661685 181.185264,5.32681555 181.119484,5.36701425 C181.11989,5.36782635 181.120702,5.36904449 181.121108,5.36985659 C181.101212,5.38041382 181.082128,5.3930013 181.065074,5.40883715 C181.061419,5.41249158 181.057765,5.41573996 181.053705,5.41939438 C181.035838,5.43157581 181.016754,5.44213305 180.99767,5.45269028 C180.97818,5.46324752 180.957877,5.47258661 180.937981,5.4819257 C180.935139,5.48314384 180.93189,5.48436199 180.929048,5.48598618 C180.922957,5.48842246 180.916054,5.49126479 180.911994,5.49288898 C180.872201,5.50913089 180.837281,5.53186955 180.808046,5.55948078 C180.289117,5.88472484 179.76897,6.23554989 179.312573,6.64525184 C178.504132,7.17148942 177.625445,7.57834903 176.903493,8.23086739 C175.910707,9.1274203 175.16561,10.304146 174.323467,11.3355067 C173.861385,11.9011309 173.389152,12.448889 172.938033,13.0145132 C172.737039,13.2309365 172.544167,13.457511 172.361039,13.6889581 C172.342361,13.6897702 172.324089,13.6978911 172.311095,13.7190056 C172.287139,13.7579862 172.261558,13.7953425 172.236383,13.833105 C172.212832,13.8599041 172.189281,13.8871093 172.16573,13.9139084 C171.795821,14.2086989 171.459208,14.5469365 171.115692,14.8705564 C170.861506,15.1093123 170.598793,15.3399473 170.339329,15.5742367 C170.136711,15.7118868 169.934093,15.8304527 169.70427,15.9128803 C169.33964,15.8779603 168.88446,15.7922842 168.447553,15.5912907 C167.499838,15.1556017 166.961825,14.9509538 166.474975,15.1811827 C165.988124,15.4118177 165.78307,15.8730877 165.78307,15.8730877 C165.78307,15.8730877 165.142733,15.8605002 165.027415,16.0651482 C164.912098,16.2702022 164.924685,16.3985132 164.924685,16.3985132 C164.924685,16.3985132 166.194802,16.2125434 166.605722,17.4818479 C166.609376,17.4891568 166.613031,17.4952475 166.616685,17.5033685 C166.72713,17.7429365 167.255398,18.3662194 167.540443,18.8075931 C167.798689,19.2071438 168.686309,19.8133728 169.181687,20.5743058 C169.622655,21.2519991 169.933281,22.3532 169.995813,22.5866773 C170.072556,22.8546687 170.018145,23.1486471 170.018145,23.1486471 C169.951553,23.5615974 169.882525,23.9737356 169.816746,24.386686 C169.744875,24.8394289 169.696962,25.2942022 169.631588,25.7477572 C169.606007,25.9231698 169.582456,26.1018307 169.596262,26.2748069 C169.556469,26.4579343 169.577584,26.6386255 169.733912,26.7929235 C169.972262,27.027619 170.236193,26.8245952 170.407545,26.5700035 C170.420132,26.8083533 170.56834,27.0194981 170.854603,27.0755326 C170.886275,27.0816233 170.91754,27.0852778 170.947994,27.087308 C171.122188,27.1271006 171.295977,27.0897443 171.40967,26.9285434 C171.415761,26.9196104 171.420633,26.9102713 171.426318,26.9013382 C171.461238,26.8660121 171.493316,26.8274376 171.521739,26.7852086 C171.542854,26.822159 171.567622,26.856673 171.59564,26.8879387 C171.645178,27.0783749 171.813687,27.2233339 172.040262,27.1932864 C172.230292,27.1681114 172.35373,27.053606 172.420322,26.9049927 C172.521428,27.1193857 172.700901,27.3613901 172.952651,27.2602842 C172.977419,27.2744959 173.007873,27.2793685 173.040357,27.2643447 C173.122378,27.2257702 173.191,27.1697356 173.248659,27.104362 C173.410266,26.9862022 173.482543,26.8197227 173.51056,26.6313166 C173.541419,26.6495888 173.577152,26.65974 173.613696,26.6609581 C173.619787,26.6784181 173.625471,26.6962842 173.63278,26.7133382 C173.708305,26.8895629 173.848391,27.0519819 174.032737,27.1169495 C174.254439,27.1949106 174.355139,27.0008199 174.401022,26.7815542 C174.403052,26.7762756 174.40427,26.770997 174.405895,26.7657184 C174.416858,26.7608458 174.426603,26.7555672 174.435942,26.7494765 C174.442033,26.7904873 174.459899,26.8294678 174.492789,26.8627637 C174.544763,26.9143317 174.618663,26.9326039 174.686473,26.9175801 C174.736823,26.9468156 174.799355,26.9573728 174.852953,26.942349 C174.970301,26.9102713 175.019026,26.7973901 174.99913,26.685321 C174.993851,26.6568976 174.98573,26.6296924 174.976391,26.6028933 C174.979234,26.5882756 174.980858,26.5736579 174.980452,26.5590402 C175.007657,26.5626946 175.035268,26.5606644 175.062067,26.5505132 C175.06897,26.5476708 175.075467,26.5440164 175.08237,26.5411741 C175.111199,26.5955844 175.146119,26.6451222 175.19119,26.6869451 C175.26834,26.7580035 175.407614,26.7332346 175.434007,26.6227896 C175.448219,26.5643188 175.455933,26.5050359 175.459588,26.446159 C175.469739,26.4201719 175.472987,26.3913425 175.466085,26.360889 C175.46446,26.3535801 175.463242,26.3466773 175.461618,26.3397745 C175.4604,26.2975456 175.457152,26.2553166 175.451873,26.2130877 C175.479078,26.2122756 175.505877,26.2033425 175.525368,26.1862886 C175.557039,26.2061849 175.59399,26.2179603 175.633782,26.2179603 C175.669921,26.2179603 175.704029,26.2078091 175.734076,26.1907551 C175.781584,26.1846644 175.827873,26.1631438 175.859951,26.13066 C175.915985,26.0746255 175.931009,25.9966644 175.910707,25.9264181 C175.911925,25.8671352 175.908676,25.8082583 175.902992,25.7497875 C175.956184,25.7806471 176.016685,25.7981071 176.084901,25.7936406 C176.265998,25.7822713 176.383752,25.6320337 176.444253,25.4744873 C176.5011,25.3262799 176.5011,25.1801028 176.47024,25.0379862 C176.514905,25.0440769 176.560789,25.0375801 176.6018,25.0136233 C176.678543,24.9685521 176.72808,24.865416 176.697627,24.7773037 C176.679355,24.7241114 176.656616,24.6725434 176.634689,24.6209754 C176.633065,24.6169149 176.62535,24.5982367 176.620072,24.5860553 C176.616417,24.5771222 176.613169,24.5677832 176.609514,24.5588501 C176.616823,24.5620985 176.624132,24.5657529 176.631441,24.5685952 C176.648089,24.601079 176.67164,24.6295024 176.704124,24.6477745 C177.03424,24.8296838 177.35583,24.7423836 177.400901,24.3408026 C177.409834,24.2624354 177.40618,24.1767594 177.394404,24.0890531 C177.409834,23.9250099 177.368011,23.7475672 177.288832,23.5948933 C177.434197,23.5997659 177.573471,23.5567248 177.659147,23.4186687 C177.709091,23.3374592 177.730206,23.2534073 177.729394,23.1705737 C177.755787,23.0893641 177.750508,23.0105909 177.718836,22.9391266 C177.804106,22.9301935 177.887752,22.8928371 177.962059,22.8152821 C177.996167,22.7799559 178.02256,22.7405693 178.042862,22.6987464 C178.093618,22.6475844 178.120011,22.5883015 178.128944,22.5245521 C178.154525,22.4876017 178.171173,22.4425305 178.168737,22.4023317 C178.16021,22.2488458 178.102145,22.1087594 177.999009,22.0100898 C177.959216,21.9016752 177.860547,21.815187 177.727769,21.7737702 C177.7164,21.7701158 177.705437,21.7688976 177.694879,21.7688976 C177.639251,21.7286989 177.577938,21.6970272 177.512564,21.6763188 C177.318879,21.5605952 177.09799,21.4883188 176.88319,21.4087335 C176.353705,21.2130186 175.856702,20.9279732 175.342646,20.6961201 C174.925229,20.5081201 174.507813,20.2900726 174.079838,20.1012605 C173.904426,19.7914462 173.999035,19.3265218 174.364884,19.2136406 C174.476953,19.1787205 174.537048,19.1393339 174.633687,19.0751784 C174.813972,18.9558004 174.816409,18.7487162 175.034862,18.6386773 C175.189972,18.5607162 175.336149,18.3446989 175.411268,18.1307119 C175.568003,18.0880769 175.673169,17.9548933 175.692253,17.7733901 C175.696314,17.7356276 175.693065,17.695835 175.686975,17.6560423 C175.698344,17.6369581 175.710525,17.6174678 175.725549,17.5975715 C175.7357,17.5841719 175.746257,17.5723965 175.757221,17.5614333 C175.894871,17.6081287 176.056478,17.5886384 176.207933,17.482254 C176.391873,17.3535369 176.494197,17.1602583 176.498663,16.9629192 C176.591242,16.9434289 176.674888,16.8910488 176.730923,16.7931914 C176.777618,16.7115758 176.795484,16.6258998 176.79386,16.5410359 C176.870603,16.4943404 176.956279,16.465511 177.057385,16.3599387 C177.135752,16.2787292 177.186914,16.1971136 177.219398,16.1102194 C177.272996,16.1211827 177.336746,16.1081892 177.412676,16.0578393 C177.68554,15.87593 177.839432,15.6213382 177.897497,15.3338566 C177.951502,15.3407594 178.014439,15.3293901 178.088746,15.2904095 C178.364858,15.1458566 178.504538,14.9213123 178.548797,14.6659084 C178.710404,14.6573814 178.874448,14.5611482 178.986517,14.4096924 C179.085998,14.2748847 179.134318,14.1079991 179.126603,13.9492346 C179.34262,13.9195931 179.528996,13.7425564 179.572443,13.5139516 C179.584625,13.448984 179.586249,13.3840164 179.578534,13.3214851 C179.728365,13.3787378 179.878603,13.397416 180.040616,13.3024009 C180.208314,13.2037313 180.296832,12.9901503 180.31754,12.8058048 C180.322819,12.756267 180.325255,12.7026687 180.324037,12.6466341 C180.459657,12.6332346 180.597307,12.5613641 180.721152,12.4095024 C180.887631,12.2060726 180.917679,11.8999127 180.854335,11.6087767 C181.094715,11.5641114 181.299363,11.4118436 181.391536,11.1259862 C181.433359,10.996051 181.440668,10.8632734 181.421178,10.7329322 C181.450819,10.7325261 181.480054,10.731714 181.506854,10.7296838 C181.519441,10.7288717 181.531622,10.7272475 181.54421,10.7260294 C181.628668,10.7309019 181.718404,10.7183145 181.804892,10.6862367 C181.884072,10.6570013 181.947821,10.5952821 181.956754,10.509606 C181.959597,10.5051395 181.962845,10.5014851 181.965687,10.4970186 C182.029843,10.3825132 182.014413,10.2639473 181.967311,10.1539084 C181.969342,10.1441633 181.969748,10.1340121 181.971372,10.124267 C182.126076,10.1295456 182.279968,10.1092432 182.436702,10.0357486 C182.661653,9.93098834 182.819605,9.69548078 182.750577,9.44860389 C182.712409,9.31217192 182.611303,9.19969676 182.494361,9.10468164 C182.551614,9.10671188 182.608054,9.10671188 182.663277,9.10183931 C182.904875,9.08031879 183.110741,8.86511361 183.0677,8.61701857 C183.049022,8.51104017 183.036435,8.47896242 182.940201,8.41683715 C182.950759,8.4164311 182.895942,8.3677054 182.906905,8.36729935 C182.82529,8.29989546 182.708754,8.23370972 182.559735,8.2284311 C182.248296,8.21787387 182.269411,8.17564492 182.269411,8.17564492 C182.269411,8.17564492 182.647035,8.07819352 182.770473,7.87516976 C182.893912,7.672146 182.692106,7.40050022 182.591813,7.36395594 L182.491113,7.32700562 C182.491113,7.32700562 182.496391,7.20559741 182.749359,7.26894082 L182.749359,7.26894082 Z" id="Fill-24" fill="#008CCF" sketch:type="MSShapeGroup"></path>
                    <path d="M68.225403,36.8006549 C67.29393,35.7794454 65.8520553,35.2690436 63.9001849,35.2690436 C62.8253771,35.2690436 61.688038,35.6007844 60.4881676,36.263454 L59.3865607,35.2690436 L56.1361503,35.5650523 L56.3509495,36.5318514 L57.9629581,36.5318514 L57.9629581,51.5076959 L56.2165477,52.0721019 L56.4313469,53.0389011 L62.0461719,53.0389011 L62.2613771,52.0721019 L60.4881676,51.5076959 L60.4881676,37.2574583 C61.8492389,36.7738557 62.9061806,36.5318514 63.6581806,36.5318514 C64.6968501,36.5318514 65.4756492,36.8859248 65.9953901,37.5932596 C66.5147248,38.3010004 66.7745952,39.0257952 66.7745952,40.7628665 C66.7745952,42.5003438 66.3401244,43.4131387 65.4715888,44.4964734 C64.6026471,45.5802143 63.6045823,46.1218816 62.4761762,46.1218816 L62.0884009,46.1218816 C62.0863706,46.4548406 62.0758134,46.7853633 62.0482022,47.115886 L62.5297745,47.115886 C64.6075197,47.115886 66.3088587,46.5027542 67.6341978,45.2756786 C68.9595369,44.0490091 69.6222065,42.9388752 69.6222065,40.9508665 C69.6222065,38.8731214 69.15647,37.8214583 68.225403,36.8006549" id="Fill-26" fill="#184E82" sketch:type="MSShapeGroup"></path>
                    <g id="Group-30">
                        <mask id="mask-4" sketch:name="Clip 29" fill="white">
                            <use xlink:href="#path-3"></use>
                        </mask>
                        <g id="Clip-29"></g>
                        <path d="M5.18502376,30.2571991 L7.30743413,30.2571991 C8.54344276,30.2571991 9.44730454,30.5662013 10.0210497,31.1837996 C10.5939827,31.8018039 10.8806523,32.6126808 10.8806523,33.6156181 C10.8806523,34.5466851 10.553378,35.3392898 9.90004752,35.9930263 C9.24590497,36.6467629 8.45330022,36.9732251 7.52223326,36.9732251 L6.86606048,36.9732251 L6.86606048,38.1016311 L8.43584017,38.1016311 C9.67144276,38.1016311 10.6967127,38.5316354 11.5116501,39.3916441 C12.3265875,40.2508406 12.7342592,41.2813892 12.7342592,42.4808536 C12.7342592,43.68113 12.3891188,44.7019335 11.6996501,45.54367 C11.0101814,46.3858125 10.1282462,46.8060717 9.05384449,46.8060717 L6.78160259,46.8060717 C6.78485097,46.8405857 6.78525702,46.876724 6.78322678,46.9148924 C6.76211231,47.2563784 6.76901512,47.5958341 6.78160259,47.9344778 L9.83264363,47.9344778 C11.6594514,47.9344778 13.1236587,47.4419421 14.2252657,46.4568708 C15.3268726,45.4722056 15.877473,44.24513 15.877473,42.7764562 C15.877473,41.3435145 15.3760043,40.126184 14.373067,39.1228406 C13.3697235,38.1199032 12.151987,37.6184346 10.7194514,37.6184346 L10.7194514,37.510832 C11.6683844,37.2960328 12.4565227,36.8034972 13.08346,36.0332251 C13.7103974,35.263359 14.0238661,34.3769572 14.0238661,33.3736138 C14.0238661,32.1912035 13.5804622,31.1886721 12.6940605,30.3643957 C11.8072527,29.5409313 10.7101123,29.1287931 9.40304536,29.1287931 L0.188203024,29.1287931 L-0.000203023758,30.2571991 L2.33741253,31.1436009 L2.33741253,45.91967 L0.0270021598,46.8060717 L0.241801296,47.9344778 L5.23334341,47.9344778 L5.18502376,30.2571991 Z" id="Fill-28" fill="#184E82" sketch:type="MSShapeGroup" mask="url(#mask-4)"></path>
                    </g>
                    <path d="M40.7553952,36.3556674 L37.9345832,36.3556674 L37.9345832,46.4033132 L39.6537883,46.9673132 L39.4657883,47.9345184 L33.8241641,47.9345184 L33.6361641,46.9673132 L35.3821685,46.4033132 L35.3821685,36.3556674 L32.5613564,36.3556674 L31.9165529,38.4780778 L30.9225486,38.2896717 L30.9225486,35.3884622 L42.394203,35.3884622 L42.394203,38.2896717 L41.4001987,38.4780778 L40.7553952,36.3556674 Z" id="Fill-31" fill="#184E82" sketch:type="MSShapeGroup"></path>
                    <path d="M47.5503162,41.2987274 L54.8932795,41.2987274 C55.1978151,40.653924 55.3500829,39.9916605 55.3500829,39.3107188 C55.3500829,38.039384 54.8437417,37.0181745 53.8322773,36.2483084 C52.8200009,35.4780363 51.5259274,35.0931032 49.950057,35.0931032 C48.0335127,35.0931032 46.4710419,35.6798419 45.2622384,36.8525071 C44.053435,38.0259844 43.4488302,39.6245935 43.4488302,41.6479283 C43.4488302,43.7078073 44.0351629,45.319816 45.2086402,46.4839542 C46.3813054,47.6484985 48.1232492,48.2303646 50.4336596,48.2303646 C52.3497978,48.2303646 53.8903421,47.7020968 55.0544803,46.6451551 L54.4368821,45.7583473 C53.1647352,46.5643516 51.8844674,46.9675568 50.5948605,46.9675568 C49.198057,46.9675568 48.1321823,46.4660881 47.3980484,45.4631508 C46.6635084,44.4602134 46.2964415,43.1166022 46.2964415,41.4331292 L46.3504458,40.3315222 C46.6009771,37.5021832 47.8008475,36.0871076 49.950057,36.0871076 C50.881124,36.0871076 51.5933313,36.3421054 52.085867,36.8525071 C52.5784026,37.3629089 52.8248734,38.1108484 52.8248734,39.0959197 C52.8248734,39.5080579 52.7619361,39.9197901 52.6368734,40.3315222 L47.548286,40.3315222 L47.5503162,41.2987274 Z" id="Fill-33" fill="#184E82" sketch:type="MSShapeGroup"></path>
                    <path d="M21.5906428,41.2987274 L28.933606,41.2987274 C29.2381417,40.653924 29.3904095,39.9916605 29.3904095,39.3107188 C29.3904095,38.039384 28.8840683,37.0181745 27.8726039,36.2483084 C26.8603274,35.4780363 25.566254,35.0931032 23.9903836,35.0931032 C22.0738393,35.0931032 20.5113685,35.6798419 19.302565,36.8525071 C18.0937616,38.0259844 17.4891568,39.6245935 17.4891568,41.6479283 C17.4891568,43.7078073 18.0754894,45.319816 19.2489667,46.4839542 C20.421632,47.6484985 22.1635758,48.2303646 24.4739862,48.2303646 C26.3901244,48.2303646 27.9306687,47.7020968 29.0948069,46.6451551 L28.4772086,45.7583473 C27.2050618,46.5643516 25.924794,46.9675568 24.635187,46.9675568 C23.2383836,46.9675568 22.1725089,46.4660881 21.4383749,45.4631508 C20.703835,44.4602134 20.336768,43.1166022 20.336768,41.4331292 L20.3907724,40.3315222 C20.6413037,37.5021832 21.8411741,36.0871076 23.9903836,36.0871076 C24.9214505,36.0871076 25.6336579,36.3421054 26.1261935,36.8525071 C26.6187292,37.3629089 26.8652,38.1108484 26.8652,39.0959197 C26.8652,39.5080579 26.8022626,39.9197901 26.6772,40.3315222 L21.5886125,40.3315222 L21.5906428,41.2987274 Z" id="Fill-35" fill="#184E82" sketch:type="MSShapeGroup"></path>
                    <path d="M131.263468,36.8590039 C130.224392,35.6680665 128.737852,35.0723948 126.803848,35.0723948 C126.22523,35.0723948 125.6726,35.1661918 125.145956,35.3525676 C124.546224,35.8796173 124.493844,36.7026756 124.52714,37.1964294 C125.108194,36.4448354 125.866284,36.0663991 126.803848,36.0663991 C127.87825,36.0663991 128.674915,36.5634013 129.194656,37.5578117 C129.71399,38.551816 129.973861,39.8816216 129.973861,41.5468225 C129.973861,43.2489737 129.71399,44.618978 129.194656,45.6576475 C128.674915,46.6963171 127.87825,47.2156518 126.803848,47.2156518 C125.711174,47.2156518 124.860098,46.678451 124.251433,45.6036432 C123.767425,44.7497253 123.479131,43.7171464 123.379649,42.5124035 C123.378837,42.508749 123.376401,42.5067188 123.375589,42.5022523 C123.244435,41.8395827 123.2018,39.431721 123.429593,37.1513581 C123.479537,36.6523257 123.530699,36.304343 123.588764,36.0546238 L123.637083,35.7208527 C123.823459,34.3942955 124.842638,32.8159888 126.669446,32.3859844 C128.674915,31.9023819 130.009593,31.3919801 130.672263,30.8547793 C131.334526,30.3175784 131.728798,29.305708 131.854673,27.818762 L131.721489,27.818762 C131.507096,28.3563689 131.16155,28.7234359 130.687692,28.9203689 C130.212617,29.117708 129.482543,29.305708 128.497878,29.4843689 C127.512807,29.6638419 125.782638,29.9237123 124.976634,30.2635741 C124.224634,30.5859758 123.583891,31.0338462 123.056029,31.6067793 C122.527762,32.1801184 122.12009,32.7847231 121.83342,33.4201875 C121.546751,34.0564639 121.323019,34.8486626 121.162224,35.7980017 C121.000617,36.7473408 120.897481,37.6248095 120.853222,38.4308138 C120.80815,39.2368181 120.785818,40.2304164 120.785818,41.4128268 C120.785818,43.4727058 121.305152,45.1204467 122.344228,46.3560492 C123.382492,47.5916518 124.869438,48.2096562 126.803848,48.2096562 C128.737852,48.2096562 130.224392,47.609924 131.263468,46.4096475 C132.302137,45.2101832 132.821472,43.6156346 132.821472,41.6276259 C132.821472,39.6396173 132.302137,38.0503473 131.263468,36.8590039" id="Fill-37" fill="#184E82" sketch:type="MSShapeGroup"></path>
                    <path d="M76.8975222,42.016457 C75.9481832,35.6199905 77.9958808,33.6835499 78.7482868,32.7435499 C79.5002868,31.8031438 80.5032242,31.0556104 81.7570989,30.5001374 C83.0105676,29.9450704 84.4252371,29.6673339 86.0015136,29.6673339 C88.1149909,29.6673339 89.5877253,30.1960078 91.414533,31.2521374 L91.414533,34.9057529 L90.286127,35.0937529 L88.9969261,31.4941417 C87.7966497,31.1542799 87.1303257,30.98374 86.0015136,30.98374 C83.834438,30.98374 82.2273019,31.6687421 81.1796994,33.0387464 C80.1316907,34.4087508 79.6078894,36.0296924 79.6078894,38.8951698 C79.6078894,44.6801287 81.7388268,47.074997 86.0015136,47.074997 C87.2017901,47.074997 87.8413149,46.9048631 88.9161227,46.5645952 L90.286127,42.776578 L91.414533,42.964578 L91.414533,46.8061935 C90.7518635,47.2897961 89.8784553,47.6751352 88.7951205,47.9613987 C87.7113797,48.2476622 87.1120536,48.391403 86.0015136,48.391403 C84.3180406,48.391403 82.8404337,48.1132605 81.5690989,47.5585996 C80.2969521,47.0035326 79.2988873,46.2511266 78.5732803,45.3017875 C77.8480795,44.3524484 77.0879585,43.1586687 76.8975222,42.016457" id="Fill-39" fill="#184E82" sketch:type="MSShapeGroup"></path>
                    <path d="M97.5479214,36.3556674 L99.0523274,36.3556674 C99.6788587,36.3556674 100.207533,36.5396069 100.637537,36.9062678 C101.067135,37.2737408 101.28234,37.7618099 101.28234,38.3704752 C101.28234,38.9795464 101.067135,39.4903542 100.637537,39.9020864 C100.207533,40.3142246 99.6788587,40.5196847 99.0523274,40.5196847 L98.6759214,40.5196847 L98.6759214,41.513689 L99.6703317,41.513689 C100.458064,41.513689 101.129667,41.7824924 101.68514,42.3196933 C102.2398,42.8573002 102.517537,43.5199698 102.517537,44.3077019 C102.517537,45.0779741 102.2398,45.7138445 101.68514,46.2153132 C101.129667,46.7167819 100.458064,46.9673132 99.6703317,46.9673132 L99.0722238,46.9673132 C99.0714117,46.9778704 99.0734419,46.9868035 99.0722238,46.9977667 C99.0531395,47.1934816 99.0214678,47.3916328 98.9869538,47.5905961 C98.9857356,47.7055076 98.9784268,47.8208251 98.9585305,47.9345184 L101.87314,47.9345184 C102.822479,47.9345184 103.63701,47.5987171 104.317952,46.9271145 C104.998081,46.2555119 105.338755,45.4454471 105.338755,44.496108 C105.338755,43.5467689 104.998081,42.7318315 104.317952,42.0512959 C103.63701,41.3707603 102.822479,41.0126263 101.87314,40.9764881 C102.517537,40.8331533 103.050677,40.5022246 103.471343,39.9824838 C103.892414,39.463149 104.103152,38.8723499 104.103152,38.2092743 C104.103152,37.4215421 103.82501,36.754406 103.269943,36.2078661 C102.71447,35.6617322 102.042867,35.3884622 101.255135,35.3884622 L93.4102972,35.3884622 L93.2222972,36.3556674 L95.0223058,36.9196674 L95.0223058,46.4033132 L93.2490963,46.9673132 L93.4643015,47.9345184 L97.5328976,47.9345184 C97.5320855,47.93127 97.5308674,47.9288337 97.5304613,47.9251793 L97.5479214,36.3556674 Z" id="Fill-41" fill="#184E82" sketch:type="MSShapeGroup"></path>
                    <path d="M155.550591,47.9305797 L156.473131,47.9346402 L157.503273,47.9346402 L158.05428,49.6806445 L158.60488,51.4270549 L159.088077,51.360057 L159.571679,51.2926531 L159.571679,49.1300441 L159.571679,46.967435 L158.819679,46.967435 L158.067679,46.967435 L158.067679,41.9434091 L158.067679,36.9197892 L158.967481,36.6375862 L159.867688,36.3557892 L159.773485,35.8721866 L159.679688,35.388584 L154.467662,35.388584 L149.255636,35.388584 L149.161433,35.8721866 L149.067636,36.3557892 L149.967438,36.6375862 L150.867645,36.9197892 C150.867645,38.0392622 150.816077,39.1071672 150.712941,40.1235041 C150.610211,41.139841 150.455507,42.1046099 150.249641,43.0182168 C150.043775,43.9314177 149.785934,44.7175257 149.477338,45.3757287 C149.168336,46.0339317 148.807766,46.5646359 148.396034,46.967435 L147.804829,46.967435 L147.214029,46.967435 L147.214029,49.1032449 L147.214029,51.2390549 L147.711032,51.3332579 L148.208034,51.4270549 L148.745235,49.6806445 L149.282435,47.9346402 L151.652941,47.9346402 L153.975127,47.9346402 C153.95523,47.779124 153.989338,47.6244199 153.979593,47.4689037 C153.969848,47.3133875 153.965381,47.1566531 153.964569,46.9978886 C153.964569,46.9922039 153.965787,46.9873313 153.9666,46.9824587 C153.967818,46.9775862 153.96863,46.9727136 153.969036,46.967435 L151.894133,46.967435 L149.819636,46.967435 C150.563109,45.9734307 151.120613,44.6367222 151.492146,42.9577158 C151.863679,41.2787093 152.049649,39.2569987 152.049649,36.8929901 L152.049649,36.6241866 L152.049649,36.3557892 L153.795654,36.3557892 L155.542064,36.3557892 L155.542064,41.6616121 L155.542064,46.967435 L155.550591,47.9305797 Z" id="Fill-43" fill="#184E82" sketch:type="MSShapeGroup"></path>
                    <path d="M175.114204,46.3763922 L175.114204,36.9195456 L173.3682,36.3555456 L173.5562,35.3883404 L179.197824,35.3883404 L179.385824,36.3555456 L177.639819,36.9195456 L177.639819,46.3763922 L179.385824,46.9675974 L179.197824,47.9343965 L173.5562,47.9343965 L173.3682,46.9675974 L175.114204,46.3763922 Z M168.343768,40.5195629 C168.881375,40.5195629 169.405582,40.5780337 169.915578,40.6941633 C170.426385,40.811105 170.940848,41.0031654 171.460588,41.2719689 C171.979517,41.5407724 172.396528,41.939511 172.70959,42.4673728 C173.022653,42.9960467 173.1802,43.6185175 173.1802,44.3347853 C173.1802,45.2841244 172.817193,46.1209883 172.091586,46.8465952 C171.366385,47.5717961 170.528709,47.9343965 169.579776,47.9343965 L161.950143,47.9343965 L161.762143,46.9403922 L163.508148,46.4031914 L163.508148,36.9195456 L161.708545,36.3555456 L161.923344,35.3883404 L167.645772,35.3883404 L167.833772,36.3555456 L166.033763,36.9195456 L166.033763,46.9675974 L167.726169,46.9675974 C168.513902,46.9675974 169.149772,46.698794 169.633781,46.1615931 C170.117383,45.6239862 170.358981,44.9527896 170.358981,44.1463793 C170.358981,43.3586471 170.117383,42.7183102 169.633781,42.2257745 C169.149772,41.7332389 168.513902,41.4871741 167.726169,41.4871741 L167.188968,41.4871741 L167.188968,40.5195629 L168.343768,40.5195629 Z" id="Fill-45" fill="#184E82" sketch:type="MSShapeGroup"></path>
                    <path d="M117.595746,36.818927 C116.530683,35.6543827 114.958873,35.0725166 112.881128,35.0725166 C110.785517,35.0725166 109.210053,35.6409832 108.152705,36.7787283 C107.096575,37.9156613 106.567902,39.5410695 106.567902,41.6545469 C106.567902,43.7140199 107.122968,45.321562 108.233508,46.4771732 C108.540886,46.7967326 108.885215,47.0675663 109.25959,47.2990134 C110.158986,47.6262877 111.038485,47.4334151 111.803478,47.0440156 C111.150554,46.825562 110.599141,46.397994 110.154519,45.7515663 C109.482511,44.7754281 109.146709,43.4366894 109.146709,41.7353503 C109.146709,40.0157391 109.482511,38.6412683 110.154519,37.6115317 C110.825716,36.5813892 111.734856,36.066521 112.881128,36.066521 C114.009534,36.066521 114.909336,36.5858557 115.580938,37.6245253 C116.252947,38.6631948 116.588748,40.0331991 116.588748,41.7353503 C116.588748,43.4184173 116.252947,44.7530955 115.580938,45.7381667 C115.550485,45.782832 115.517189,45.8210004 115.485923,45.8636354 C114.359141,47.5986765 111.522899,48.0315231 111.293483,48.0636009 C111.788454,48.1573978 112.314692,48.209778 112.881128,48.209778 C114.851677,48.209778 116.396282,47.6230393 117.515755,46.449968 C118.634822,45.2764907 119.194355,43.6782877 119.194355,41.6545469 C119.194355,39.5946678 118.661621,37.9826592 117.595746,36.818927" id="Fill-47" fill="#184E82" sketch:type="MSShapeGroup"></path>
                    <path d="M145.441591,36.818927 C144.376529,35.6543827 142.804719,35.0725166 140.726974,35.0725166 C138.631362,35.0725166 137.055898,35.6409832 135.99855,36.7787283 C134.942421,37.9156613 134.413747,39.5410695 134.413747,41.6545469 C134.413747,43.7140199 134.968814,45.321562 136.079354,46.4771732 C136.386732,46.7967326 136.73106,47.0675663 137.105436,47.2990134 C138.004831,47.6262877 138.88433,47.4334151 139.649324,47.0440156 C138.996399,46.825562 138.444987,46.397994 138.000365,45.7515663 C137.328356,44.7754281 136.992555,43.4366894 136.992555,41.7353503 C136.992555,40.0157391 137.328356,38.6412683 138.000365,37.6115317 C138.671561,36.5813892 139.580702,36.066521 140.726974,36.066521 C141.85538,36.066521 142.755181,36.5858557 143.426784,37.6245253 C144.098792,38.6631948 144.434594,40.0331991 144.434594,41.7353503 C144.434594,43.4184173 144.098792,44.7530955 143.426784,45.7381667 C143.39633,45.782832 143.363034,45.8210004 143.331768,45.8636354 C142.204987,47.5986765 139.368745,48.0315231 139.139328,48.0636009 C139.6343,48.1573978 140.160537,48.209778 140.726974,48.209778 C142.697522,48.209778 144.242127,47.6230393 145.3616,46.449968 C146.480667,45.2764907 147.0402,43.6782877 147.0402,41.6545469 C147.0402,39.5946678 146.507466,37.9826592 145.441591,36.818927" id="Fill-49" fill="#184E82" sketch:type="MSShapeGroup"></path>
                    <path d="M110.395752,59.1243352 L109.460625,59.1243352 L108.437791,57.1598773 L107.913584,57.1598773 L107.913584,59.1243352 L107.079562,59.1243352 L107.079562,54.7597305 L107.913584,54.7597305 L107.913584,56.5219767 L108.450378,56.5219767 L109.435856,54.7597305 L110.282059,54.7597305 L109.138629,56.7680415 L110.395752,59.1243352 Z" id="Fill-51" fill="#184E82" sketch:type="MSShapeGroup"></path>
                    <path d="M113.541037,59.1243352 L112.732596,59.1243352 L112.732596,56.3956959 L111.917659,56.3956959 L111.835637,57.2922488 C111.793408,57.764076 111.742652,58.1177434 111.684181,58.353657 C111.624898,58.5895706 111.527041,58.7714799 111.390203,58.8997909 C111.253365,59.028508 111.043844,59.1283957 110.761641,59.2002661 L110.55943,58.6001279 C110.698704,58.5408449 110.798592,58.4746592 110.859499,58.4011646 C110.920812,58.3272639 110.964665,58.2107283 110.992276,58.0503395 C111.019482,57.8903568 111.047905,57.618711 111.077546,57.2358082 L111.19124,55.7829702 L113.541037,55.7829702 L113.541037,59.1243352 Z" id="Fill-53" fill="#184E82" sketch:type="MSShapeGroup"></path>
                    <path d="M115.518123,60.1001892 C115.244447,60.3292 114.869665,60.4636017 114.393777,60.5009581 L114.311756,59.9138134 C114.530615,59.8801114 114.706434,59.8326039 114.839211,59.7712907 C114.971583,59.7103836 115.077967,59.6295801 115.157959,59.5284743 C115.238356,59.4273685 115.311851,59.2925607 115.379254,59.124457 L115.101518,59.124457 L114.04011,55.782686 L114.899306,55.782686 L115.625725,58.5872562 L116.38341,55.782686 L117.217432,55.782686 L116.130848,59.1370445 C115.996041,59.5495888 115.791799,59.8707724 115.518123,60.1001892" id="Fill-55" fill="#184E82" sketch:type="MSShapeGroup"></path>
                    <path d="M119.456499,58.3756648 C119.58075,58.2221788 119.642875,57.9558117 119.642875,57.5765633 C119.642875,57.2273624 119.592119,56.9796734 119.491013,56.8347145 C119.389908,56.6893495 119.238452,56.616667 119.03624,56.616667 C118.880318,56.616667 118.734141,56.6584898 118.597303,56.7429477 C118.460465,56.8274056 118.345959,56.9557166 118.252975,57.1282868 L118.252975,57.5513883 C118.252975,57.8965287 118.314288,58.1588354 118.436102,58.3379024 C118.558322,58.5169693 118.728862,58.6062998 118.947722,58.6062998 C119.162521,58.6062998 119.331843,58.5295568 119.456499,58.3756648 M119.88894,56.1870687 C120.078564,56.309289 120.226771,56.4871378 120.334374,56.7210212 C120.441977,56.9544985 120.495575,57.2318289 120.495575,57.5513883 C120.495575,57.8965287 120.431013,58.1949737 120.302702,58.4450989 C120.174391,58.6956302 119.994106,58.8872847 119.762659,59.0200622 C119.531212,59.1524337 119.261597,59.2190255 118.954219,59.2190255 C118.478331,59.2190255 118.100301,59.0578246 117.820534,58.7358289 C117.540361,58.4138333 117.400681,57.92414 117.400681,57.2675611 C117.400681,56.7831464 117.439255,56.3852199 117.517622,56.0733754 C117.595178,55.7619369 117.730797,55.506127 117.924888,55.3059456 C118.118167,55.1061702 118.389813,54.9494359 118.739419,54.8353365 C118.996041,54.7512847 119.198253,54.6765719 119.346054,54.6111983 C119.49345,54.5458246 119.653026,54.4605546 119.826003,54.3557944 L120.135411,54.8986799 C119.988016,54.9957253 119.832499,55.0809952 119.66805,55.1544898 C119.503601,55.2279844 119.305856,55.3031032 119.074409,55.3786281 C118.880318,55.4415654 118.725614,55.5154661 118.60989,55.599924 C118.494167,55.6839758 118.4024,55.8029477 118.334996,55.9564337 C118.267592,56.1103257 118.221709,56.317816 118.196128,56.5784985 C118.440568,56.1955957 118.789769,56.0039413 119.244949,56.0039413 C119.484517,56.0039413 119.699722,56.0652544 119.88894,56.1870687" id="Fill-57" fill="#184E82" sketch:type="MSShapeGroup"></path>
                    <path d="M123.640657,56.401746 L123.640657,59.1242946 L122.832622,59.1242946 L122.832622,55.7829296 L125.560855,55.7829296 L125.560855,59.1242946 L124.752415,59.1242946 L124.752415,56.401746 L123.640657,56.401746 Z" id="Fill-59" fill="#184E82" sketch:type="MSShapeGroup"></path>
                    <path d="M127.537779,60.1001892 C127.264103,60.3292 126.889321,60.4636017 126.413433,60.5009581 L126.331412,59.9138134 C126.550271,59.8801114 126.72609,59.8326039 126.858867,59.7712907 C126.991239,59.7103836 127.097623,59.6295801 127.177615,59.5284743 C127.258012,59.4273685 127.331507,59.2925607 127.398911,59.124457 L127.121174,59.124457 L126.059766,55.782686 L126.918962,55.782686 L127.645381,58.5872562 L128.403066,55.782686 L129.237088,55.782686 L128.150505,59.1370445 C128.015697,59.5495888 127.811455,59.8707724 127.537779,60.1001892" id="Fill-61" fill="#184E82" sketch:type="MSShapeGroup"></path>
                    <path d="M131.106571,56.401746 L131.106571,59.1242946 L130.29813,59.1242946 L130.29813,56.401746 L129.262303,56.401746 L129.262303,55.7829296 L132.186657,55.7829296 L132.085552,56.401746 L131.106571,56.401746 Z" id="Fill-63" fill="#184E82" sketch:type="MSShapeGroup"></path>
                    <path d="M134.529795,57.1408743 C134.529795,56.5557598 134.312966,56.2629996 133.878901,56.2629996 C133.681156,56.2629996 133.526046,56.3356821 133.414789,56.4810471 C133.303126,56.626006 133.236534,56.8590773 133.215825,57.1790428 L134.529795,57.1790428 L134.529795,57.1408743 Z M135.313061,57.7032501 L133.215825,57.7032501 C133.241,58.0276821 133.325052,58.2591292 133.468793,58.3979974 C133.611316,58.5368657 133.80094,58.6062998 134.036854,58.6062998 C134.184249,58.6062998 134.323117,58.582343 134.453864,58.5336173 C134.584612,58.4852976 134.72348,58.4105849 134.870875,58.309479 L135.205458,58.770749 C134.834737,59.0696 134.422193,59.2190255 133.967419,59.2190255 C133.45783,59.2190255 133.065588,59.0631032 132.789476,58.7516648 C132.513769,58.4398203 132.375713,58.0146886 132.375713,57.4754575 C132.375713,57.1343775 132.434996,56.8282177 132.55275,56.556978 C132.670504,56.2853322 132.841044,56.0725633 133.06437,55.9186713 C133.28729,55.7647793 133.552845,55.6884423 133.860223,55.6884423 C134.327584,55.6884423 134.689778,55.8366497 134.9464,56.1334704 C135.203428,56.4302911 135.332145,56.8440536 135.332145,57.3743516 C135.332145,57.4169866 135.325648,57.5262134 135.313061,57.7032501 L135.313061,57.7032501 Z" id="Fill-65" fill="#184E82" sketch:type="MSShapeGroup"></path>
                    <path d="M136.077486,59.1243352 L136.077486,55.7829702 L136.854255,55.7829702 L136.854255,58.5116095 L137.719542,58.5116095 L137.719542,55.7829702 L138.439464,55.7829702 L138.439464,58.5116095 L139.304752,58.5116095 L139.304752,55.7829702 L140.081521,55.7829702 L140.081521,59.1243352 L136.077486,59.1243352 Z" id="Fill-67" fill="#184E82" sketch:type="MSShapeGroup"></path>
                    <path d="M142.993775,57.1408743 C142.993775,56.5557598 142.776945,56.2629996 142.34288,56.2629996 C142.145135,56.2629996 141.990025,56.3356821 141.878768,56.4810471 C141.767105,56.626006 141.700513,56.8590773 141.679805,57.1790428 L142.993775,57.1790428 L142.993775,57.1408743 Z M143.77704,57.7032501 L141.679805,57.7032501 C141.70498,58.0276821 141.789032,58.2591292 141.932772,58.3979974 C142.075295,58.5368657 142.264919,58.6062998 142.500833,58.6062998 C142.648228,58.6062998 142.787096,58.582343 142.917844,58.5336173 C143.048591,58.4852976 143.187459,58.4105849 143.334854,58.309479 L143.669438,58.770749 C143.298716,59.0696 142.886172,59.2190255 142.431399,59.2190255 C141.921809,59.2190255 141.529567,59.0631032 141.253455,58.7516648 C140.977749,58.4398203 140.839692,58.0146886 140.839692,57.4754575 C140.839692,57.1343775 140.898975,56.8282177 141.016729,56.556978 C141.134483,56.2853322 141.305023,56.0725633 141.528349,55.9186713 C141.751269,55.7647793 142.016824,55.6884423 142.324202,55.6884423 C142.791563,55.6884423 143.153757,55.8366497 143.410379,56.1334704 C143.667407,56.4302911 143.796124,56.8440536 143.796124,57.3743516 C143.796124,57.4169866 143.789628,57.5262134 143.77704,57.7032501 L143.77704,57.7032501 Z" id="Fill-69" fill="#184E82" sketch:type="MSShapeGroup"></path>
                    <path d="M146.476891,55.7827672 C146.651491,55.8461106 146.816752,55.9447801 146.972675,56.0795879 L146.606014,56.5725296 C146.496787,56.4880717 146.389184,56.4263525 146.284018,56.3861538 C146.178852,56.3463611 146.062722,56.3260587 145.936848,56.3260587 C145.435785,56.3260587 145.184848,56.7073374 145.184848,57.4690825 C145.184848,57.8568579 145.250221,58.1358125 145.380968,58.3063525 C145.51131,58.4768924 145.696467,58.5621624 145.936848,58.5621624 C146.059068,58.5621624 146.169107,58.5422661 146.268182,58.5020674 C146.366852,58.4622747 146.477703,58.396089 146.599923,58.3031041 L146.972675,58.8338082 C146.65677,59.0904302 146.297012,59.2191473 145.892588,59.2191473 C145.572217,59.2191473 145.29448,59.148495 145.058973,59.0071905 C144.823059,58.866292 144.641556,58.6652985 144.515681,58.4042099 C144.388994,58.1431214 144.326057,57.8357434 144.326057,57.482076 C144.326057,57.1280026 144.388994,56.8157521 144.515681,56.5441063 C144.641556,56.2724605 144.823059,56.0617218 145.058973,55.9122963 C145.29448,55.7628708 145.570593,55.6885641 145.886092,55.6885641 C146.104951,55.6885641 146.301884,55.7198298 146.476891,55.7827672" id="Fill-71" fill="#184E82" sketch:type="MSShapeGroup"></path>
                    <path d="M148.93697,56.401746 L148.93697,59.1242946 L148.12853,59.1242946 L148.12853,56.401746 L147.092702,56.401746 L147.092702,55.7829296 L150.017057,55.7829296 L149.915951,56.401746 L148.93697,56.401746 Z" id="Fill-73" fill="#184E82" sketch:type="MSShapeGroup"></path>
                    <path d="M152.230949,58.4609348 C152.35926,58.3935309 152.423822,58.2672501 152.423822,58.0820924 C152.423822,57.9050557 152.369006,57.7799931 152.258967,57.7064985 C152.14974,57.6325978 151.996254,57.5956475 151.798509,57.5956475 L151.292574,57.5956475 L151.292574,58.5620406 L151.722578,58.5620406 C151.932911,58.5620406 152.102638,58.5283387 152.230949,58.4609348 M151.292574,56.2694963 L151.292574,57.1156994 L151.747753,57.1156994 C152.114008,57.1156994 152.297135,56.9662739 152.297135,56.6670168 C152.297135,56.3807533 152.09939,56.2374186 151.703494,56.2374186 C151.585334,56.2374186 151.448496,56.2483819 151.292574,56.2694963 M153.051978,57.5513883 C153.192876,57.6906626 153.263528,57.881911 153.263528,58.1263516 C153.263528,58.4633711 153.131157,58.7134963 152.865602,58.8779456 C152.600453,59.0423948 152.246785,59.1244164 151.8046,59.1244164 L150.484539,59.1244164 L150.484539,55.8208138 C150.935252,55.7322955 151.341299,55.6884423 151.703494,55.6884423 C152.137152,55.6884423 152.478232,55.7639672 152.726733,55.9154229 C152.975235,56.0668786 153.099485,56.2865503 153.099485,56.5728138 C153.099485,56.7579715 153.044669,56.9114575 152.935036,57.0332717 C152.825809,57.155492 152.648772,57.2440104 152.404738,57.2988268 C152.695468,57.3284683 152.911079,57.4125201 153.051978,57.5513883" id="Fill-75" fill="#184E82" sketch:type="MSShapeGroup"></path>
                    <path d="M155.929393,57.1408743 C155.929393,56.5557598 155.712563,56.2629996 155.278498,56.2629996 C155.080753,56.2629996 154.925643,56.3356821 154.814386,56.4810471 C154.702723,56.626006 154.636131,56.8590773 154.615423,57.1790428 L155.929393,57.1790428 L155.929393,57.1408743 Z M156.712658,57.7032501 L154.615423,57.7032501 C154.640598,58.0276821 154.72465,58.2591292 154.86839,58.3979974 C155.010913,58.5368657 155.200537,58.6062998 155.436451,58.6062998 C155.583846,58.6062998 155.722714,58.582343 155.853462,58.5336173 C155.984209,58.4852976 156.123077,58.4105849 156.270473,58.309479 L156.605056,58.770749 C156.234334,59.0696 155.82179,59.2190255 155.367017,59.2190255 C154.857427,59.2190255 154.465185,59.0631032 154.189073,58.7516648 C153.913367,58.4398203 153.775311,58.0146886 153.775311,57.4754575 C153.775311,57.1343775 153.834594,56.8282177 153.952347,56.556978 C154.070101,56.2853322 154.240641,56.0725633 154.463967,55.9186713 C154.686887,55.7647793 154.952442,55.6884423 155.25982,55.6884423 C155.727181,55.6884423 156.089375,55.8366497 156.345997,56.1334704 C156.603025,56.4302911 156.731743,56.8440536 156.731743,57.3743516 C156.731743,57.4169866 156.725246,57.5262134 156.712658,57.7032501 L156.712658,57.7032501 Z" id="Fill-77" fill="#184E82" sketch:type="MSShapeGroup"></path>
                    <path d="M158.284793,57.7281408 L158.284793,59.1241322 L157.476759,59.1241322 L157.476759,55.7827672 L158.284793,55.7827672 L158.284793,57.1154151 L159.415635,57.1154151 L159.415635,55.7827672 L160.224076,55.7827672 L160.224076,59.1241322 L159.415635,59.1241322 L159.415635,57.7281408 L158.284793,57.7281408 Z" id="Fill-79" fill="#184E82" sketch:type="MSShapeGroup"></path>
                    <path d="M162.005041,57.7281408 L162.005041,59.1241322 L161.197006,59.1241322 L161.197006,55.7827672 L162.005041,55.7827672 L162.005041,57.1154151 L163.135883,57.1154151 L163.135883,55.7827672 L163.944324,55.7827672 L163.944324,59.1241322 L163.135883,59.1241322 L163.135883,57.7281408 L162.005041,57.7281408 Z" id="Fill-81" fill="#184E82" sketch:type="MSShapeGroup"></path>
                    <path d="M166.925565,59.1243352 L166.925565,57.7851905 C166.925565,57.5411559 166.935717,57.310521 166.957237,57.0936916 C166.978352,56.8768622 167.001496,56.7136311 167.026671,56.6039983 L165.795129,59.1243352 L164.917254,59.1243352 L164.917254,55.7829702 L165.700114,55.7829702 L165.700114,57.1217089 C165.700114,57.353562 165.688339,57.5829788 165.665194,57.8107715 C165.642455,58.0377521 165.618092,58.2001711 165.592917,58.2968104 L166.817963,55.7829702 L167.702334,55.7829702 L167.702334,59.1243352 L166.925565,59.1243352 Z" id="Fill-83" fill="#184E82" sketch:type="MSShapeGroup"></path>
                    <path d="M171.548741,59.1243352 L170.658279,59.1243352 L169.843342,57.6398255 L169.483178,57.6398255 L169.483178,59.1243352 L168.675143,59.1243352 L168.675143,55.7829702 L169.483178,55.7829702 L169.483178,57.1030307 L169.862426,57.1030307 L170.639195,55.7829702 L171.447635,55.7829702 L170.506823,57.3304173 L171.548741,59.1243352 Z" id="Fill-85" fill="#184E82" sketch:type="MSShapeGroup"></path>
                    <path d="M172.60349,57.4505667 C172.60349,57.8464631 172.663585,58.1375991 172.783369,58.3251931 C172.903559,58.512381 173.083844,58.606584 173.323413,58.606584 C173.563387,58.606584 173.743672,58.5115689 173.863862,58.3219447 C173.983646,58.1327266 174.043741,57.8419965 174.043741,57.4505667 C174.043741,57.0587309 173.983646,56.769219 173.863862,56.5816251 C173.743672,56.3944371 173.565823,56.3010462 173.329909,56.3010462 C172.845901,56.3010462 172.60349,56.683949 172.60349,57.4505667 M174.482678,56.1585235 C174.75879,56.4723983 174.896035,56.9028086 174.896035,57.4505667 C174.896035,57.7997676 174.833097,58.1083637 174.707222,58.375543 C174.580536,58.6435343 174.399438,58.8506186 174.163931,58.9980138 C173.928017,59.1454091 173.647844,59.2189037 173.323413,59.2189037 C172.831283,59.2189037 172.445538,59.0621693 172.167801,58.7482946 C171.889659,58.4348259 171.75079,58.0019793 171.75079,57.4505667 C171.75079,57.1009598 171.814134,56.7935819 171.940415,56.5284328 C172.066695,56.2628778 172.249011,56.0566056 172.486955,55.9092104 C172.724492,55.7618151 173.005477,55.6883205 173.329909,55.6883205 C173.822851,55.6883205 174.206566,55.8450549 174.482678,56.1585235" id="Fill-87" fill="#184E82" sketch:type="MSShapeGroup"></path>
                    <path d="M177.400739,58.4609348 C177.52905,58.3935309 177.593611,58.2672501 177.593611,58.0820924 C177.593611,57.9050557 177.538795,57.7799931 177.428756,57.7064985 C177.319529,57.6325978 177.166043,57.5956475 176.968298,57.5956475 L176.462363,57.5956475 L176.462363,58.5620406 L176.892367,58.5620406 C177.1027,58.5620406 177.272428,58.5283387 177.400739,58.4609348 M176.462363,56.2694963 L176.462363,57.1156994 L176.917542,57.1156994 C177.283797,57.1156994 177.466924,56.9662739 177.466924,56.6670168 C177.466924,56.3807533 177.269179,56.2374186 176.873283,56.2374186 C176.755123,56.2374186 176.618285,56.2483819 176.462363,56.2694963 M178.221767,57.5513883 C178.362665,57.6906626 178.433317,57.881911 178.433317,58.1263516 C178.433317,58.4633711 178.300946,58.7134963 178.035391,58.8779456 C177.770242,59.0423948 177.416575,59.1244164 176.974389,59.1244164 L175.654328,59.1244164 L175.654328,55.8208138 C176.105041,55.7322955 176.511089,55.6884423 176.873283,55.6884423 C177.306942,55.6884423 177.648022,55.7639672 177.896523,55.9154229 C178.145024,56.0668786 178.269274,56.2865503 178.269274,56.5728138 C178.269274,56.7579715 178.214458,56.9114575 178.104825,57.0332717 C177.995598,57.155492 177.818562,57.2440104 177.574527,57.2988268 C177.865257,57.3284683 178.080868,57.4125201 178.221767,57.5513883" id="Fill-89" fill="#184E82" sketch:type="MSShapeGroup"></path>
                </g>
            </g>
        </g>
    </g>
</svg>