<?xml version="1.0" encoding="UTF-8" standalone="no"?>
<svg width="228px" height="74px" viewBox="0 0 228 74" version="1.1" xmlns="http://www.w3.org/2000/svg" xmlns:xlink="http://www.w3.org/1999/xlink" xmlns:sketch="http://www.bohemiancoding.com/sketch/ns">
    <!-- Generator: sketchtool 3.5.1 (25234) - http://www.bohemiancoding.com/sketch -->
    <title>vs logo eng big</title>
    <desc>Created with sketchtool.</desc>
    <defs>
        <path id="path-1" d="M0,0.321625532 L227.868051,0.321625532 L227.868051,71.3106383 L0,71.3106383"></path>
        <path id="path-3" d="M0,0.321625532 L227.868051,0.321625532 L227.868051,71.3106383 L0,71.3106383 L0,0.321625532 Z"></path>
        <path id="path-5" d="M0,0.321625532 L227.868051,0.321625532 L227.868051,71.3106383 L0,71.3106383 L0,0.321625532 Z"></path>
        <path id="path-7" d="M0,0.321625532 L227.868051,0.321625532 L227.868051,71.3106383 L0,71.3106383"></path>
        <path id="path-9" d="M0,0.321625532 L227.868051,0.321625532 L227.868051,71.3106383 L0,71.3106383 L0,0.321625532 Z"></path>
        <path id="path-11" d="M0,0.321625532 L227.868051,0.321625532 L227.868051,71.3106383 L0,71.3106383"></path>
        <path id="path-13" d="M0,0.321625532 L227.868051,0.321625532 L227.868051,71.3106383 L0,71.3106383"></path>
        <path id="path-15" d="M0,0.321625532 L227.868051,0.321625532 L227.868051,71.3106383 L0,71.3106383"></path>
    </defs>
    <g id="elements" stroke="none" stroke-width="1" fill="none" fill-rule="evenodd" sketch:type="MSPage">
        <g id="elements---iconset" sketch:type="MSArtboardGroup" transform="translate(-16.000000, -363.000000)">
            <g id="logo-en" sketch:type="MSLayerGroup" transform="translate(16.000000, 258.000000)">
                <g id="Page-1" transform="translate(0.000000, 106.000000)">
                    <path d="M186.39422,32.2373081 C186.877386,31.4330017 187.787446,30.1833677 188.039701,29.916074 L188.038246,29.916074 C187.62154,29.8675634 187.502689,29.6002698 187.477463,29.4741421 C187.299429,29.60124 186.656178,30.0717932 186.39422,30.4040911 C186.088603,30.7916911 185.493378,31.4815123 185.191157,31.9161677 C185.002935,32.1863719 184.822476,32.4822868 184.698774,32.7127123 C184.656569,32.8621251 184.622127,33.0095974 184.600782,33.1522187 C184.555667,33.4495889 184.668212,33.7270698 185.006331,33.7023294 C185.335233,33.678074 185.59622,33.4374613 185.798995,33.2012145 C185.877097,33.1104996 185.959565,33.0134783 186.042033,32.9130613 C186.104612,32.7563719 186.213761,32.538074 186.39422,32.2373081" id="Fill-1" fill="#008CCF" sketch:type="MSShapeGroup"></path>
                    <path d="M188.43322,31.5638349 L188.43322,31.5638349 C188.516658,31.3508732 188.824215,30.7153838 189.082777,30.5266774 C189.054156,30.5169753 189.024564,30.5067881 188.993032,30.4956306 C188.716037,30.3947285 188.722343,29.8780902 188.747569,29.8024136 C188.767943,29.7412902 188.68499,29.890703 188.395381,29.9198094 C188.209586,30.1162774 187.848666,30.5164902 187.670147,30.839086 C187.424683,31.2829583 187.093841,31.8122094 186.7727,32.3036221 C186.45156,32.7945498 186.254607,33.196703 186.154675,33.2461838 L186.153705,33.2461838 C186.149339,33.2554009 186.145458,33.2646179 186.140607,33.2738349 C186.053773,33.4479881 185.862156,33.766703 185.979066,33.9660817 C186.207551,34.3561072 186.698479,33.9073838 186.881849,33.7225583 C187.430505,33.1709923 187.855943,32.4758349 188.269739,31.8223966 C188.324071,31.7365328 188.378403,31.6501838 188.43322,31.5638349" id="Fill-3" fill="#008CCF" sketch:type="MSShapeGroup"></path>
                    <path d="M186.396889,29.9854928 C186.630225,29.7793226 186.913527,29.480497 187.107084,29.3286587 C187.097382,29.3310843 187.08768,29.3335098 187.077008,29.3364204 C186.932931,29.3761991 186.79128,29.320897 186.674854,29.2321226 L186.67534,29.2326077 C186.67534,29.2326077 185.905476,29.7521566 185.376225,30.1489736 C184.847459,30.5457906 183.666225,31.5567523 183.486735,31.8027013 C183.307246,32.0481651 182.881808,32.3130332 182.777995,32.7239183 C182.68631,33.0862928 183.078276,33.1217055 183.172871,33.1251013 C183.193731,33.1251013 183.215076,33.1251013 183.237391,33.123646 C183.459569,33.1090928 183.680293,33.032446 183.892769,32.9271779 C183.89374,32.9266928 184.724727,32.1805991 185.055084,31.6799694 C185.385927,31.1788545 186.047127,30.2945055 186.396889,29.9854928" id="Fill-5" fill="#008CCF" sketch:type="MSShapeGroup"></path>
                    <path d="M227.623121,2.89448426 C227.547444,2.90903745 227.474678,2.93523319 227.404338,2.96870553 C227.328661,3.01673106 227.188466,3.13994809 226.95707,3.4601183 C226.57141,3.99325021 224.794951,5.11481617 223.88198,5.49271404 C223.173725,5.78523319 222.868108,5.92639915 222.765751,5.97490979 C222.828329,5.99868 223.145589,6.13742043 223.226117,6.55461191 C223.500687,6.42169277 224.718304,5.8313183 225.17964,5.60574383 C225.654074,5.37289277 226.672797,4.71023745 227.05118,4.34010128 C227.37038,3.95298638 227.609053,3.46351404 227.724023,2.99538638 C227.739546,2.93135234 227.684244,2.8823566 227.623121,2.89448426" id="Fill-7" fill="#008CCF" sketch:type="MSShapeGroup"></path>
                    <g id="Group-11">
                        <mask id="mask-2" sketch:name="Clip 10" fill="white">
                            <use xlink:href="#path-1"></use>
                        </mask>
                        <g id="Clip-10"></g>
                        <path d="M223.062054,5.33670383 C223.033917,5.38666979 223.003356,5.43372511 222.972794,5.47738468 C223.322556,5.32457617 224.477594,4.8021166 225.380862,4.20009957 C226.458283,3.48165702 227.094743,2.82045702 227.302369,2.49301021 C227.342147,2.43043149 227.379986,2.38095064 227.415883,2.34262723 C227.663773,1.77262723 227.956292,1.04351234 227.842777,0.42257617 C227.826283,0.330405957 227.710343,0.298388936 227.636122,0.338652766 C227.21893,0.56616766 227.017126,0.962984681 226.772147,1.35252511 C226.340403,2.03943574 225.672411,2.56965702 225.070879,3.09890809 C224.408224,3.68152085 223.698513,4.18554638 222.966973,4.65755489 C223.040709,4.84238043 223.150828,5.17661872 223.062054,5.33670383" id="Fill-9" fill="#008CCF" sketch:type="MSShapeGroup" mask="url(#mask-2)"></path>
                    </g>
                    <path d="M227.453625,4.79464596 C227.286748,4.74468 227.167412,4.7519566 227.04565,4.80095234 C227.04468,4.80192255 227.044195,4.80240766 227.043225,4.80337787 C226.924374,4.94502894 226.281608,5.41170128 225.727616,5.72653532 C225.17314,6.04136936 224.158782,6.5764417 223.881786,6.70256936 C223.681923,6.79328426 223.400561,6.91019489 223.259395,6.96840766 C223.311301,7.27014383 223.293352,7.30749702 223.163829,7.4962034 C223.012476,7.71692681 222.962025,7.77999064 222.962025,7.77999064 C222.962025,7.77999064 222.96445,7.78193106 222.967361,7.7848417 C223.142969,7.73633106 223.768271,7.55538638 224.303829,7.32010979 C224.924765,7.04699489 226.070586,6.57256085 226.763803,6.07290128 C227.079608,5.74788 227.340595,5.36416085 227.52542,4.92077362 C227.54725,4.86838213 227.502135,4.80919915 227.453625,4.79464596" id="Fill-12" fill="#008CCF" sketch:type="MSShapeGroup"></path>
                    <path d="M184.900384,30.0982315 C185.183686,29.8527677 186.470188,29.038274 186.470188,29.038274 L186.473584,29.0411847 C186.423618,28.9912187 186.380929,28.9368868 186.349397,28.8854655 C186.253346,28.7312017 186.324656,28.568206 186.349397,28.5216357 L186.166026,28.6215677 L185.232682,29.17944 L184.466214,29.6883166 C184.433226,29.722274 184.399269,29.7547762 184.366282,29.7882485 C184.011184,30.0419591 183.655116,30.2946996 183.310205,30.5634485 C183.058435,30.7599166 182.820733,30.9728783 182.574784,31.1761379 C182.442835,31.245023 182.312826,31.3163336 182.187184,31.3944357 C181.975677,31.5254145 181.728273,31.6893804 181.555575,31.8965209 C181.318358,32.0692187 181.126741,32.2797549 181.065133,32.5732443 C181.039422,32.6930655 181.134503,32.7716528 181.247533,32.7556443 C181.552665,32.7129549 181.849065,32.6067166 182.138188,32.4737974 C182.664043,32.043023 182.935218,31.7800953 183.284494,31.4429464 C183.634256,31.1062826 184.617082,30.3436953 184.900384,30.0982315" id="Fill-14" fill="#008CCF" sketch:type="MSShapeGroup"></path>
                    <path d="M225.931409,9.00726128 C225.859614,8.93934638 225.77569,8.89229106 225.684975,8.85833362 C225.498209,8.83310809 225.20375,8.8340783 224.770065,8.93692085 C223.894448,9.14503149 223.322992,9.18432511 223.151265,9.18286979 C223.08238,9.18189957 222.81169,9.16298043 222.765605,9.16298043 C222.726311,9.21925277 222.896584,9.28183149 222.852439,9.31239319 C222.978082,9.57144 222.847588,9.91829106 222.60358,10.0589719 C222.602609,10.0599421 222.601639,10.0599421 222.600669,10.0604272 C222.595333,10.0681889 222.590482,10.0759506 222.584175,10.0837123 C222.577869,10.0905038 222.573018,10.0963251 222.567197,10.1021464 C222.589026,10.1166996 222.610856,10.1297974 222.630746,10.1467762 C222.702541,10.182674 222.760269,10.246223 222.782099,10.328206 C222.798107,10.3902996 222.806839,10.447057 222.807809,10.5047847 C222.808294,10.5057549 222.808294,10.5057549 222.809265,10.50624 C222.83546,10.5343762 222.85535,10.5659081 222.869418,10.5993804 C223.482592,10.5639677 224.337835,10.5169123 225.217818,10.132223 C225.532652,9.99445277 226.410209,9.46132085 225.931409,9.00726128" id="Fill-16" fill="#008CCF" sketch:type="MSShapeGroup"></path>
                    <path d="M226.801884,6.89641787 C226.64471,6.79503064 226.416225,6.78290298 226.16688,6.81492 C225.990786,6.87895404 225.814693,6.96336255 225.703118,7.06863064 C225.406233,7.34853702 224.026591,7.81472426 223.812659,7.90301362 C223.647723,7.97092851 223.264489,8.03447745 223.095671,8.06067319 C223.170378,8.17467319 223.239748,8.33330298 223.188812,8.48902213 C223.154369,8.59526043 223.116046,8.69373702 223.074327,8.78008596 C223.425059,8.75097957 224.593195,8.55693702 224.895901,8.50794128 C225.11808,8.4715583 225.393135,8.35367745 225.647816,8.30128596 C225.728829,8.26296255 225.810327,8.22512426 225.889884,8.18680085 C226.161544,8.05582213 227.459689,7.31943064 226.801884,6.89641787" id="Fill-18" fill="#008CCF" sketch:type="MSShapeGroup"></path>
                    <path d="M190.342016,31.1822017 C190.046101,31.0939123 190.046101,30.7097081 190.014569,30.5898868 C189.983037,30.4705506 189.850603,30.5336145 189.762314,30.577274 C189.69828,30.6097762 189.589616,30.60444 189.428076,30.5602953 C189.300493,30.7266868 189.013795,31.1220485 188.897369,31.4625932 C188.801318,31.7429847 188.615037,32.22324 188.474357,32.5031464 C188.363752,32.788874 188.203182,33.0518017 188.093548,33.3389847 C187.957718,33.6931123 187.922306,34.1321336 188.426331,34.0467549 C189.114212,33.9298443 189.655591,32.9766102 190.054348,32.4900485 C190.392467,32.0762528 190.687897,31.6139464 190.930935,31.1254443 C190.926569,31.0856655 190.921233,31.0439464 190.915412,31.005623 C190.896493,30.8862868 190.637931,31.2704911 190.342016,31.1822017" id="Fill-20" fill="#008CCF" sketch:type="MSShapeGroup"></path>
                    <path d="M206.190151,27.0236272 C206.188695,27.009074 206.1853,26.995006 206.180934,26.981423 C206.098466,26.6248698 205.869495,26.014606 205.677393,25.6085719 C205.411555,25.0463336 204.858534,24.341474 204.289989,23.8917804 C203.635095,23.3741719 203.24701,22.7488698 202.960312,22.2720102 C202.6969,21.8339591 202.924414,22.2191336 202.775002,21.9809464 C202.436883,21.4628528 202.051708,21.6957038 201.707768,21.8620953 C199.690695,22.8032017 198.00204,23.1723677 195.897649,23.8665549 C194.90124,24.1949719 193.939274,24.6063421 192.968576,25.0002485 C192.932678,25.0148017 192.896295,25.0288698 192.859427,25.043423 L189.152729,27.072623 C189.163887,27.0847506 189.175529,27.0963932 189.186687,27.1085209 C189.053283,27.095423 188.925214,27.1880783 188.877189,27.3108102 C188.858755,27.291406 188.839836,27.2724868 188.822857,27.2535677 L187.139053,28.1752698 C187.036695,28.3295336 186.997402,28.4052102 187.211334,28.7020953 C187.437878,29.0169294 187.94821,28.6831762 188.041351,28.7020953 C188.134006,28.7210145 188.030193,28.7777719 187.986049,28.9223336 C187.941904,29.0673804 188.054449,29.3084783 188.35764,29.3948272 C188.660831,29.4816613 189.06347,29.1367506 189.186687,29.1556698 C189.310389,29.1745889 189.258483,29.3191506 189.208031,29.4515847 C189.15758,29.5840187 189.193478,29.8469464 189.354534,29.9745294 C189.516074,30.1025974 190.020585,29.9493038 190.127793,29.88624 C190.235002,29.8231762 190.228695,29.88624 190.216083,30.0375932 C190.20347,30.1884613 190.121487,30.3082826 190.310678,30.529006 C190.499385,30.7492443 190.858363,30.4848613 190.927734,30.3713464 C190.997104,30.2578315 191.098006,30.2956698 191.123231,30.3461209 C191.148457,30.3965719 191.034942,30.5847932 191.079087,30.7681634 C191.080057,30.7734996 191.082968,30.7788357 191.084423,30.7841719 C191.192117,30.9612357 191.393921,30.9884017 191.578261,30.88944 C191.792193,30.77544 191.949853,30.5784868 192.086653,30.3592187 C192.109938,30.4266485 192.158934,30.4829209 192.220057,30.5134826 C192.319019,30.6061379 192.448057,30.6609549 192.588738,30.6236017 C192.809946,30.5653889 192.988951,30.4057889 193.141759,30.2107762 C193.158253,30.241823 193.175231,30.2718996 193.194636,30.301006 C193.293112,30.4475081 193.448831,30.5076613 193.617649,30.4649719 C193.818483,30.415006 193.978083,30.2064102 194.094023,30.050206 C194.183283,29.9303847 194.265751,29.8066826 194.345793,29.6815251 C194.281759,29.9793804 194.266236,30.2893634 194.468525,30.5377379 C194.512185,30.5910996 194.615027,30.5901294 194.658687,30.5377379 C194.8309,30.3320528 194.988074,30.0977464 195.127785,29.8508272 C195.102559,30.0662145 195.117597,30.2752953 195.246636,30.4295591 C195.415453,30.6328187 195.671104,30.6997634 195.859325,30.4809804 C195.981572,30.3388443 196.049002,30.1501379 196.093631,29.9570655 C196.114491,30.0157634 196.139717,30.073006 196.168823,30.1287932 C196.177555,30.1477123 196.187257,30.1661464 196.198414,30.1836102 C196.206661,30.1971932 196.212968,30.2117464 196.221214,30.2253294 C196.245955,30.2641379 196.280397,30.2937294 196.319206,30.3145889 C196.333759,30.3267166 196.349283,30.3388443 196.365776,30.3509719 C196.590866,30.5159081 196.830508,30.3863847 196.967308,30.1850655 C197.031342,30.0904698 197.075972,29.981806 197.109929,29.867806 C197.121572,29.8809038 197.13467,29.8925464 197.148738,29.9032187 C197.182695,29.9779251 197.235087,30.0468102 197.31804,30.1059932 C197.506746,30.2408528 197.665861,30.0157634 197.72844,29.8682911 C197.780346,29.7455591 197.814789,29.617006 197.840985,29.4855421 C197.869121,29.507857 197.898712,29.5292017 197.9317,29.5500613 C198.045214,29.6223421 198.328031,29.5995421 198.402253,29.6790996 C198.525955,29.8120187 198.75347,29.6562996 198.832542,29.5456953 C198.91404,29.4316953 198.964976,29.29344 198.996023,29.1440272 C199.004755,29.1503336 199.013972,29.15664 199.022704,29.1619762 C199.105172,29.2939251 199.223053,29.4016187 199.37101,29.462257 C199.650431,29.5767421 199.927912,29.1663421 200.089938,28.8995336 C200.338312,29.1120102 200.570193,29.1464528 200.728338,28.8825549 C200.742406,28.8946826 200.755504,28.9077804 200.770542,28.919423 C200.815172,28.9592017 200.889393,28.9800613 200.942755,28.9417379 C201.074704,28.8461719 201.185793,28.7510911 201.293002,28.6375762 L201.33278,28.6695932 C201.399725,28.7229549 201.510329,28.7292613 201.555444,28.6409719 C201.597649,28.5575336 201.646159,28.4804017 201.694185,28.4022996 C201.69758,28.4047251 201.701461,28.4076357 201.704857,28.4105464 C201.738814,28.4357719 201.781019,28.4357719 201.818857,28.4217038 C201.915393,28.4721549 202.029878,28.4905889 202.156491,28.4706996 C202.356355,28.4391677 202.505768,28.2727762 202.562525,28.0855251 C202.65421,28.1553804 202.763844,28.1985549 202.878329,28.189823 C203.025317,28.1781804 203.131555,28.1015336 203.197529,27.9943251 C203.2213,28.0016017 203.246525,28.0069379 203.275146,28.007423 C203.441053,28.0083932 203.608414,28.0268272 203.77141,27.9836528 C203.955751,27.9351421 204.060049,27.784274 204.063929,27.6120613 C204.06781,27.610606 204.071206,27.6086655 204.074602,27.6072102 C204.122142,27.6693038 204.189572,27.7105379 204.287563,27.7105379 C204.469963,27.7105379 204.575231,27.5465719 204.608704,27.3869719 C204.614525,27.3588357 204.615495,27.3311847 204.613555,27.3040187 C204.630534,27.2860698 204.647512,27.2676357 204.663521,27.2492017 C204.701844,27.2705464 204.735317,27.2923762 204.753266,27.30984 C204.828942,27.3811506 204.938091,27.3961889 205.031717,27.3530145 C205.136985,27.3040187 205.157359,27.2244613 205.188406,27.1254996 C205.200049,27.1269549 205.211206,27.1298655 205.222363,27.1327762 C205.310653,27.1808017 205.41204,27.1992357 205.505666,27.1618826 C205.5469,27.145874 205.582797,27.1216187 205.610934,27.0920272 C205.676908,27.1536357 205.753555,27.1997209 205.839419,27.237074 C205.860278,27.2477464 205.882108,27.2574485 205.905878,27.2632698 C206.025214,27.2918911 206.149887,27.2273719 206.183359,27.1060953 C206.188695,27.086206 206.190636,27.0668017 206.190636,27.0478826 C206.192091,27.0473974 206.193546,27.0459421 206.193546,27.0459421 C206.193546,27.0391506 206.191606,27.0309038 206.190151,27.0236272" id="Fill-22" fill="#008CCF" sketch:type="MSShapeGroup"></path>
                    <path d="M212.180487,28.8475302 C212.282844,28.9629855 212.261014,29.2511387 212.261014,29.2511387 L212.21978,29.2142706 C212.178546,29.1769174 212.180487,29.07456 212.005849,29.0527302 C211.83121,29.0309004 211.794342,29.1288919 211.798708,29.3777515 C211.803074,29.6266111 211.931627,29.7027728 211.864197,29.7051983 C211.796283,29.7071387 211.672095,29.5392919 211.574104,29.3321515 C211.475627,29.124526 211.403831,29.0483643 211.303414,29.0003387 C211.202997,28.9523132 211.248597,29.2380409 211.248597,29.2380409 C211.181168,29.1837089 211.057466,29.0464238 210.996342,28.7975643 C210.935219,28.5491898 210.858087,28.1727472 210.78144,28.0179983 C210.705278,27.8627643 210.549559,27.5236749 210.421006,27.2767557 C210.292453,27.0303217 210.060087,26.4773004 209.894666,26.4578962 C209.683644,26.4331557 209.701593,26.1784749 209.719057,26.0387643 C209.736521,25.8990536 209.62058,25.6380664 209.62058,25.6380664 C209.710325,25.4610026 209.764657,25.6206026 209.952393,25.8214366 C210.140129,26.0217855 210.159534,26.1770196 210.225023,26.3904664 C210.290512,26.6043983 210.467576,26.8644153 210.589823,27.1346196 C210.71207,27.4053089 211.041457,27.6910366 211.312146,27.9093345 C211.582351,28.1276323 212.078129,28.7320749 212.180487,28.8475302 L212.180487,28.8475302 Z M209.826266,29.7837855 C209.826266,29.7837855 209.708385,29.7619557 209.581772,29.7532238 C209.455159,29.7444919 209.376572,29.8623728 209.396461,30.1306366 C209.415866,30.3993855 209.538112,30.6695898 209.514342,30.7200409 C209.490087,30.7700068 209.409559,30.6501855 209.306717,30.5347302 C209.204359,30.4187898 209.110249,30.346994 209.027295,30.3862877 C208.944827,30.4255813 209.029721,30.6807472 209.029721,30.6807472 C209.029721,30.6807472 208.946768,30.606526 208.879338,30.4954366 C208.811423,30.3838621 208.628053,29.4107387 208.565474,29.2647217 C208.502895,29.1182196 208.442742,29.1075472 208.45584,28.9460068 C208.468938,28.7844664 208.371917,28.5831472 208.295755,28.1446111 C208.219108,27.7060749 208.036708,27.3616494 207.946963,27.254926 C207.857704,27.1482026 207.979951,26.9648323 207.933866,26.9056494 C207.888266,26.8469515 207.766019,26.6330196 207.766019,26.6330196 C207.735942,26.5811132 207.820351,26.5088323 207.820351,26.5088323 C207.820351,26.5088323 207.938231,26.5874196 207.986257,26.6572749 C208.034283,26.7271302 208.22881,26.8469515 208.298666,26.9691983 C208.368521,27.0914451 208.344266,27.3116834 208.316129,27.396577 C208.287508,27.4819557 208.483491,27.961726 208.54898,28.2324153 C208.61447,28.5026196 208.693542,28.6035217 208.793474,28.6500919 C208.893891,28.6971472 208.859449,28.8654791 208.916206,28.9217515 C208.972963,28.9785089 209.049125,28.9634706 209.271789,29.1686706 C209.494453,29.3733855 209.679763,29.6203047 209.679763,29.6203047 L209.884963,29.794943 L209.826266,29.7837855 Z M203.366104,19.04256 C203.228334,19.04256 203.116274,18.9305004 203.116274,18.7927302 C203.116274,18.65496 203.228334,18.5429004 203.366104,18.5429004 C203.504359,18.5429004 203.615934,18.65496 203.615934,18.7927302 C203.615934,18.9305004 203.504359,19.04256 203.366104,19.04256 L203.366104,19.04256 Z M222.025236,8.83446638 C222.327457,8.91014298 222.668002,8.55067915 222.623857,8.05344511 C222.579712,7.55572596 221.867576,7.8327217 221.867576,7.8327217 C221.867576,7.8327217 221.730291,7.75704511 221.837014,7.72551319 C221.943253,7.69446638 222.822266,7.70562383 222.699534,6.81254298 C222.576317,5.91897702 222.0427,6.45696 221.993704,6.37788766 C221.944708,6.29881532 222.655389,5.88016851 222.54818,5.40136851 C222.520044,5.27475574 222.490453,5.17918979 222.463287,5.10642383 C221.757457,5.55611745 221.033678,5.97961532 220.313295,6.4186366 C220.235678,6.46617702 220.156606,6.51420255 220.078019,6.56222809 C220.078504,6.5631983 220.079474,6.56465362 220.079959,6.56562383 C220.056189,6.5782366 220.033389,6.59327489 220.013014,6.61219404 C220.008649,6.61656 220.004283,6.62044085 219.999431,6.62480681 C219.978087,6.63936 219.955287,6.65197277 219.932487,6.66458553 C219.909202,6.6771983 219.884946,6.68835574 219.861176,6.69951319 C219.85778,6.70096851 219.8539,6.70242383 219.850504,6.70436426 C219.843227,6.70727489 219.83498,6.71067064 219.830129,6.71261106 C219.782589,6.73201532 219.74087,6.75918128 219.705942,6.79216851 C219.085976,7.18073872 218.464555,7.59987064 217.919295,8.08934298 C216.953449,8.71804085 215.903678,9.20411745 215.041159,9.9836834 C213.855074,11.0547983 212.964904,12.4606366 211.958793,13.6928068 C211.406742,14.36856 210.842563,15.0229685 210.30361,15.6987217 C210.063483,15.9572834 209.833057,16.2279728 209.614274,16.5044834 C209.591959,16.5054536 209.570129,16.5151557 209.554606,16.5403813 C209.525985,16.5869515 209.495423,16.6315813 209.465346,16.6766962 C209.43721,16.7087132 209.409074,16.7412153 209.380938,16.7732323 C208.939006,17.1254196 208.536853,17.5295132 208.126453,17.916143 C207.822776,18.2013855 207.508912,18.476926 207.198929,18.7568323 C206.956861,18.9212834 206.714793,19.0629345 206.440223,19.1614111 C206.004597,19.1196919 205.460793,19.0173345 204.938819,18.7772068 C203.80658,18.2566877 203.163814,18.012194 202.582172,18.2872494 C202.000529,18.5627898 201.755551,19.1138706 201.755551,19.1138706 C201.755551,19.1138706 200.990538,19.0988323 200.852768,19.343326 C200.714997,19.5883047 200.730036,19.7415983 200.730036,19.7415983 C200.730036,19.7415983 202.247449,19.5194196 202.738376,21.0358621 C202.742742,21.044594 202.747108,21.0518706 202.751474,21.0615728 C202.883423,21.3477855 203.514546,22.0924238 203.855091,22.6197345 C204.163619,23.0970791 205.224061,23.821343 205.815891,24.7304323 C206.342717,25.5400749 206.713823,26.8556834 206.788529,27.1346196 C206.880214,27.4547898 206.81521,27.8060068 206.81521,27.8060068 C206.735653,28.29936 206.653185,28.791743 206.574597,29.2850962 C206.488734,29.8259898 206.431491,30.3693089 206.353389,30.9111728 C206.322827,31.1207387 206.294691,31.3341855 206.311185,31.5408409 C206.263644,31.7596238 206.28887,31.9754962 206.475636,32.1598366 C206.760393,32.4402281 207.075712,32.1976749 207.280427,31.8935132 C207.295466,32.1782706 207.472529,32.430526 207.814529,32.4974706 C207.852368,32.5047472 207.889721,32.5091132 207.926104,32.5115387 C208.134214,32.5590791 208.34184,32.5144494 208.47767,32.3218621 C208.484946,32.3111898 208.490768,32.3000323 208.497559,32.28936 C208.539278,32.2471557 208.577602,32.2010706 208.611559,32.1506196 C208.636785,32.1947643 208.666376,32.2359983 208.699849,32.2733515 C208.759031,32.5008664 208.960351,32.6740494 209.23104,32.6381515 C209.45807,32.6080749 209.605542,32.4712749 209.6851,32.293726 C209.805891,32.5498621 210.020308,32.8389855 210.321074,32.718194 C210.350666,32.7351728 210.387049,32.740994 210.425857,32.7230451 C210.523849,32.67696 210.605831,32.6100153 210.674717,32.5319132 C210.867789,32.3907472 210.954138,32.1918536 210.98761,31.9667643 C211.024478,31.988594 211.067168,32.0007217 211.110827,32.002177 C211.118104,32.0230366 211.124895,32.0443813 211.133627,32.0647557 C211.223857,32.2752919 211.391219,32.4693345 211.611457,32.5469515 C211.876325,32.6400919 211.996631,32.4082111 212.051449,32.1462536 C212.053874,32.1399472 212.055329,32.1336409 212.05727,32.1273345 C212.070368,32.1215132 212.08201,32.1152068 212.093168,32.1079302 C212.100444,32.156926 212.121789,32.2034962 212.161083,32.2432749 C212.223176,32.3048834 212.311466,32.3267132 212.392478,32.3087643 C212.452631,32.3436919 212.527338,32.3563047 212.591372,32.3383557 C212.731568,32.3000323 212.78978,32.1651728 212.76601,32.0312834 C212.759704,31.997326 212.750002,31.9648238 212.738844,31.9328068 C212.74224,31.915343 212.74418,31.8978791 212.743695,31.8804153 C212.776197,31.8847813 212.809185,31.8823557 212.841202,31.8702281 C212.849934,31.8668323 212.85721,31.8624664 212.865457,31.8590706 C212.8999,31.9240749 212.941619,31.9832579 212.995466,32.0332238 C213.087636,32.1181174 213.254027,32.088526 213.285559,31.956577 C213.302538,31.8867217 213.311755,31.8158962 213.316121,31.7455557 C213.328249,31.7145089 213.332129,31.6800664 213.323883,31.6436834 C213.321942,31.6349515 213.320487,31.6267047 213.318546,31.6184579 C213.317091,31.5680068 213.31321,31.5175557 213.306904,31.4671047 C213.339406,31.4661345 213.371423,31.4554621 213.394708,31.4350877 C213.432546,31.4588579 213.476691,31.472926 213.524231,31.472926 C213.567406,31.472926 213.608155,31.4607983 213.644053,31.4404238 C213.70081,31.4331472 213.756112,31.4074366 213.794436,31.3686281 C213.86138,31.3016834 213.879329,31.208543 213.855074,31.1246196 C213.856529,31.053794 213.852649,30.9834536 213.845857,30.9135983 C213.909406,30.9504664 213.981687,30.971326 214.063185,30.9659898 C214.279542,30.9524068 214.420223,30.7729174 214.492504,30.5846962 C214.560419,30.4076323 214.560419,30.232994 214.523551,30.0632068 C214.576912,30.0704834 214.631729,30.0627217 214.680725,30.0341004 C214.77241,29.9802536 214.831593,29.8570366 214.79521,29.7517685 C214.77338,29.6882196 214.746214,29.6266111 214.720019,29.5650026 C214.718078,29.5601515 214.708861,29.5378366 214.702555,29.5232834 C214.698189,29.5126111 214.694308,29.5014536 214.689942,29.4907813 C214.698674,29.4946621 214.707406,29.4990281 214.716138,29.5024238 C214.736027,29.5412323 214.764163,29.5751898 214.802972,29.5970196 C215.197363,29.8143472 215.581568,29.7100494 215.635414,29.2302791 C215.646087,29.1366536 215.641721,29.0342962 215.627653,28.9295132 C215.646087,28.7335302 215.596121,28.5215387 215.501525,28.3391387 C215.675193,28.34496 215.841585,28.2935387 215.943942,28.1286026 C216.00361,28.0315813 216.028836,27.9311643 216.027866,27.8322026 C216.059397,27.7351813 216.053091,27.6410706 216.015253,27.5556919 C216.117125,27.5450196 216.217057,27.5003898 216.305831,27.4082196 C216.34658,27.3655302 216.378112,27.3184749 216.402368,27.2685089 C216.463006,27.2073855 216.494538,27.13656 216.50521,27.0603983 C216.535772,27.0162536 216.555661,26.9624068 216.552751,26.9143813 C216.542563,26.7310111 216.473193,26.5636494 216.349976,26.4457685 C216.302436,26.3162451 216.184555,26.2129174 216.025925,26.1634366 C216.012342,26.1590706 215.999244,26.1576153 215.986631,26.1576153 C215.920172,26.1095898 215.846921,26.0717515 215.768819,26.0470111 C215.537423,25.9087557 215.273525,25.8224068 215.016904,25.727326 C214.384325,25.4935047 213.790555,25.15296 213.17641,24.8759643 C212.677721,24.65136 212.179031,24.3908579 211.667729,24.1652834 C211.458163,23.7951472 211.571193,23.2397004 212.008274,23.1048409 C212.142163,23.0631217 212.213959,23.0160664 212.329414,22.9394196 C212.544802,22.7967983 212.547712,22.549394 212.8087,22.4184153 C212.99401,22.3247898 213.168649,22.0667132 213.258393,21.8110621 C213.445644,21.760126 213.571287,21.6010111 213.594087,21.3841685 C213.598938,21.3390536 213.595057,21.2915132 213.58778,21.2439728 C213.601363,21.2211728 213.615917,21.1978877 213.633866,21.1741174 C213.645993,21.1581089 213.658606,21.1440409 213.671704,21.130943 C213.836155,21.1867302 214.029227,21.1634451 214.210172,21.0363472 C214.429925,20.8825685 214.552172,20.6516579 214.557508,20.4158962 C214.668112,20.3926111 214.768044,20.3300323 214.834989,20.2131217 C214.890776,20.1156153 214.912121,20.0132579 214.91018,19.9118706 C215.001866,19.8560834 215.104223,19.8216409 215.225014,19.6955132 C215.31864,19.5984919 215.379763,19.5009855 215.418572,19.3971728 C215.482606,19.4102706 215.558768,19.3947472 215.649483,19.334594 C215.975474,19.1172664 216.159329,18.8131047 216.2287,18.4696494 C216.293219,18.4778962 216.36841,18.4643132 216.457185,18.417743 C216.787057,18.2450451 216.953934,17.9767813 217.00681,17.6716494 C217.199883,17.6614621 217.395866,17.5464919 217.529755,17.3655472 C217.648606,17.2044919 217.706334,17.0051132 217.697117,16.8154366 C217.955193,16.7800238 218.177857,16.5685174 218.229763,16.2954026 C218.244317,16.2177855 218.246257,16.1401685 218.23704,16.0654621 C218.416044,16.1338621 218.595534,16.156177 218.789091,16.0426621 C218.98944,15.9247813 219.095193,15.6696153 219.119934,15.449377 C219.12624,15.390194 219.129151,15.32616 219.127695,15.2592153 C219.289721,15.2432068 219.454172,15.157343 219.602129,14.9763983 C219.801023,14.7328749 219.836921,14.3671047 219.761244,14.0192834 C220.048427,13.9659217 220.292921,13.7840068 220.40304,13.4424919 C220.453006,13.2872579 220.461738,13.1286281 220.438453,12.9729089 C220.473866,12.9724238 220.508793,12.9714536 220.541295,12.9690281 C220.555849,12.9680579 220.570402,12.9661174 220.58544,12.9646621 C220.686342,12.9704834 220.793551,12.9554451 220.896878,12.9171217 C220.991474,12.882194 221.067636,12.8084579 221.078308,12.7061004 C221.081704,12.7007643 221.085585,12.6963983 221.08898,12.6910621 C221.165627,12.5542621 221.147193,12.4126111 221.090921,12.2811472 C221.093346,12.2695047 221.093831,12.257377 221.095772,12.2457345 C221.280597,12.2520409 221.464453,12.2277855 221.651704,12.1399813 C221.920453,12.0148238 222.109159,11.7334621 222.026691,11.4385174 C221.981091,11.2755217 221.8603,11.1411472 221.721074,11.0276323 C221.788989,11.0300579 221.856419,11.0300579 221.922393,11.0242366 C222.211031,10.9990111 222.45698,10.7419047 222.405559,10.4450196 C222.383244,10.3184068 222.368206,10.2800834 222.253236,10.2058621 C222.265849,10.205377 222.200359,10.1471643 222.213457,10.1466791 C222.115951,10.0661515 221.976725,9.98707915 221.798691,9.98077277 C221.426614,9.96816 221.45184,9.91770894 221.45184,9.91770894 C221.45184,9.91770894 221.902989,9.8012834 222.050461,9.55873021 C222.197934,9.31617702 221.956836,8.99164085 221.837014,8.94798128 L221.716708,8.9038366 C221.716708,8.9038366 221.723014,8.75878979 222.025236,8.83446638 L222.025236,8.83446638 Z" id="Fill-24" fill="#008CCF" sketch:type="MSShapeGroup"></path>
                    <path d="M97.3655081,34.7480247 C98.5564443,34.7480247 99.7677549,35.1720077 100.99944,36.0199736 L100.99944,38.5032332 L99.909406,38.7453013 L99.2734315,36.3527566 C98.829074,36.0301609 98.2333634,35.8681353 97.4862996,35.8681353 C95.4275081,35.8681353 94.3976272,37.3627481 94.3976272,40.3505183 L94.3976272,43.226714 L98.0621209,43.226714 L97.8501294,44.3172332 L94.3976272,44.3172332 L94.3976272,55.6425268 L96.3962655,56.2785013 L96.1541974,57.3685353 L89.8250145,57.3685353 L89.6135081,56.2785013 L91.5515081,55.6425268 L91.5515081,44.3172332 L89.4922315,44.3172332 L89.28024,43.226714 L91.5515081,42.5005098 L91.5515081,40.9559311 C91.5515081,39.1794715 92.071057,37.7003821 93.11064,36.5196332 C94.1507081,35.3383991 95.5681889,34.7480247 97.3655081,34.7480247" id="Fill-26" fill="#184E82" sketch:type="MSShapeGroup"></path>
                    <path d="M86.7955251,44.7806068 C85.5754826,43.4465643 83.7752528,42.7800281 81.3948357,42.7800281 C78.9945294,42.7800281 77.1894485,43.4310409 75.978623,44.7345217 C74.7687677,46.0370323 74.1633549,47.8988706 74.1633549,50.3200366 C74.1633549,52.6786238 74.7993294,54.5205728 76.0707932,55.843943 C76.4229804,56.2101983 76.817857,56.5201813 77.2466911,56.7855345 C78.277057,57.1605217 79.2841379,56.9393132 80.16024,56.4930153 C79.412206,56.2431855 78.7810826,55.7532281 78.2717209,55.0129557 C77.501857,53.8947855 77.1171677,52.3608791 77.1171677,50.4122068 C77.1171677,48.4426749 77.501857,46.8680196 78.2717209,45.6882409 C79.0406145,44.5084621 80.0821379,43.9185728 81.3948357,43.9185728 C82.6876443,43.9185728 83.7184953,44.5137983 84.4873889,45.7037643 C85.2572528,46.8932451 85.6419421,48.4625643 85.6419421,50.4122068 C85.6419421,52.3405047 85.2572528,53.8690749 84.4873889,54.9974323 C84.4529464,55.0483685 84.414623,55.0925132 84.3787251,55.1410238 C83.087857,57.1285047 79.8390996,57.6242834 79.5761719,57.6616366 C80.1432613,57.7688451 80.7462485,57.8285132 81.3948357,57.8285132 C83.6520357,57.8285132 85.4212187,57.1566409 86.70384,55.8128962 C87.9859762,54.4686664 88.6263166,52.6378749 88.6263166,50.3200366 C88.6263166,47.9604791 88.0165379,46.1136791 86.7955251,44.7806068" id="Fill-28" fill="#184E82" sketch:type="MSShapeGroup"></path>
                    <path d="M113.61109,37.4429847 L113.61109,45.4680996 L117.547243,45.4680996 L118.546563,42.9242017 L119.788435,43.1361932 L119.788435,49.1015464 L118.546563,49.3135379 L117.547243,46.76964 L113.61109,46.76964 L113.61109,55.0974613 L116.245703,56.0967804 L116.033226,57.3687294 L108.039158,57.3687294 L107.796605,56.0967804 L110.400656,55.0974613 L110.400656,38.4423038 L107.766529,37.4429847 L107.97852,36.1710357 L122.332333,36.1710357 L122.332333,40.7135719 L121.059899,40.9561251 L119.788435,37.4429847 L113.61109,37.4429847 Z" id="Fill-30" fill="#184E82" sketch:type="MSShapeGroup"></path>
                    <path d="M132.780457,46.4975923 L131.689938,46.7095838 L131.023887,44.5595923 C130.580014,44.3980519 130.085206,44.3175243 129.539946,44.3175243 C128.873895,44.3175243 127.803266,44.5896689 126.330483,45.1349285 L126.330483,55.6428179 L128.329121,56.2783072 L128.086568,57.3688264 L121.727308,57.3688264 L121.515317,56.2783072 L123.483393,55.6428179 L123.483393,44.3175243 L121.969376,44.3175243 L121.75787,43.2270051 L125.270525,42.8942221 L126.330483,44.0143328 C127.66307,43.267754 128.914159,42.8942221 130.085206,42.8942221 C131.053963,42.8942221 131.95238,43.0659498 132.780457,43.40892 L132.780457,46.4975923 Z" id="Fill-32" fill="#184E82" sketch:type="MSShapeGroup"></path>
                    <path d="M207.219595,47.8599651 L207.219595,55.6425268 L209.218233,56.2785013 L208.97568,57.3685353 L202.616906,57.3685353 L202.404429,56.2785013 L204.372991,55.6425268 L204.372991,47.4063906 C204.372991,46.4570374 204.105212,45.7056077 203.570625,45.1501609 C203.035067,44.594714 202.364165,44.3172332 201.556948,44.3172332 C200.627969,44.3172332 199.598574,44.589863 198.468276,45.1346374 L198.468276,55.6425268 L200.436352,56.2785013 L200.224361,57.3685353 L193.865586,57.3685353 L193.65311,56.2785013 L195.621671,55.6425268 L195.621671,44.3172332 L194.107654,44.3172332 L193.895663,43.226714 L197.287042,42.8939311 L198.468276,44.0145268 C199.780489,43.2679481 201.04225,42.8939311 202.253076,42.8939311 C203.928633,42.8939311 205.19088,43.3484757 206.038846,44.2565949 C207.390837,43.3484757 208.753501,42.8939311 210.126837,42.8939311 C212.024089,42.8939311 213.46728,43.317914 214.456897,44.16588 C215.446029,45.013846 215.940837,46.2455311 215.940837,47.8599651 L215.940837,55.6425268 L217.939476,56.2785013 L217.697408,57.3685353 L211.368225,57.3685353 L211.126157,56.2785013 L213.094233,55.6425268 L213.094233,47.617897 C213.094233,46.5681268 212.786191,45.7555736 212.170591,45.1802374 C211.554991,44.6049013 210.792889,44.3172332 209.884284,44.3172332 C208.81414,44.3172332 207.734293,44.589863 206.644259,45.1346374 C207.027493,45.9423396 207.219595,46.8509438 207.219595,47.8599651" id="Fill-34" fill="#184E82" sketch:type="MSShapeGroup"></path>
                    <path d="M191.175138,44.7806068 C189.955095,43.4465643 188.154866,42.7800281 185.774449,42.7800281 C183.374142,42.7800281 181.569061,43.4310409 180.358236,44.7345217 C179.14838,46.0370323 178.542968,47.8988706 178.542968,50.3200366 C178.542968,52.6786238 179.178942,54.5205728 180.450406,55.843943 C180.802593,56.2101983 181.19747,56.5201813 181.626304,56.7855345 C182.65667,57.1605217 183.663751,56.9393132 184.539853,56.4930153 C183.791819,56.2431855 183.160695,55.7532281 182.651334,55.0129557 C181.88147,53.8947855 181.49678,52.3608791 181.49678,50.4122068 C181.49678,48.4426749 181.88147,46.8680196 182.651334,45.6882409 C183.420227,44.5084621 184.461751,43.9185728 185.774449,43.9185728 C187.067257,43.9185728 188.098108,44.5137983 188.867002,45.7037643 C189.636866,46.8932451 190.021555,48.4625643 190.021555,50.4122068 C190.021555,52.3405047 189.636866,53.8690749 188.867002,54.9974323 C188.832559,55.0483685 188.794236,55.0925132 188.758338,55.1410238 C187.46747,57.1285047 184.218712,57.6242834 183.955785,57.6616366 C184.522874,57.7688451 185.125861,57.8285132 185.774449,57.8285132 C188.031649,57.8285132 189.800831,57.1566409 191.083453,55.8128962 C192.365589,54.4686664 193.005929,52.6378749 193.005929,50.3200366 C193.005929,47.9604791 192.396151,46.1136791 191.175138,44.7806068" id="Fill-36" fill="#184E82" sketch:type="MSShapeGroup"></path>
                    <path d="M152.724442,49.9782306 L161.098833,49.9782306 C161.445684,49.2428094 161.619352,48.4879838 161.619352,47.7113285 C161.619352,46.2613455 161.042076,45.0966051 159.888493,44.2185626 C158.734425,43.34052 157.258246,42.9010136 155.461412,42.9010136 C153.275523,42.9010136 151.493727,43.5704604 150.115054,44.9078987 C148.736382,46.2458221 148.047046,48.0688519 148.047046,50.376503 C148.047046,52.7258732 148.715523,54.5639413 150.053931,55.8911923 C151.391369,57.2194136 153.37788,57.8830391 156.012978,57.8830391 C158.197897,57.8830391 159.954467,57.280537 161.282689,56.0755328 L160.577829,55.064086 C159.127361,55.9833626 157.667191,56.4427583 156.196833,56.4427583 C154.603744,56.4427583 153.388067,55.871303 152.550774,54.7274221 C151.712995,53.5835413 151.294348,52.0515753 151.294348,50.1315243 L151.355957,48.8750987 C151.641684,45.6481711 153.010169,44.0347072 155.461412,44.0347072 C156.52331,44.0347072 157.334893,44.3257711 157.897131,44.9078987 C158.458399,45.4900264 158.739761,46.3428434 158.739761,47.4658647 C158.739761,47.9359328 158.667965,48.4055157 158.525344,48.8750987 L152.722016,48.8750987 L152.724442,49.9782306 Z" id="Fill-38" fill="#184E82" sketch:type="MSShapeGroup"></path>
                    <path d="M137.949217,49.9782306 L146.323609,49.9782306 C146.67046,49.2428094 146.844128,48.4879838 146.844128,47.7113285 C146.844128,46.2613455 146.266851,45.0966051 145.113268,44.2185626 C143.9592,43.34052 142.483021,42.9010136 140.686187,42.9010136 C138.500298,42.9010136 136.718502,43.5704604 135.33983,44.9078987 C133.961157,46.2458221 133.271821,48.0688519 133.271821,50.376503 C133.271821,52.7258732 133.940298,54.5639413 135.278706,55.8911923 C136.616145,57.2194136 138.602655,57.8830391 141.237753,57.8830391 C143.422672,57.8830391 145.179243,57.280537 146.507464,56.0755328 L145.802604,55.064086 C144.352136,55.9833626 142.891966,56.4427583 141.421609,56.4427583 C139.828519,56.4427583 138.612843,55.871303 137.775549,54.7274221 C136.93777,53.5835413 136.519123,52.0515753 136.519123,50.1315243 L136.580732,48.8750987 C136.86646,45.6481711 138.234945,44.0347072 140.686187,44.0347072 C141.748085,44.0347072 142.559668,44.3257711 143.121906,44.9078987 C143.683174,45.4900264 143.964536,46.3428434 143.964536,47.4658647 C143.964536,47.9359328 143.89274,48.4055157 143.750119,48.8750987 L137.946791,48.8750987 L137.949217,49.9782306 Z" id="Fill-40" fill="#184E82" sketch:type="MSShapeGroup"></path>
                    <path d="M176.052286,55.6427209 L176.052286,35.0810017 L174.689622,34.7482187 L171.176482,35.0810017 L171.388958,36.1710357 L173.205682,36.1710357 L173.205682,43.6208145 C172.135537,43.1361932 171.106141,42.8941251 170.117009,42.8941251 C167.916082,42.8941251 166.159997,43.5805506 164.847784,44.9534017 C163.535571,46.3262528 162.879707,48.1429762 162.879707,50.404057 C162.879707,52.7054017 163.474933,54.4973847 164.666354,55.7790357 C165.83352,57.0354613 167.557588,57.672406 169.831282,57.6971464 C171.230814,57.3192485 172.031724,56.4513932 172.483843,55.5723804 C171.78626,56.0419634 171.007665,56.2786953 170.147086,56.2786953 C168.895511,56.2786953 167.901529,55.7082102 167.164652,54.5677251 C166.42729,53.42724 166.059094,51.9384485 166.059094,50.1008655 C166.059094,46.24524 167.472209,44.3174272 170.298924,44.3174272 C171.226933,44.3174272 172.196175,44.5997591 173.205682,45.1649081 L173.205682,54.9766698 C173.19792,54.9844315 173.189673,54.9907379 173.181426,54.9984996 L173.252252,56.290823 C173.257103,56.286457 173.261954,56.2830613 173.266805,56.2786953 L173.545741,56.906423 L173.793631,57.3687294 L177.808856,57.3687294 L178.020848,56.2786953 L176.052286,55.6427209 Z" id="Fill-42" fill="#184E82" sketch:type="MSShapeGroup"></path>
                    <g id="Group-46">
                        <mask id="mask-4" sketch:name="Clip 45" fill="white">
                            <use xlink:href="#path-3"></use>
                        </mask>
                        <g id="Clip-45"></g>
                        <path d="M15.5348043,42.7423353 L15.5348043,40.3808374 L10.5081319,57.3687779 L8.29750213,57.8834757 L2.63437021,38.4724289 L-0.000242553191,37.4735949 L0.212234043,36.1710843 L8.38821702,36.1710843 L8.63028511,37.4735949 L5.99567234,38.4724289 L10.0235106,52.3416204 L10.0235106,54.4620204 L15.4440894,36.1710843 L16.7761915,35.6563864 L21.621434,52.3416204 L21.621434,54.4620204 L26.3754766,38.4724289 L23.7413489,37.4735949 L23.9528553,36.1710843 L30.1006085,36.1710843 L30.3426766,37.4735949 L27.6779872,38.4724289 L22.0759787,57.3687779 L19.8949404,57.8834757 L15.5348043,42.7423353 Z" id="Fill-44" fill="#184E82" sketch:type="MSShapeGroup" mask="url(#mask-4)"></path>
                    </g>
                    <path d="M32.1907864,38.6453694 C32.6550332,38.6453694 33.0484545,38.8069098 33.3715353,39.1299906 C33.6946162,39.4530715 33.8561566,39.8367906 33.8561566,40.280663 C33.8561566,40.7245353 33.6946162,41.1087396 33.3715353,41.4313353 C33.0484545,41.7544162 32.6550332,41.9159566 32.1907864,41.9159566 C31.7464289,41.9159566 31.3627098,41.7544162 31.040114,41.4313353 C30.7165481,41.1087396 30.5554928,40.7245353 30.5554928,40.280663 C30.5554928,39.8367906 30.7165481,39.4530715 31.040114,39.1299906 C31.3627098,38.8069098 31.7464289,38.6453694 32.1907864,38.6453694 L32.1907864,38.6453694 Z M33.7048034,55.6425268 L35.6733651,56.2785013 L35.4308119,57.3685353 L29.102114,57.3685353 L28.8595609,56.2785013 L30.8581991,55.6425268 L30.8581991,44.3172332 L29.3136204,44.3172332 L29.102114,43.226714 L32.3115779,42.8939311 L33.7048034,43.226714 L33.7048034,55.6425268 Z" id="Fill-47" fill="#184E82" sketch:type="MSShapeGroup"></path>
                    <path d="M41.8809319,55.6427209 L43.8795702,56.2786953 L43.637017,57.3687294 L37.2782426,57.3687294 L37.065766,56.2786953 L39.0343277,55.6427209 L39.0343277,44.3174272 L37.5203106,44.3174272 L37.3083191,43.2269081 L40.7904128,42.8941251 L41.8809319,44.0142357 C43.4555872,43.267657 44.7678,42.8941251 45.8170851,42.8941251 C47.4722681,42.8941251 48.744217,43.3234443 49.6329319,44.1811123 C50.5211617,45.0392655 50.9655191,46.2656145 50.9655191,47.8601591 L50.9655191,55.6427209 L52.9335957,56.2786953 L52.7216043,57.3687294 L46.3924213,57.3687294 L46.1503532,56.2786953 L48.1189149,55.6427209 L48.1189149,47.4060996 C48.1189149,46.477606 47.8259106,45.7305421 47.2403872,45.1649081 C46.6548638,44.5997591 45.9485489,44.3174272 45.1209574,44.3174272 C44.1313404,44.3174272 43.0514936,44.5895719 41.8809319,45.1348315 L41.8809319,55.6427209 Z" id="Fill-49" fill="#184E82" sketch:type="MSShapeGroup"></path>
                    <path d="M66.7475821,55.6427209 L66.7475821,35.0810017 L65.3849183,34.7482187 L61.8717779,35.0810017 L62.0842545,36.1710357 L63.9009779,36.1710357 L63.9009779,43.6208145 C62.8308332,43.1361932 61.8014374,42.8941251 60.8123055,42.8941251 C58.6113779,42.8941251 56.8552928,43.5805506 55.54308,44.9534017 C54.2308672,46.3262528 53.5750034,48.1429762 53.5750034,50.404057 C53.5750034,52.7054017 54.1702289,54.4973847 55.3616502,55.7790357 C56.5288162,57.0354613 58.2528843,57.672406 60.5265779,57.6971464 C61.9261098,57.3192485 62.7270204,56.4513932 63.1791396,55.5723804 C62.4815566,56.0419634 61.7029609,56.2786953 60.8423821,56.2786953 C59.5908077,56.2786953 58.5968247,55.7082102 57.8599481,54.5677251 C57.1225864,53.42724 56.7543906,51.9384485 56.7543906,50.1008655 C56.7543906,46.24524 58.1675055,44.3174272 60.9942204,44.3174272 C61.9222289,44.3174272 62.8914715,44.5997591 63.9009779,45.1649081 L63.9009779,54.9766698 C63.8932162,54.9844315 63.8849694,54.9907379 63.8767226,54.9984996 L63.9475481,56.290823 C63.9523991,56.286457 63.9572502,56.2830613 63.9621013,56.2786953 L64.2410374,56.906423 L64.4889268,57.3687294 L68.5041523,57.3687294 L68.7161438,56.2786953 L66.7475821,55.6427209 Z" id="Fill-51" fill="#184E82" sketch:type="MSShapeGroup"></path>
                    <path d="M162.896977,66.062806 L162.896977,71.1797081 L161.735632,71.1797081 L161.735632,66.062806 L160.111496,66.062806 L160.111496,65.1459549 L164.590969,65.1459549 L164.468722,66.062806 L162.896977,66.062806 Z" id="Fill-53" fill="#184E82" sketch:type="MSShapeGroup"></path>
                    <path d="M167.376595,66.4993532 L167.184493,67.5821106 C167.044297,67.547183 166.907982,67.5297191 166.774093,67.5297191 C166.500008,67.5297191 166.285106,67.6272255 166.127931,67.8222383 C165.970757,68.0172511 165.845599,68.3155915 165.752459,68.7172596 L165.752459,71.1796596 L164.634774,71.1796596 L164.634774,66.5604766 L165.604016,66.5604766 L165.708799,67.4685957 C165.819403,67.136783 165.979489,66.8821021 166.189054,66.7045532 C166.39862,66.5270043 166.639718,66.4382298 166.913803,66.4382298 C167.08262,66.4382298 167.236884,66.4586043 167.376595,66.4993532" id="Fill-55" fill="#184E82" sketch:type="MSShapeGroup"></path>
                    <path d="M170.214273,69.9308987 L170.214273,68.9965838 L169.751482,68.9965838 C169.029643,68.9965838 168.668239,69.2643626 168.668239,69.79992 C168.668239,70.0216136 168.724026,70.1928562 168.834146,70.315103 C168.945235,70.4373498 169.108231,70.4984732 169.323618,70.4984732 C169.701516,70.4984732 169.998886,70.3092817 170.214273,69.9308987 M171.396963,70.3543966 C171.45275,70.4388051 171.541039,70.5042945 171.663286,70.5508647 L171.428009,71.2930774 C171.166052,71.2697923 170.95212,71.2057583 170.786214,71.1009753 C170.620307,70.9961923 170.493694,70.8361072 170.406375,70.62072 C170.248716,70.8535711 170.052733,71.026754 169.816971,71.1402689 C169.580724,71.2537838 169.317311,71.3105413 169.026733,71.3105413 C168.566852,71.3105413 168.203022,71.1795626 167.935243,70.9176051 C167.667465,70.6556477 167.533575,70.3121923 167.533575,69.8872391 C167.533575,69.3866094 167.71549,69.0038604 168.07932,68.7389923 C168.44315,68.4741243 168.962699,68.3416902 169.637967,68.3416902 L170.214273,68.3416902 L170.214273,68.0797328 C170.214273,67.7828477 170.145388,67.5752221 170.009073,67.4554009 C169.872273,67.3360647 169.65252,67.2763966 169.349814,67.2763966 C169.011694,67.2763966 168.60469,67.3578945 168.12686,67.5208902 L167.865388,66.7612136 C168.441694,66.5400051 169.000537,66.4294009 169.541431,66.4294009 C170.723635,66.4294009 171.314494,66.9596221 171.314494,68.0186094 L171.314494,69.9570945 C171.314494,70.137554 171.34166,70.2699881 171.396963,70.3543966" id="Fill-57" fill="#184E82" sketch:type="MSShapeGroup"></path>
                    <path d="M173.418643,71.1796596 L171.891043,66.5604766 L173.10478,66.5604766 L174.091486,70.2802723 L175.104388,66.5604766 L176.257001,66.5604766 L174.755111,71.1796596 L173.418643,71.1796596 Z" id="Fill-59" fill="#184E82" sketch:type="MSShapeGroup"></path>
                    <g id="Group-63">
                        <mask id="mask-6" sketch:name="Clip 62" fill="white">
                            <use xlink:href="#path-5"></use>
                        </mask>
                        <g id="Clip-62"></g>
                        <path d="M179.540249,68.4378868 C179.540249,67.6287294 179.240454,67.2241506 178.640862,67.2241506 C178.367262,67.2241506 178.15333,67.3245677 177.999066,67.5254017 C177.844803,67.7262357 177.752632,68.0478613 177.724011,68.4902783 L179.540249,68.4902783 L179.540249,68.4378868 Z M180.622522,69.2150272 L177.724011,69.2150272 C177.758939,69.6632655 177.874879,69.9834357 178.073288,70.1755379 C178.271211,70.36764 178.533169,70.4636911 178.85916,70.4636911 C179.062905,70.4636911 179.255007,70.4302187 179.435466,70.363274 C179.615441,70.2963294 179.808028,70.1930017 180.011773,70.0532911 L180.474564,70.6907209 C179.962292,71.1040315 179.391807,71.3106868 178.762624,71.3106868 C178.058249,71.3106868 177.5159,71.0952996 177.134607,70.6645251 C176.753313,70.2337506 176.562666,69.6458017 176.562666,68.9006783 C176.562666,68.4291549 176.644164,68.005657 176.80716,67.6301847 C176.970156,67.2547123 177.205917,66.9607379 177.514445,66.7482613 C177.822973,66.5357847 178.189713,66.4295464 178.614666,66.4295464 C179.260828,66.4295464 179.761458,66.6347464 180.116071,67.0451464 C180.471654,67.4555464 180.649203,68.0274868 180.649203,68.7609677 C180.649203,68.8191804 180.640471,68.9705336 180.622522,69.2150272 L180.622522,69.2150272 Z" id="Fill-61" fill="#184E82" sketch:type="MSShapeGroup" mask="url(#mask-6)"></path>
                    </g>
                    <g id="Group-66">
                        <mask id="mask-8" sketch:name="Clip 65" fill="white">
                            <use xlink:href="#path-7"></use>
                        </mask>
                        <g id="Clip-65"></g>
                        <path d="M182.814281,70.3283464 C182.85503,70.3836485 182.92246,70.4112996 183.015115,70.4112996 C183.102919,70.4112996 183.189753,70.3967464 183.277072,70.36764 L183.512834,71.1535123 C183.263004,71.2582953 182.997651,71.3106868 182.718715,71.3106868 C182.368953,71.3106868 182.101174,71.2102698 181.914894,71.0094357 C181.729098,70.8086017 181.635472,70.5160826 181.635472,70.1318783 L181.635472,64.7093591 L182.753157,64.5871123 L182.753157,70.0532911 C182.753157,70.1813591 182.773532,70.2730443 182.814281,70.3283464" id="Fill-64" fill="#184E82" sketch:type="MSShapeGroup" mask="url(#mask-8)"></path>
                    </g>
                    <g id="Group-69">
                        <mask id="mask-10" sketch:name="Clip 68" fill="white">
                            <use xlink:href="#path-9"></use>
                        </mask>
                        <g id="Clip-68"></g>
                        <path d="M186.84862,68.4378868 C186.84862,67.6287294 186.548824,67.2241506 185.949232,67.2241506 C185.675632,67.2241506 185.4617,67.3245677 185.307437,67.5254017 C185.153173,67.7262357 185.061003,68.0478613 185.032381,68.4902783 L186.84862,68.4902783 L186.84862,68.4378868 Z M187.930892,69.2150272 L185.032381,69.2150272 C185.067309,69.6632655 185.183249,69.9834357 185.381658,70.1755379 C185.579581,70.36764 185.841539,70.4636911 186.16753,70.4636911 C186.371275,70.4636911 186.563377,70.4302187 186.743837,70.363274 C186.923811,70.2963294 187.116398,70.1930017 187.320143,70.0532911 L187.782934,70.6907209 C187.270662,71.1040315 186.700177,71.3106868 186.070994,71.3106868 C185.36662,71.3106868 184.824271,71.0952996 184.442977,70.6645251 C184.061683,70.2337506 183.871037,69.6458017 183.871037,68.9006783 C183.871037,68.4291549 183.952534,68.005657 184.11553,67.6301847 C184.278526,67.2547123 184.514288,66.9607379 184.822815,66.7482613 C185.131343,66.5357847 185.498083,66.4295464 185.923037,66.4295464 C186.569198,66.4295464 187.069828,66.6347464 187.424441,67.0451464 C187.780024,67.4555464 187.957573,68.0274868 187.957573,68.7609677 C187.957573,68.8191804 187.948841,68.9705336 187.930892,69.2150272 L187.930892,69.2150272 Z" id="Fill-67" fill="#184E82" sketch:type="MSShapeGroup" mask="url(#mask-10)"></path>
                    </g>
                    <path d="M191.729517,66.4993532 L191.537415,67.5821106 C191.39722,67.547183 191.260905,67.5297191 191.127015,67.5297191 C190.85293,67.5297191 190.638028,67.6272255 190.480854,67.8222383 C190.323679,68.0172511 190.198522,68.3155915 190.105381,68.7172596 L190.105381,71.1796596 L188.987696,71.1796596 L188.987696,66.5604766 L189.956939,66.5604766 L190.061722,67.4685957 C190.172326,67.136783 190.332411,66.8821021 190.541977,66.7045532 C190.751543,66.5270043 190.992641,66.4382298 191.266726,66.4382298 C191.435543,66.4382298 191.589807,66.4586043 191.729517,66.4993532" id="Fill-70" fill="#184E82" sketch:type="MSShapeGroup"></path>
                    <path d="M193.29287,65.1459064 L193.144427,67.5122553 L192.376019,67.5122553 L192.218844,65.1459064 L193.29287,65.1459064 Z" id="Fill-72" fill="#184E82" sketch:type="MSShapeGroup"></path>
                    <path d="M197.53658,66.9795115 L197.099985,67.6518689 C196.71578,67.3899115 196.336912,67.2589328 195.964836,67.2589328 C195.7315,67.2589328 195.552495,67.3016221 195.427338,67.3855455 C195.302666,67.469954 195.240087,67.5820136 195.240087,67.7217243 C195.240087,67.8265072 195.265797,67.9138264 195.318674,67.9836817 C195.37058,68.053537 195.465176,68.1190264 195.602461,68.1801498 C195.739261,68.2412732 195.941551,68.3096732 196.209329,68.3853498 C196.709959,68.5192391 197.081066,68.6972732 197.322649,68.9179966 C197.564231,69.1392051 197.685023,69.4477328 197.685023,69.8435796 C197.685023,70.3039455 197.498742,70.6629243 197.125695,70.9219711 C196.753619,71.1810179 196.290827,71.3105413 195.737806,71.3105413 C195.359423,71.3105413 195.014512,71.2523285 194.702589,71.135903 C194.391636,71.0194774 194.122402,70.8598774 193.894887,70.6556477 L194.462946,70.0182179 C194.847151,70.3267455 195.260461,70.4810094 195.702878,70.4810094 C195.952708,70.4810094 196.153542,70.4315285 196.30538,70.3325668 C196.456249,70.2336051 196.53241,70.1026264 196.53241,69.9396306 C196.53241,69.79992 196.504274,69.6907711 196.449457,69.6121838 C196.394155,69.5335966 196.294708,69.462286 196.152087,69.3982519 C196.009951,69.3342179 195.787287,69.2585413 195.48458,69.1712221 C195.013057,69.043154 194.666691,68.8641498 194.445483,68.6342094 C194.224274,68.404754 194.113185,68.1175711 194.113185,67.7741157 C194.113185,67.5179796 194.187891,67.2880391 194.335849,67.0842945 C194.484776,66.8805498 194.694342,66.7204647 194.964546,66.6040391 C195.235721,66.4876136 195.545704,66.4294009 195.894495,66.4294009 C196.517372,66.4294009 197.064572,66.6127711 197.53658,66.9795115" id="Fill-74" fill="#184E82" sketch:type="MSShapeGroup"></path>
                    <g id="Group-78">
                        <mask id="mask-12" sketch:name="Clip 77" fill="white">
                            <use xlink:href="#path-11"></use>
                        </mask>
                        <g id="Clip-77"></g>
                        <path d="M204.080763,65.1721991 C204.356788,65.2769821 204.623111,65.4370672 204.879248,65.6524545 L204.285963,66.3422757 C203.942507,66.0512119 203.569946,65.90568 203.168277,65.90568 C202.719554,65.90568 202.362031,66.0861396 202.093767,66.4470587 C201.826473,66.8079779 201.692584,67.3755523 201.692584,68.1497821 C201.692584,68.9123694 201.826473,69.4755779 202.093767,69.8394077 C202.362031,70.2032374 202.72586,70.3851523 203.185256,70.3851523 C203.418592,70.3851523 203.625248,70.3414928 203.805707,70.2541736 C203.986167,70.1668545 204.187001,70.041697 204.408209,69.8787013 L204.949588,70.5772545 C204.745358,70.7868204 204.488252,70.9614587 204.176814,71.1011694 C203.865375,71.24088 203.517554,71.3107353 203.13335,71.3107353 C202.609435,71.3107353 202.146643,71.1884885 201.744975,70.9439949 C201.342822,70.6995013 201.031869,70.3400374 200.81066,69.8656034 C200.589452,69.3911694 200.478848,68.8192289 200.478848,68.1497821 C200.478848,67.4919779 200.593818,66.927314 200.823758,66.4557906 C201.053699,65.9842672 201.366107,65.6262587 201.762439,65.3817651 C202.158286,65.1372715 202.603614,65.0150247 203.098422,65.0150247 C203.476805,65.0150247 203.804252,65.0674162 204.080763,65.1721991" id="Fill-76" fill="#184E82" sketch:type="MSShapeGroup" mask="url(#mask-12)"></path>
                    </g>
                    <g id="Group-81">
                        <mask id="mask-14" sketch:name="Clip 80" fill="white">
                            <use xlink:href="#path-13"></use>
                        </mask>
                        <g id="Clip-80"></g>
                        <path d="M206.870609,70.3283464 C206.911358,70.3836485 206.978788,70.4112996 207.071443,70.4112996 C207.159248,70.4112996 207.246082,70.3967464 207.333401,70.36764 L207.569163,71.1535123 C207.319333,71.2582953 207.05398,71.3106868 206.775043,71.3106868 C206.425282,71.3106868 206.157503,71.2102698 205.971222,71.0094357 C205.785426,70.8086017 205.691801,70.5160826 205.691801,70.1318783 L205.691801,64.7093591 L206.809486,64.5871123 L206.809486,70.0532911 C206.809486,70.1813591 206.82986,70.2730443 206.870609,70.3283464" id="Fill-79" fill="#184E82" sketch:type="MSShapeGroup" mask="url(#mask-14)"></path>
                    </g>
                    <path d="M211.035733,71.1796596 L210.974609,70.5334979 C210.805307,70.7954553 210.606414,70.9904681 210.376473,71.1185362 C210.146533,71.2466043 209.874388,71.3106383 209.560039,71.3106383 C209.146243,71.3106383 208.828014,71.1840255 208.603894,70.9308 C208.379775,70.6775745 208.267716,70.3268426 208.267716,69.8786043 L208.267716,66.5604766 L209.385401,66.5604766 L209.385401,69.7388936 C209.385401,70.0008511 209.430031,70.1871319 209.520746,70.2977362 C209.61049,70.4083404 209.755052,70.4636426 209.952975,70.4636426 C210.308073,70.4636426 210.619511,70.2453447 210.88729,69.8087489 L210.88729,66.5604766 L212.004975,66.5604766 L212.004975,71.1796596 L211.035733,71.1796596 Z" id="Fill-82" fill="#184E82" sketch:type="MSShapeGroup"></path>
                    <g id="Group-86">
                        <mask id="mask-16" sketch:name="Clip 85" fill="white">
                            <use xlink:href="#path-15"></use>
                        </mask>
                        <g id="Clip-85"></g>
                        <path d="M216.03034,70.0839013 C216.199157,69.8248545 216.28308,69.4188204 216.28308,68.8657991 C216.28308,68.2836715 216.204978,67.8718162 216.047803,67.6302332 C215.890629,67.3886502 215.66942,67.2678587 215.384178,67.2678587 C215.02908,67.2678587 214.723463,67.4774247 214.467327,67.8965566 L214.467327,69.9398247 C214.57211,70.1086417 214.698723,70.2396204 214.847165,70.3327609 C214.995608,70.4259013 215.157148,70.4724715 215.331786,70.4724715 C215.628671,70.4724715 215.861037,70.3429481 216.03034,70.0839013 M216.999582,67.0670247 C217.302289,67.4919779 217.453642,68.0915694 217.453642,68.8657991 C217.453642,69.3431438 217.37942,69.7666417 217.230978,70.1362928 C217.082535,70.5059438 216.871029,70.794097 216.597914,71.0007523 C216.323829,71.2069226 216.000748,71.3107353 215.628671,71.3107353 C215.378357,71.3107353 215.149871,71.2583438 214.943216,71.1535609 C214.736561,71.0487779 214.557557,70.9003353 214.406203,70.7082332 L214.336348,71.1797566 L213.349642,71.1797566 L213.349642,64.7094077 L214.467327,64.5871609 L214.467327,67.0844885 C214.61868,66.8749226 214.80205,66.7133821 215.017437,66.5998672 C215.23234,66.4863523 215.468586,66.4295949 215.724723,66.4295949 C216.271923,66.4295949 216.696876,66.6420715 216.999582,67.0670247" id="Fill-84" fill="#184E82" sketch:type="MSShapeGroup" mask="url(#mask-16)"></path>
                    </g>
                </g>
            </g>
        </g>
    </g>
</svg>