<?xml version="1.0" encoding="UTF-8" standalone="no"?>
<svg width="188px" height="61px" viewBox="0 0 188 61" version="1.1" xmlns="http://www.w3.org/2000/svg" xmlns:xlink="http://www.w3.org/1999/xlink" xmlns:sketch="http://www.bohemiancoding.com/sketch/ns">
    <!-- Generator: sketchtool 3.5.1 (25234) - http://www.bohemiancoding.com/sketch -->
    <title>vs logo eng small</title>
    <desc>Created with sketchtool.</desc>
    <defs>
        <path id="path-1" d="M0,0.2652 L187.8912,0.2652 L187.8912,58.8 L0,58.8"></path>
        <path id="path-3" d="M0,0.2652 L187.8912,0.2652 L187.8912,58.8 L0,58.8 L0,0.2652 Z"></path>
        <path id="path-5" d="M0,0.2652 L187.8912,0.2652 L187.8912,58.8 L0,58.8 L0,0.2652 Z"></path>
        <path id="path-7" d="M0,0.2652 L187.8912,0.2652 L187.8912,58.8 L0,58.8"></path>
        <path id="path-9" d="M0,0.2652 L187.8912,0.2652 L187.8912,58.8 L0,58.8 L0,0.2652 Z"></path>
        <path id="path-11" d="M0,0.2652 L187.8912,0.2652 L187.8912,58.8 L0,58.8"></path>
        <path id="path-13" d="M0,0.2652 L187.8912,0.2652 L187.8912,58.8 L0,58.8"></path>
        <path id="path-15" d="M0,0.2652 L187.8912,0.2652 L187.8912,58.8 L0,58.8"></path>
    </defs>
    <g id="elements" stroke="none" stroke-width="1" fill="none" fill-rule="evenodd" sketch:type="MSPage">
        <g id="elements---iconset" sketch:type="MSArtboardGroup" transform="translate(-16.000000, -258.000000)">
            <g id="logo-en" sketch:type="MSLayerGroup" transform="translate(16.000000, 258.000000)">
                <g id="Page-1">
                    <path d="M153.69348,26.58164 C154.09188,25.91844 154.84228,24.88804 155.05028,24.66764 L155.04908,24.66764 C154.70548,24.62764 154.60748,24.40724 154.58668,24.30324 C154.43988,24.40804 153.90948,24.79604 153.69348,25.07004 C153.44148,25.38964 152.95068,25.95844 152.70148,26.31684 C152.54628,26.53964 152.39748,26.78364 152.29548,26.97364 C152.26068,27.09684 152.23228,27.21844 152.21468,27.33604 C152.17748,27.58124 152.27028,27.81004 152.54908,27.78964 C152.82028,27.76964 153.03548,27.57124 153.20268,27.37644 C153.26708,27.30164 153.33508,27.22164 153.40308,27.13884 C153.45468,27.00964 153.54468,26.82964 153.69348,26.58164" id="Fill-1" fill="#008CCF" sketch:type="MSShapeGroup"></path>
                    <path d="M155.37476,26.02632 L155.37476,26.02632 C155.44356,25.85072 155.69716,25.32672 155.91036,25.17112 C155.88676,25.16312 155.86236,25.15472 155.83636,25.14552 C155.60796,25.06232 155.61316,24.63632 155.63396,24.57392 C155.65076,24.52352 155.58236,24.64672 155.34356,24.67072 C155.19036,24.83272 154.89276,25.16272 154.74556,25.42872 C154.54316,25.79472 154.27036,26.23112 154.00556,26.63632 C153.74076,27.04112 153.57836,27.37272 153.49596,27.41352 L153.49516,27.41352 C153.49156,27.42112 153.48836,27.42872 153.48436,27.43632 C153.41276,27.57992 153.25476,27.84272 153.35116,28.00712 C153.53956,28.32872 153.94436,27.95872 154.09556,27.80632 C154.54796,27.35152 154.89876,26.77832 155.23996,26.23952 C155.28476,26.16872 155.32956,26.09752 155.37476,26.02632" id="Fill-3" fill="#008CCF" sketch:type="MSShapeGroup"></path>
                    <path d="M153.69568,24.72488 C153.88808,24.55488 154.12168,24.30848 154.28128,24.18328 C154.27328,24.18528 154.26528,24.18728 154.25648,24.18968 C154.13768,24.22248 154.02088,24.17688 153.92488,24.10368 L153.92528,24.10408 C153.92528,24.10408 153.29048,24.53248 152.85408,24.85968 C152.41808,25.18688 151.44408,26.02048 151.29608,26.22328 C151.14808,26.42568 150.79728,26.64408 150.71168,26.98288 C150.63608,27.28168 150.95928,27.31088 151.03728,27.31368 C151.05448,27.31368 151.07208,27.31368 151.09048,27.31248 C151.27368,27.30048 151.45568,27.23728 151.63088,27.15048 C151.63168,27.15008 152.31688,26.53488 152.58928,26.12208 C152.86208,25.70888 153.40728,24.97968 153.69568,24.72488" id="Fill-5" fill="#008CCF" sketch:type="MSShapeGroup"></path>
                    <path d="M187.68924,2.38668 C187.62684,2.39868 187.56684,2.42028 187.50884,2.44788 C187.44644,2.48748 187.33084,2.58908 187.14004,2.85308 C186.82204,3.29268 185.35724,4.21748 184.60444,4.52908 C184.02044,4.77028 183.76844,4.88668 183.68404,4.92668 C183.73564,4.94628 183.99724,5.06068 184.06364,5.40468 C184.29004,5.29508 185.29404,4.80828 185.67444,4.62228 C186.06564,4.43028 186.90564,3.88388 187.21764,3.57868 C187.48084,3.25948 187.67764,2.85588 187.77244,2.46988 C187.78524,2.41708 187.73964,2.37668 187.68924,2.38668" id="Fill-7" fill="#008CCF" sketch:type="MSShapeGroup"></path>
                    <g id="Group-11">
                        <mask id="mask-2" sketch:name="Clip 10" fill="white">
                            <use xlink:href="#path-1"></use>
                        </mask>
                        <g id="Clip-10"></g>
                        <path d="M183.92836,4.40044 C183.90516,4.44164 183.87996,4.48044 183.85476,4.51644 C184.14316,4.39044 185.09556,3.95964 185.84036,3.46324 C186.72876,2.87084 187.25356,2.32564 187.42476,2.05564 C187.45756,2.00404 187.48876,1.96324 187.51836,1.93164 C187.72276,1.46164 187.96396,0.86044 187.87036,0.34844 C187.85676,0.27244 187.76116,0.24604 187.69996,0.27924 C187.35596,0.46684 187.18956,0.79404 186.98756,1.11524 C186.63156,1.68164 186.08076,2.11884 185.58476,2.55524 C185.03836,3.03564 184.45316,3.45124 183.84996,3.84044 C183.91076,3.99284 184.00156,4.26844 183.92836,4.40044" id="Fill-9" fill="#008CCF" sketch:type="MSShapeGroup" mask="url(#mask-2)"></path>
                    </g>
                    <path d="M187.54948,3.95348 C187.41188,3.91228 187.31348,3.91828 187.21308,3.95868 C187.21228,3.95948 187.21188,3.95988 187.21108,3.96068 C187.11308,4.07748 186.58308,4.46228 186.12628,4.72188 C185.66908,4.98148 184.83268,5.42268 184.60428,5.52668 C184.43948,5.60148 184.20748,5.69788 184.09108,5.74588 C184.13388,5.99468 184.11908,6.02548 184.01228,6.18108 C183.88748,6.36308 183.84588,6.41508 183.84588,6.41508 C183.84588,6.41508 183.84788,6.41668 183.85028,6.41908 C183.99508,6.37908 184.51068,6.22988 184.95228,6.03588 C185.46428,5.81068 186.40908,5.41948 186.98068,5.00748 C187.24108,4.73948 187.45628,4.42308 187.60868,4.05748 C187.62668,4.01428 187.58948,3.96548 187.54948,3.95348" id="Fill-12" fill="#008CCF" sketch:type="MSShapeGroup"></path>
                    <path d="M152.46172,24.81784 C152.69532,24.61544 153.75612,23.94384 153.75612,23.94384 L153.75892,23.94624 C153.71772,23.90504 153.68252,23.86024 153.65652,23.81784 C153.57732,23.69064 153.63612,23.55624 153.65652,23.51784 L153.50532,23.60024 L152.73572,24.06024 L152.10372,24.47984 C152.07652,24.50784 152.04852,24.53464 152.02132,24.56224 C151.72852,24.77144 151.43492,24.97984 151.15052,25.20144 C150.94292,25.36344 150.74692,25.53904 150.54412,25.70664 C150.43532,25.76344 150.32812,25.82224 150.22452,25.88664 C150.05012,25.99464 149.84612,26.12984 149.70372,26.30064 C149.50812,26.44304 149.35012,26.61664 149.29932,26.85864 C149.27812,26.95744 149.35652,27.02224 149.44972,27.00904 C149.70132,26.97384 149.94572,26.88624 150.18412,26.77664 C150.61772,26.42144 150.84132,26.20464 151.12932,25.92664 C151.41772,25.64904 152.22812,25.02024 152.46172,24.81784" id="Fill-14" fill="#008CCF" sketch:type="MSShapeGroup"></path>
                    <path d="M186.29432,7.42704 C186.23512,7.37104 186.16592,7.33224 186.09112,7.30424 C185.93712,7.28344 185.69432,7.28424 185.33672,7.36904 C184.61472,7.54064 184.14352,7.57304 184.00192,7.57184 C183.94512,7.57104 183.72192,7.55544 183.68392,7.55544 C183.65152,7.60184 183.79192,7.65344 183.75552,7.67864 C183.85912,7.89224 183.75152,8.17824 183.55032,8.29424 C183.54952,8.29504 183.54872,8.29504 183.54792,8.29544 C183.54352,8.30184 183.53952,8.30824 183.53432,8.31464 C183.52912,8.32024 183.52512,8.32504 183.52032,8.32984 C183.53832,8.34184 183.55632,8.35264 183.57272,8.36664 C183.63192,8.39624 183.67952,8.44864 183.69752,8.51624 C183.71072,8.56744 183.71792,8.61424 183.71872,8.66184 C183.71912,8.66264 183.71912,8.66264 183.71992,8.66304 C183.74152,8.68624 183.75792,8.71224 183.76952,8.73984 C184.27512,8.71064 184.98032,8.67184 185.70592,8.35464 C185.96552,8.24104 186.68912,7.80144 186.29432,7.42704" id="Fill-16" fill="#008CCF" sketch:type="MSShapeGroup"></path>
                    <path d="M187.01208,5.68652 C186.88248,5.60292 186.69408,5.59292 186.48848,5.61932 C186.34328,5.67212 186.19808,5.74172 186.10608,5.82852 C185.86128,6.05932 184.72368,6.44372 184.54728,6.51652 C184.41128,6.57252 184.09528,6.62492 183.95608,6.64652 C184.01768,6.74052 184.07488,6.87132 184.03288,6.99972 C184.00448,7.08732 183.97288,7.16852 183.93848,7.23972 C184.22768,7.21572 185.19088,7.05572 185.44048,7.01532 C185.62368,6.98532 185.85048,6.88812 186.06048,6.84492 C186.12728,6.81332 186.19448,6.78212 186.26008,6.75052 C186.48408,6.64252 187.55448,6.03532 187.01208,5.68652" id="Fill-18" fill="#008CCF" sketch:type="MSShapeGroup"></path>
                    <path d="M156.94868,25.71164 C156.70468,25.63884 156.70468,25.32204 156.67868,25.22324 C156.65268,25.12484 156.54348,25.17684 156.47068,25.21284 C156.41788,25.23964 156.32828,25.23524 156.19508,25.19884 C156.08988,25.33604 155.85348,25.66204 155.75748,25.94284 C155.67828,26.17404 155.52468,26.57004 155.40868,26.80084 C155.31748,27.03644 155.18508,27.25324 155.09468,27.49004 C154.98268,27.78204 154.95348,28.14404 155.36908,28.07364 C155.93628,27.97724 156.38268,27.19124 156.71148,26.79004 C156.99028,26.44884 157.23388,26.06764 157.43428,25.66484 C157.43068,25.63204 157.42628,25.59764 157.42148,25.56604 C157.40588,25.46764 157.19268,25.78444 156.94868,25.71164" id="Fill-20" fill="#008CCF" sketch:type="MSShapeGroup"></path>
                    <path d="M170.01644,22.28264 C170.01524,22.27064 170.01244,22.25904 170.00884,22.24784 C169.94084,21.95384 169.75204,21.45064 169.59364,21.11584 C169.37444,20.65224 168.91844,20.07104 168.44964,19.70024 C167.90964,19.27344 167.58964,18.75784 167.35324,18.36464 C167.13604,18.00344 167.32364,18.32104 167.20044,18.12464 C166.92164,17.69744 166.60404,17.88944 166.32044,18.02664 C164.65724,18.80264 163.26484,19.10704 161.52964,19.67944 C160.70804,19.95024 159.91484,20.28944 159.11444,20.61424 C159.08484,20.62624 159.05484,20.63784 159.02444,20.64984 L155.96804,22.32304 C155.97724,22.33304 155.98684,22.34264 155.99604,22.35264 C155.88604,22.34184 155.78044,22.41824 155.74084,22.51944 C155.72564,22.50344 155.71004,22.48784 155.69604,22.47224 L154.30764,23.23224 C154.22324,23.35944 154.19084,23.42184 154.36724,23.66664 C154.55404,23.92624 154.97484,23.65104 155.05164,23.66664 C155.12804,23.68224 155.04244,23.72904 155.00604,23.84824 C154.96964,23.96784 155.06244,24.16664 155.31244,24.23784 C155.56244,24.30944 155.89444,24.02504 155.99604,24.04064 C156.09804,24.05624 156.05524,24.17544 156.01364,24.28464 C155.97204,24.39384 156.00164,24.61064 156.13444,24.71584 C156.26764,24.82144 156.68364,24.69504 156.77204,24.64304 C156.86044,24.59104 156.85524,24.64304 156.84484,24.76784 C156.83444,24.89224 156.76684,24.99104 156.92284,25.17304 C157.07844,25.35464 157.37444,25.13664 157.43164,25.04304 C157.48884,24.94944 157.57204,24.98064 157.59284,25.02224 C157.61364,25.06384 157.52004,25.21904 157.55644,25.37024 C157.55724,25.37464 157.55964,25.37904 157.56084,25.38344 C157.64964,25.52944 157.81604,25.55184 157.96804,25.47024 C158.14444,25.37624 158.27444,25.21384 158.38724,25.03304 C158.40644,25.08864 158.44684,25.13504 158.49724,25.16024 C158.57884,25.23664 158.68524,25.28184 158.80124,25.25104 C158.98364,25.20304 159.13124,25.07144 159.25724,24.91064 C159.27084,24.93624 159.28484,24.96104 159.30084,24.98504 C159.38204,25.10584 159.51044,25.15544 159.64964,25.12024 C159.81524,25.07904 159.94684,24.90704 160.04244,24.77824 C160.11604,24.67944 160.18404,24.57744 160.25004,24.47424 C160.19724,24.71984 160.18444,24.97544 160.35124,25.18024 C160.38724,25.22424 160.47204,25.22344 160.50804,25.18024 C160.65004,25.01064 160.77964,24.81744 160.89484,24.61384 C160.87404,24.79144 160.88644,24.96384 160.99284,25.09104 C161.13204,25.25864 161.34284,25.31384 161.49804,25.13344 C161.59884,25.01624 161.65444,24.86064 161.69124,24.70144 C161.70844,24.74984 161.72924,24.79704 161.75324,24.84304 C161.76044,24.85864 161.76844,24.87384 161.77764,24.88824 C161.78444,24.89944 161.78964,24.91144 161.79644,24.92264 C161.81684,24.95464 161.84524,24.97904 161.87724,24.99624 C161.88924,25.00624 161.90204,25.01624 161.91564,25.02624 C162.10124,25.16224 162.29884,25.05544 162.41164,24.88944 C162.46444,24.81144 162.50124,24.72184 162.52924,24.62784 C162.53884,24.63864 162.54964,24.64824 162.56124,24.65704 C162.58924,24.71864 162.63244,24.77544 162.70084,24.82424 C162.85644,24.93544 162.98764,24.74984 163.03924,24.62824 C163.08204,24.52704 163.11044,24.42104 163.13204,24.31264 C163.15524,24.33104 163.17964,24.34864 163.20684,24.36584 C163.30044,24.42544 163.53364,24.40664 163.59484,24.47224 C163.69684,24.58184 163.88444,24.45344 163.94964,24.36224 C164.01684,24.26824 164.05884,24.15424 164.08444,24.03104 C164.09164,24.03624 164.09924,24.04144 164.10644,24.04584 C164.17444,24.15464 164.27164,24.24344 164.39364,24.29344 C164.62404,24.38784 164.85284,24.04944 164.98644,23.82944 C165.19124,24.00464 165.38244,24.03304 165.51284,23.81544 C165.52444,23.82544 165.53524,23.83624 165.54764,23.84584 C165.58444,23.87864 165.64564,23.89584 165.68964,23.86424 C165.79844,23.78544 165.89004,23.70704 165.97844,23.61344 L166.01124,23.63984 C166.06644,23.68384 166.15764,23.68904 166.19484,23.61624 C166.22964,23.54744 166.26964,23.48384 166.30924,23.41944 C166.31204,23.42144 166.31524,23.42384 166.31804,23.42624 C166.34604,23.44704 166.38084,23.44704 166.41204,23.43544 C166.49164,23.47704 166.58604,23.49224 166.69044,23.47584 C166.85524,23.44984 166.97844,23.31264 167.02524,23.15824 C167.10084,23.21584 167.19124,23.25144 167.28564,23.24424 C167.40684,23.23464 167.49444,23.17144 167.54884,23.08304 C167.56844,23.08904 167.58924,23.09344 167.61284,23.09384 C167.74964,23.09464 167.88764,23.10984 168.02204,23.07424 C168.17404,23.03424 168.26004,22.90984 168.26324,22.76784 C168.26644,22.76664 168.26924,22.76504 168.27204,22.76384 C168.31124,22.81504 168.36684,22.84904 168.44764,22.84904 C168.59804,22.84904 168.68484,22.71384 168.71244,22.58224 C168.71724,22.55904 168.71804,22.53624 168.71644,22.51384 C168.73044,22.49904 168.74444,22.48384 168.75764,22.46864 C168.78924,22.48624 168.81684,22.50424 168.83164,22.51864 C168.89404,22.57744 168.98404,22.58984 169.06124,22.55424 C169.14804,22.51384 169.16484,22.44824 169.19044,22.36664 C169.20004,22.36784 169.20924,22.37024 169.21844,22.37264 C169.29124,22.41224 169.37484,22.42744 169.45204,22.39664 C169.48604,22.38344 169.51564,22.36344 169.53884,22.33904 C169.59324,22.38984 169.65644,22.42784 169.72724,22.45864 C169.74444,22.46744 169.76244,22.47544 169.78204,22.48024 C169.88044,22.50384 169.98324,22.45064 170.01084,22.35064 C170.01524,22.33424 170.01684,22.31824 170.01684,22.30264 C170.01804,22.30224 170.01924,22.30104 170.01924,22.30104 C170.01924,22.29544 170.01764,22.28864 170.01644,22.28264" id="Fill-22" fill="#008CCF" sketch:type="MSShapeGroup"></path>
                    <path d="M174.95584,23.78656 C175.04024,23.88176 175.02224,24.11936 175.02224,24.11936 L174.98824,24.08896 C174.95424,24.05816 174.95584,23.97376 174.81184,23.95576 C174.66784,23.93776 174.63744,24.01856 174.64104,24.22376 C174.64464,24.42896 174.75064,24.49176 174.69504,24.49376 C174.63904,24.49536 174.53664,24.35696 174.45584,24.18616 C174.37464,24.01496 174.31544,23.95216 174.23264,23.91256 C174.14984,23.87296 174.18744,24.10856 174.18744,24.10856 C174.13184,24.06376 174.02984,23.95056 173.97944,23.74536 C173.92904,23.54056 173.86544,23.23016 173.80224,23.10256 C173.73944,22.97456 173.61104,22.69496 173.50504,22.49136 C173.39904,22.28816 173.20744,21.83216 173.07104,21.81616 C172.89704,21.79576 172.91184,21.58576 172.92624,21.47056 C172.94064,21.35536 172.84504,21.14016 172.84504,21.14016 C172.91904,20.99416 172.96384,21.12576 173.11864,21.29136 C173.27344,21.45656 173.28944,21.58456 173.34344,21.76056 C173.39744,21.93696 173.54344,22.15136 173.64424,22.37416 C173.74504,22.59736 174.01664,22.83296 174.23984,23.01296 C174.46264,23.19296 174.87144,23.69136 174.95584,23.78656 L174.95584,23.78656 Z M173.01464,24.55856 C173.01464,24.55856 172.91744,24.54056 172.81304,24.53336 C172.70864,24.52616 172.64384,24.62336 172.66024,24.84456 C172.67624,25.06616 172.77704,25.28896 172.75744,25.33056 C172.73744,25.37176 172.67104,25.27296 172.58624,25.17776 C172.50184,25.08216 172.42424,25.02296 172.35584,25.05536 C172.28784,25.08776 172.35784,25.29816 172.35784,25.29816 C172.35784,25.29816 172.28944,25.23696 172.23384,25.14536 C172.17784,25.05336 172.02664,24.25096 171.97504,24.13056 C171.92344,24.00976 171.87384,24.00096 171.88464,23.86776 C171.89544,23.73456 171.81544,23.56856 171.75264,23.20696 C171.68944,22.84536 171.53904,22.56136 171.46504,22.47336 C171.39144,22.38536 171.49224,22.23416 171.45424,22.18536 C171.41664,22.13696 171.31584,21.96056 171.31584,21.96056 C171.29104,21.91776 171.36064,21.85816 171.36064,21.85816 C171.36064,21.85816 171.45784,21.92296 171.49744,21.98056 C171.53704,22.03816 171.69744,22.13696 171.75504,22.23776 C171.81264,22.33856 171.79264,22.52016 171.76944,22.59016 C171.74584,22.66056 171.90744,23.05616 171.96144,23.27936 C172.01544,23.50216 172.08064,23.58536 172.16304,23.62376 C172.24584,23.66256 172.21744,23.80136 172.26424,23.84776 C172.31104,23.89456 172.37384,23.88216 172.55744,24.05136 C172.74104,24.22016 172.89384,24.42376 172.89384,24.42376 L173.06304,24.56776 L173.01464,24.55856 Z M167.68784,15.70176 C167.57424,15.70176 167.48184,15.60936 167.48184,15.49576 C167.48184,15.38216 167.57424,15.28976 167.68784,15.28976 C167.80184,15.28976 167.89384,15.38216 167.89384,15.49576 C167.89384,15.60936 167.80184,15.70176 167.68784,15.70176 L167.68784,15.70176 Z M183.07344,7.28456 C183.32264,7.34696 183.60344,7.05056 183.56704,6.64056 C183.53064,6.23016 182.94344,6.45856 182.94344,6.45856 C182.94344,6.45856 182.83024,6.39616 182.91824,6.37016 C183.00584,6.34456 183.73064,6.35376 183.62944,5.61736 C183.52784,4.88056 183.08784,5.32416 183.04744,5.25896 C183.00704,5.19376 183.59304,4.84856 183.50464,4.45376 C183.48144,4.34936 183.45704,4.27056 183.43464,4.21056 C182.85264,4.58136 182.25584,4.93056 181.66184,5.29256 C181.59784,5.33176 181.53264,5.37136 181.46784,5.41096 C181.46824,5.41176 181.46904,5.41296 181.46944,5.41376 C181.44984,5.42416 181.43104,5.43656 181.41424,5.45216 C181.41064,5.45576 181.40704,5.45896 181.40304,5.46256 C181.38544,5.47456 181.36664,5.48496 181.34784,5.49536 C181.32864,5.50576 181.30864,5.51496 181.28904,5.52416 C181.28624,5.52536 181.28304,5.52656 181.28024,5.52816 C181.27424,5.53056 181.26744,5.53336 181.26344,5.53496 C181.22424,5.55096 181.18984,5.57336 181.16104,5.60056 C180.64984,5.92096 180.13744,6.26656 179.68784,6.67016 C178.89144,7.18856 178.02584,7.58936 177.31464,8.23216 C176.33664,9.11536 175.60264,10.27456 174.77304,11.29056 C174.31784,11.84776 173.85264,12.38736 173.40824,12.94456 C173.21024,13.15776 173.02024,13.38096 172.83984,13.60896 C172.82144,13.60976 172.80344,13.61776 172.79064,13.63856 C172.76704,13.67696 172.74184,13.71376 172.71704,13.75096 C172.69384,13.77736 172.67064,13.80416 172.64744,13.83056 C172.28304,14.12096 171.95144,14.45416 171.61304,14.77296 C171.36264,15.00816 171.10384,15.23536 170.84824,15.46616 C170.64864,15.60176 170.44904,15.71856 170.22264,15.79976 C169.86344,15.76536 169.41504,15.68096 168.98464,15.48296 C168.05104,15.05376 167.52104,14.85216 167.04144,15.07896 C166.56184,15.30616 166.35984,15.76056 166.35984,15.76056 C166.35984,15.76056 165.72904,15.74816 165.61544,15.94976 C165.50184,16.15176 165.51424,16.27816 165.51424,16.27816 C165.51424,16.27816 166.76544,16.09496 167.17024,17.34536 C167.17384,17.35256 167.17744,17.35856 167.18104,17.36656 C167.28984,17.60256 167.81024,18.21656 168.09104,18.65136 C168.34544,19.04496 169.21984,19.64216 169.70784,20.39176 C170.14224,21.05936 170.44824,22.14416 170.50984,22.37416 C170.58544,22.63816 170.53184,22.92776 170.53184,22.92776 C170.46624,23.33456 170.39824,23.74056 170.33344,24.14736 C170.26264,24.59336 170.21544,25.04136 170.15104,25.48816 C170.12584,25.66096 170.10264,25.83696 170.11624,26.00736 C170.07704,26.18776 170.09784,26.36576 170.25184,26.51776 C170.48664,26.74896 170.74664,26.54896 170.91544,26.29816 C170.92784,26.53296 171.07384,26.74096 171.35584,26.79616 C171.38704,26.80216 171.41784,26.80576 171.44784,26.80776 C171.61944,26.84696 171.79064,26.81016 171.90264,26.65136 C171.90864,26.64256 171.91344,26.63336 171.91904,26.62456 C171.95344,26.58976 171.98504,26.55176 172.01304,26.51016 C172.03384,26.54656 172.05824,26.58056 172.08584,26.61136 C172.13464,26.79896 172.30064,26.94176 172.52384,26.91216 C172.71104,26.88736 172.83264,26.77456 172.89824,26.62816 C172.99784,26.83936 173.17464,27.07776 173.42264,26.97816 C173.44704,26.99216 173.47704,26.99696 173.50904,26.98216 C173.58984,26.94416 173.65744,26.88896 173.71424,26.82456 C173.87344,26.70816 173.94464,26.54416 173.97224,26.35856 C174.00264,26.37656 174.03784,26.38656 174.07384,26.38776 C174.07984,26.40496 174.08544,26.42256 174.09264,26.43936 C174.16704,26.61296 174.30504,26.77296 174.48664,26.83696 C174.70504,26.91376 174.80424,26.72256 174.84944,26.50656 C174.85144,26.50136 174.85264,26.49616 174.85424,26.49096 C174.86504,26.48616 174.87464,26.48096 174.88384,26.47496 C174.88984,26.51536 174.90744,26.55376 174.93984,26.58656 C174.99104,26.63736 175.06384,26.65536 175.13064,26.64056 C175.18024,26.66936 175.24184,26.67976 175.29464,26.66496 C175.41024,26.63336 175.45824,26.52216 175.43864,26.41176 C175.43344,26.38376 175.42544,26.35696 175.41624,26.33056 C175.41904,26.31616 175.42064,26.30176 175.42024,26.28736 C175.44704,26.29096 175.47424,26.28896 175.50064,26.27896 C175.50784,26.27616 175.51384,26.27256 175.52064,26.26976 C175.54904,26.32336 175.58344,26.37216 175.62784,26.41336 C175.70384,26.48336 175.84104,26.45896 175.86704,26.35016 C175.88104,26.29256 175.88864,26.23416 175.89224,26.17616 C175.90224,26.15056 175.90544,26.12216 175.89864,26.09216 C175.89704,26.08496 175.89584,26.07816 175.89424,26.07136 C175.89304,26.02976 175.88984,25.98816 175.88464,25.94656 C175.91144,25.94576 175.93784,25.93696 175.95704,25.92016 C175.98824,25.93976 176.02464,25.95136 176.06384,25.95136 C176.09944,25.95136 176.13304,25.94136 176.16264,25.92456 C176.20944,25.91856 176.25504,25.89736 176.28664,25.86536 C176.34184,25.81016 176.35664,25.73336 176.33664,25.66416 C176.33784,25.60576 176.33464,25.54776 176.32904,25.49016 C176.38144,25.52056 176.44104,25.53776 176.50824,25.53336 C176.68664,25.52216 176.80264,25.37416 176.86224,25.21896 C176.91824,25.07296 176.91824,24.92896 176.88784,24.78896 C176.93184,24.79496 176.97704,24.78856 177.01744,24.76496 C177.09304,24.72056 177.14184,24.61896 177.11184,24.53216 C177.09384,24.47976 177.07144,24.42896 177.04984,24.37816 C177.04824,24.37416 177.04064,24.35576 177.03544,24.34376 C177.03184,24.33496 177.02864,24.32576 177.02504,24.31696 C177.03224,24.32016 177.03944,24.32376 177.04664,24.32656 C177.06304,24.35856 177.08624,24.38656 177.11824,24.40456 C177.44344,24.58376 177.76024,24.49776 177.80464,24.10216 C177.81344,24.02496 177.80984,23.94056 177.79824,23.85416 C177.81344,23.69256 177.77224,23.51776 177.69424,23.36736 C177.83744,23.37216 177.97464,23.32976 178.05904,23.19376 C178.10824,23.11376 178.12904,23.03096 178.12824,22.94936 C178.15424,22.86936 178.14904,22.79176 178.11784,22.72136 C178.20184,22.71256 178.28424,22.67576 178.35744,22.59976 C178.39104,22.56456 178.41704,22.52576 178.43704,22.48456 C178.48704,22.43416 178.51304,22.37576 178.52184,22.31296 C178.54704,22.27656 178.56344,22.23216 178.56104,22.19256 C178.55264,22.04136 178.49544,21.90336 178.39384,21.80616 C178.35464,21.69936 178.25744,21.61416 178.12664,21.57336 C178.11544,21.56976 178.10464,21.56856 178.09424,21.56856 C178.03944,21.52896 177.97904,21.49776 177.91464,21.47736 C177.72384,21.36336 177.50624,21.29216 177.29464,21.21376 C176.77304,21.02096 176.28344,20.74016 175.77704,20.51176 C175.36584,20.32656 174.95464,20.11176 174.53304,19.92576 C174.36024,19.62056 174.45344,19.16256 174.81384,19.05136 C174.92424,19.01696 174.98344,18.97816 175.07864,18.91496 C175.25624,18.79736 175.25864,18.59336 175.47384,18.48536 C175.62664,18.40816 175.77064,18.19536 175.84464,17.98456 C175.99904,17.94256 176.10264,17.81136 176.12144,17.63256 C176.12544,17.59536 176.12224,17.55616 176.11624,17.51696 C176.12744,17.49816 176.13944,17.47896 176.15424,17.45936 C176.16424,17.44616 176.17464,17.43456 176.18544,17.42376 C176.32104,17.46976 176.48024,17.45056 176.62944,17.34576 C176.81064,17.21896 176.91144,17.02856 176.91584,16.83416 C177.00704,16.81496 177.08944,16.76336 177.14464,16.66696 C177.19064,16.58656 177.20824,16.50216 177.20664,16.41856 C177.28224,16.37256 177.36664,16.34416 177.46624,16.24016 C177.54344,16.16016 177.59384,16.07976 177.62584,15.99416 C177.67864,16.00496 177.74144,15.99216 177.81624,15.94256 C178.08504,15.76336 178.23664,15.51256 178.29384,15.22936 C178.34704,15.23616 178.40904,15.22496 178.48224,15.18656 C178.75424,15.04416 178.89184,14.82296 178.93544,14.57136 C179.09464,14.56296 179.25624,14.46816 179.36664,14.31896 C179.46464,14.18616 179.51224,14.02176 179.50464,13.86536 C179.71744,13.83616 179.90104,13.66176 179.94384,13.43656 C179.95584,13.37256 179.95744,13.30856 179.94984,13.24696 C180.09744,13.30336 180.24544,13.32176 180.40504,13.22816 C180.57024,13.13096 180.65744,12.92056 180.67784,12.73896 C180.68304,12.69016 180.68544,12.63736 180.68424,12.58216 C180.81784,12.56896 180.95344,12.49816 181.07544,12.34896 C181.23944,12.14816 181.26904,11.84656 181.20664,11.55976 C181.44344,11.51576 181.64504,11.36576 181.73584,11.08416 C181.77704,10.95616 181.78424,10.82536 181.76504,10.69696 C181.79424,10.69656 181.82304,10.69576 181.84984,10.69376 C181.86184,10.69296 181.87384,10.69136 181.88624,10.69016 C181.96944,10.69496 182.05784,10.68256 182.14304,10.65096 C182.22104,10.62216 182.28384,10.56136 182.29264,10.47696 C182.29544,10.47256 182.29864,10.46896 182.30144,10.46456 C182.36464,10.35176 182.34944,10.23496 182.30304,10.12656 C182.30504,10.11696 182.30544,10.10696 182.30704,10.09736 C182.45944,10.10256 182.61104,10.08256 182.76544,10.01016 C182.98704,9.90696 183.14264,9.67496 183.07464,9.43176 C183.03704,9.29736 182.93744,9.18656 182.82264,9.09296 C182.87864,9.09496 182.93424,9.09496 182.98864,9.09016 C183.22664,9.06936 183.42944,8.85736 183.38704,8.61256 C183.36864,8.50816 183.35624,8.47656 183.26144,8.41536 C183.27184,8.41496 183.21784,8.36696 183.22864,8.36656 C183.14824,8.30016 183.03344,8.23496 182.88664,8.22976 C182.57984,8.21936 182.60064,8.17776 182.60064,8.17776 C182.60064,8.17776 182.97264,8.08176 183.09424,7.88176 C183.21584,7.68176 183.01704,7.41416 182.91824,7.37816 L182.81904,7.34176 C182.81904,7.34176 182.82424,7.22216 183.07344,7.28456 L183.07344,7.28456 Z" id="Fill-24" fill="#008CCF" sketch:type="MSShapeGroup"></path>
                    <path d="M80.28384,28.65188 C81.26584,28.65188 82.26464,29.00148 83.28024,29.70068 L83.28024,31.74828 L82.38144,31.94788 L81.85704,29.97508 C81.49064,29.70908 80.99944,29.57548 80.38344,29.57548 C78.68584,29.57548 77.83664,30.80788 77.83664,33.27148 L77.83664,35.64308 L80.85824,35.64308 L80.68344,36.54228 L77.83664,36.54228 L77.83664,45.88068 L79.48464,46.40508 L79.28504,47.30388 L74.06624,47.30388 L73.89184,46.40508 L75.48984,45.88068 L75.48984,36.54228 L73.79184,36.54228 L73.61704,35.64308 L75.48984,35.04428 L75.48984,33.77068 C75.48984,32.30588 75.91824,31.08628 76.77544,30.11268 C77.63304,29.13868 78.80184,28.65188 80.28384,28.65188" id="Fill-26" fill="#184E82" sketch:type="MSShapeGroup"></path>
                    <path d="M71.56824,36.92436 C70.56224,35.82436 69.07784,35.27476 67.11504,35.27476 C65.13584,35.27476 63.64744,35.81156 62.64904,36.88636 C61.65144,37.96036 61.15224,39.49556 61.15224,41.49196 C61.15224,43.43676 61.67664,44.95556 62.72504,46.04676 C63.01544,46.34876 63.34104,46.60436 63.69464,46.82316 C64.54424,47.13236 65.37464,46.94996 66.09704,46.58196 C65.48024,46.37596 64.95984,45.97196 64.53984,45.36156 C63.90504,44.43956 63.58784,43.17476 63.58784,41.56796 C63.58784,39.94396 63.90504,38.64556 64.53984,37.67276 C65.17384,36.69996 66.03264,36.21356 67.11504,36.21356 C68.18104,36.21356 69.03104,36.70436 69.66504,37.68556 C70.29984,38.66636 70.61704,39.96036 70.61704,41.56796 C70.61704,43.15796 70.29984,44.41836 69.66504,45.34876 C69.63664,45.39076 69.60504,45.42716 69.57544,45.46716 C68.51104,47.10596 65.83224,47.51476 65.61544,47.54556 C66.08304,47.63396 66.58024,47.68316 67.11504,47.68316 C68.97624,47.68316 70.43504,47.12916 71.49264,46.02116 C72.54984,44.91276 73.07784,43.40316 73.07784,41.49196 C73.07784,39.54636 72.57504,38.02356 71.56824,36.92436" id="Fill-28" fill="#184E82" sketch:type="MSShapeGroup"></path>
                    <path d="M93.67932,30.87404 L93.67932,37.49124 L96.92492,37.49124 L97.74892,35.39364 L98.77292,35.56844 L98.77292,40.48724 L97.74892,40.66204 L96.92492,38.56444 L93.67932,38.56444 L93.67932,45.43124 L95.85172,46.25524 L95.67652,47.30404 L89.08492,47.30404 L88.88492,46.25524 L91.03212,45.43124 L91.03212,31.69804 L88.86012,30.87404 L89.03492,29.82524 L100.87052,29.82524 L100.87052,33.57084 L99.82132,33.77084 L98.77292,30.87404 L93.67932,30.87404 Z" id="Fill-30" fill="#184E82" sketch:type="MSShapeGroup"></path>
                    <path d="M109.48564,38.34012 L108.58644,38.51492 L108.03724,36.74212 C107.67124,36.60892 107.26324,36.54252 106.81364,36.54252 C106.26444,36.54252 105.38164,36.76692 104.16724,37.21652 L104.16724,45.88092 L105.81524,46.40492 L105.61524,47.30412 L100.37164,47.30412 L100.19684,46.40492 L101.81964,45.88092 L101.81964,36.54252 L100.57124,36.54252 L100.39684,35.64332 L103.29324,35.36892 L104.16724,36.29252 C105.26604,35.67692 106.29764,35.36892 107.26324,35.36892 C108.06204,35.36892 108.80284,35.51052 109.48564,35.79332 L109.48564,38.34012 Z" id="Fill-32" fill="#184E82" sketch:type="MSShapeGroup"></path>
                    <path d="M170.86528,39.46348 L170.86528,45.88068 L172.51328,46.40508 L172.31328,47.30388 L167.07008,47.30388 L166.89488,46.40508 L168.51808,45.88068 L168.51808,39.08948 C168.51808,38.30668 168.29728,37.68708 167.85648,37.22908 C167.41488,36.77108 166.86168,36.54228 166.19608,36.54228 C165.43008,36.54228 164.58128,36.76708 163.64928,37.21628 L163.64928,45.88068 L165.27208,46.40508 L165.09728,47.30388 L159.85408,47.30388 L159.67888,46.40508 L161.30208,45.88068 L161.30208,36.54228 L160.05368,36.54228 L159.87888,35.64308 L162.67528,35.36868 L163.64928,36.29268 C164.73128,35.67708 165.77168,35.36868 166.77008,35.36868 C168.15168,35.36868 169.19248,35.74348 169.89168,36.49228 C171.00648,35.74348 172.13008,35.36868 173.26248,35.36868 C174.82688,35.36868 176.01688,35.71828 176.83288,36.41748 C177.64848,37.11668 178.05648,38.13228 178.05648,39.46348 L178.05648,45.88068 L179.70448,46.40508 L179.50488,47.30388 L174.28608,47.30388 L174.08648,46.40508 L175.70928,45.88068 L175.70928,39.26388 C175.70928,38.39828 175.45528,37.72828 174.94768,37.25388 C174.44008,36.77948 173.81168,36.54228 173.06248,36.54228 C172.18008,36.54228 171.28968,36.76708 170.39088,37.21628 C170.70688,37.88228 170.86528,38.63148 170.86528,39.46348" id="Fill-34" fill="#184E82" sketch:type="MSShapeGroup"></path>
                    <path d="M157.63564,36.92436 C156.62964,35.82436 155.14524,35.27476 153.18244,35.27476 C151.20324,35.27476 149.71484,35.81156 148.71644,36.88636 C147.71884,37.96036 147.21964,39.49556 147.21964,41.49196 C147.21964,43.43676 147.74404,44.95556 148.79244,46.04676 C149.08284,46.34876 149.40844,46.60436 149.76204,46.82316 C150.61164,47.13236 151.44204,46.94996 152.16444,46.58196 C151.54764,46.37596 151.02724,45.97196 150.60724,45.36156 C149.97244,44.43956 149.65524,43.17476 149.65524,41.56796 C149.65524,39.94396 149.97244,38.64556 150.60724,37.67276 C151.24124,36.69996 152.10004,36.21356 153.18244,36.21356 C154.24844,36.21356 155.09844,36.70436 155.73244,37.68556 C156.36724,38.66636 156.68444,39.96036 156.68444,41.56796 C156.68444,43.15796 156.36724,44.41836 155.73244,45.34876 C155.70404,45.39076 155.67244,45.42716 155.64284,45.46716 C154.57844,47.10596 151.89964,47.51476 151.68284,47.54556 C152.15044,47.63396 152.64764,47.68316 153.18244,47.68316 C155.04364,47.68316 156.50244,47.12916 157.56004,46.02116 C158.61724,44.91276 159.14524,43.40316 159.14524,41.49196 C159.14524,39.54636 158.64244,38.02356 157.63564,36.92436" id="Fill-36" fill="#184E82" sketch:type="MSShapeGroup"></path>
                    <path d="M125.93068,41.21012 L132.83588,41.21012 C133.12188,40.60372 133.26508,39.98132 133.26508,39.34092 C133.26508,38.14532 132.78908,37.18492 131.83788,36.46092 C130.88628,35.73692 129.66908,35.37452 128.18748,35.37452 C126.38508,35.37452 124.91588,35.92652 123.77908,37.02932 C122.64228,38.13252 122.07388,39.63572 122.07388,41.53852 C122.07388,43.47572 122.62508,44.99132 123.72868,46.08572 C124.83148,47.18092 126.46948,47.72812 128.64228,47.72812 C130.44388,47.72812 131.89228,47.23132 132.98748,46.23772 L132.40628,45.40372 C131.21028,46.16172 130.00628,46.54052 128.79388,46.54052 C127.48028,46.54052 126.47788,46.06932 125.78748,45.12612 C125.09668,44.18292 124.75148,42.91972 124.75148,41.33652 L124.80228,40.30052 C125.03788,37.63972 126.16628,36.30932 128.18748,36.30932 C129.06308,36.30932 129.73228,36.54932 130.19588,37.02932 C130.65868,37.50932 130.89068,38.21252 130.89068,39.13852 C130.89068,39.52612 130.83148,39.91332 130.71388,40.30052 L125.92868,40.30052 L125.93068,41.21012 Z" id="Fill-38" fill="#184E82" sketch:type="MSShapeGroup"></path>
                    <path d="M113.7476,41.21012 L120.6528,41.21012 C120.9388,40.60372 121.082,39.98132 121.082,39.34092 C121.082,38.14532 120.606,37.18492 119.6548,36.46092 C118.7032,35.73692 117.486,35.37452 116.0044,35.37452 C114.202,35.37452 112.7328,35.92652 111.596,37.02932 C110.4592,38.13252 109.8908,39.63572 109.8908,41.53852 C109.8908,43.47572 110.442,44.99132 111.5456,46.08572 C112.6484,47.18092 114.2864,47.72812 116.4592,47.72812 C118.2608,47.72812 119.7092,47.23132 120.8044,46.23772 L120.2232,45.40372 C119.0272,46.16172 117.8232,46.54052 116.6108,46.54052 C115.2972,46.54052 114.2948,46.06932 113.6044,45.12612 C112.9136,44.18292 112.5684,42.91972 112.5684,41.33652 L112.6192,40.30052 C112.8548,37.63972 113.9832,36.30932 116.0044,36.30932 C116.88,36.30932 117.5492,36.54932 118.0128,37.02932 C118.4756,37.50932 118.7076,38.21252 118.7076,39.13852 C118.7076,39.52612 118.6484,39.91332 118.5308,40.30052 L113.7456,40.30052 L113.7476,41.21012 Z" id="Fill-40" fill="#184E82" sketch:type="MSShapeGroup"></path>
                    <path d="M145.16592,45.88084 L145.16592,28.92644 L144.04232,28.65204 L141.14552,28.92644 L141.32072,29.82524 L142.81872,29.82524 L142.81872,35.96804 C141.93632,35.56844 141.08752,35.36884 140.27192,35.36884 C138.45712,35.36884 137.00912,35.93484 135.92712,37.06684 C134.84512,38.19884 134.30432,39.69684 134.30432,41.56124 C134.30432,43.45884 134.79512,44.93644 135.77752,45.99324 C136.73992,47.02924 138.16152,47.55444 140.03632,47.57484 C141.19032,47.26324 141.85072,46.54764 142.22352,45.82284 C141.64832,46.21004 141.00632,46.40524 140.29672,46.40524 C139.26472,46.40524 138.44512,45.93484 137.83752,44.99444 C137.22952,44.05404 136.92592,42.82644 136.92592,41.31124 C136.92592,38.13204 138.09112,36.54244 140.42192,36.54244 C141.18712,36.54244 141.98632,36.77524 142.81872,37.24124 L142.81872,45.33164 C142.81232,45.33804 142.80552,45.34324 142.79872,45.34964 L142.85712,46.41524 C142.86112,46.41164 142.86512,46.40884 142.86912,46.40524 L143.09912,46.92284 L143.30352,47.30404 L146.61432,47.30404 L146.78912,46.40524 L145.16592,45.88084 Z" id="Fill-42" fill="#184E82" sketch:type="MSShapeGroup"></path>
                    <g id="Group-46">
                        <mask id="mask-4" sketch:name="Clip 45" fill="white">
                            <use xlink:href="#path-3"></use>
                        </mask>
                        <g id="Clip-45"></g>
                        <path d="M12.8094,35.24368 L12.8094,33.29648 L8.6646,47.30408 L6.8418,47.72848 L2.1722,31.72288 L-0.0002,30.89928 L0.175,29.82528 L6.9166,29.82528 L7.1162,30.89928 L4.9438,31.72288 L8.265,43.15888 L8.265,44.90728 L12.7346,29.82528 L13.833,29.40088 L17.8282,43.15888 L17.8282,44.90728 L21.7482,31.72288 L19.5762,30.89928 L19.7506,29.82528 L24.8198,29.82528 L25.0194,30.89928 L22.8222,31.72288 L18.203,47.30408 L16.4046,47.72848 L12.8094,35.24368 Z" id="Fill-44" fill="#184E82" sketch:type="MSShapeGroup" mask="url(#mask-4)"></path>
                    </g>
                    <path d="M26.54328,31.86548 C26.92608,31.86548 27.25048,31.99868 27.51688,32.26508 C27.78328,32.53148 27.91648,32.84788 27.91648,33.21388 C27.91648,33.57988 27.78328,33.89668 27.51688,34.16268 C27.25048,34.42908 26.92608,34.56228 26.54328,34.56228 C26.17688,34.56228 25.86048,34.42908 25.59448,34.16268 C25.32768,33.89668 25.19488,33.57988 25.19488,33.21388 C25.19488,32.84788 25.32768,32.53148 25.59448,32.26508 C25.86048,31.99868 26.17688,31.86548 26.54328,31.86548 L26.54328,31.86548 Z M27.79168,45.88068 L29.41488,46.40508 L29.21488,47.30388 L23.99648,47.30388 L23.79648,46.40508 L25.44448,45.88068 L25.44448,36.54228 L24.17088,36.54228 L23.99648,35.64308 L26.64288,35.36868 L27.79168,35.64308 L27.79168,45.88068 Z" id="Fill-47" fill="#184E82" sketch:type="MSShapeGroup"></path>
                    <path d="M34.5334,45.88084 L36.1814,46.40524 L35.9814,47.30404 L30.7382,47.30404 L30.563,46.40524 L32.1862,45.88084 L32.1862,36.54244 L30.9378,36.54244 L30.763,35.64324 L33.6342,35.36884 L34.5334,36.29244 C35.8318,35.67684 36.9138,35.36884 37.779,35.36884 C39.1438,35.36884 40.1926,35.72284 40.9254,36.43004 C41.6578,37.13764 42.0242,38.14884 42.0242,39.46364 L42.0242,45.88084 L43.647,46.40524 L43.4722,47.30404 L38.2534,47.30404 L38.0538,46.40524 L39.677,45.88084 L39.677,39.08924 C39.677,38.32364 39.4354,37.70764 38.9526,37.24124 C38.4698,36.77524 37.8874,36.54244 37.205,36.54244 C36.389,36.54244 35.4986,36.76684 34.5334,37.21644 L34.5334,45.88084 Z" id="Fill-49" fill="#184E82" sketch:type="MSShapeGroup"></path>
                    <path d="M55.03748,45.88084 L55.03748,28.92644 L53.91388,28.65204 L51.01708,28.92644 L51.19228,29.82524 L52.69028,29.82524 L52.69028,35.96804 C51.80788,35.56844 50.95908,35.36884 50.14348,35.36884 C48.32868,35.36884 46.88068,35.93484 45.79868,37.06684 C44.71668,38.19884 44.17588,39.69684 44.17588,41.56124 C44.17588,43.45884 44.66668,44.93644 45.64908,45.99324 C46.61148,47.02924 48.03308,47.55444 49.90788,47.57484 C51.06188,47.26324 51.72228,46.54764 52.09508,45.82284 C51.51988,46.21004 50.87788,46.40524 50.16828,46.40524 C49.13628,46.40524 48.31668,45.93484 47.70908,44.99444 C47.10108,44.05404 46.79748,42.82644 46.79748,41.31124 C46.79748,38.13204 47.96268,36.54244 50.29348,36.54244 C51.05868,36.54244 51.85788,36.77524 52.69028,37.24124 L52.69028,45.33164 C52.68388,45.33804 52.67708,45.34324 52.67028,45.34964 L52.72868,46.41524 C52.73268,46.41164 52.73668,46.40884 52.74068,46.40524 L52.97068,46.92284 L53.17508,47.30404 L56.48588,47.30404 L56.66068,46.40524 L55.03748,45.88084 Z" id="Fill-51" fill="#184E82" sketch:type="MSShapeGroup"></path>
                    <path d="M134.31856,54.47284 L134.31856,58.69204 L133.36096,58.69204 L133.36096,54.47284 L132.02176,54.47284 L132.02176,53.71684 L135.71536,53.71684 L135.61456,54.47284 L134.31856,54.47284 Z" id="Fill-53" fill="#184E82" sketch:type="MSShapeGroup"></path>
                    <path d="M138.01228,54.8328 L137.85388,55.7256 C137.73828,55.6968 137.62588,55.6824 137.51548,55.6824 C137.28948,55.6824 137.11228,55.7628 136.98268,55.9236 C136.85308,56.0844 136.74988,56.3304 136.67308,56.6616 L136.67308,58.692 L135.75148,58.692 L135.75148,54.8832 L136.55068,54.8832 L136.63708,55.632 C136.72828,55.3584 136.86028,55.1484 137.03308,55.002 C137.20588,54.8556 137.40468,54.7824 137.63068,54.7824 C137.76988,54.7824 137.89708,54.7992 138.01228,54.8328" id="Fill-55" fill="#184E82" sketch:type="MSShapeGroup"></path>
                    <path d="M140.35212,57.66232 L140.35212,56.89192 L139.97052,56.89192 C139.37532,56.89192 139.07732,57.11272 139.07732,57.55432 C139.07732,57.73712 139.12332,57.87832 139.21412,57.97912 C139.30572,58.07992 139.44012,58.13032 139.61772,58.13032 C139.92932,58.13032 140.17452,57.97432 140.35212,57.66232 M141.32732,58.01152 C141.37332,58.08112 141.44612,58.13512 141.54692,58.17352 L141.35292,58.78552 C141.13692,58.76632 140.96052,58.71352 140.82372,58.62712 C140.68692,58.54072 140.58252,58.40872 140.51052,58.23112 C140.38052,58.42312 140.21892,58.56592 140.02452,58.65952 C139.82972,58.75312 139.61252,58.79992 139.37292,58.79992 C138.99372,58.79992 138.69372,58.69192 138.47292,58.47592 C138.25212,58.25992 138.14172,57.97672 138.14172,57.62632 C138.14172,57.21352 138.29172,56.89792 138.59172,56.67952 C138.89172,56.46112 139.32012,56.35192 139.87692,56.35192 L140.35212,56.35192 L140.35212,56.13592 C140.35212,55.89112 140.29532,55.71992 140.18292,55.62112 C140.07012,55.52272 139.88892,55.47352 139.63932,55.47352 C139.36052,55.47352 139.02492,55.54072 138.63092,55.67512 L138.41532,55.04872 C138.89052,54.86632 139.35132,54.77512 139.79732,54.77512 C140.77212,54.77512 141.25932,55.21232 141.25932,56.08552 L141.25932,57.68392 C141.25932,57.83272 141.28172,57.94192 141.32732,58.01152" id="Fill-57" fill="#184E82" sketch:type="MSShapeGroup"></path>
                    <path d="M142.99432,58.692 L141.73472,54.8832 L142.73552,54.8832 L143.54912,57.9504 L144.38432,54.8832 L145.33472,54.8832 L144.09632,58.692 L142.99432,58.692 Z" id="Fill-59" fill="#184E82" sketch:type="MSShapeGroup"></path>
                    <g id="Group-63">
                        <mask id="mask-6" sketch:name="Clip 62" fill="white">
                            <use xlink:href="#path-5"></use>
                        </mask>
                        <g id="Clip-62"></g>
                        <path d="M148.04196,56.43124 C148.04196,55.76404 147.79476,55.43044 147.30036,55.43044 C147.07476,55.43044 146.89836,55.51324 146.77116,55.67884 C146.64396,55.84444 146.56796,56.10964 146.54436,56.47444 L148.04196,56.47444 L148.04196,56.43124 Z M148.93436,57.07204 L146.54436,57.07204 C146.57316,57.44164 146.66876,57.70564 146.83236,57.86404 C146.99556,58.02244 147.21156,58.10164 147.48036,58.10164 C147.64836,58.10164 147.80676,58.07404 147.95556,58.01884 C148.10396,57.96364 148.26276,57.87844 148.43076,57.76324 L148.81236,58.28884 C148.38996,58.62964 147.91956,58.80004 147.40076,58.80004 C146.81996,58.80004 146.37276,58.62244 146.05836,58.26724 C145.74396,57.91204 145.58676,57.42724 145.58676,56.81284 C145.58676,56.42404 145.65396,56.07484 145.78836,55.76524 C145.92276,55.45564 146.11716,55.21324 146.37156,55.03804 C146.62596,54.86284 146.92836,54.77524 147.27876,54.77524 C147.81156,54.77524 148.22436,54.94444 148.51676,55.28284 C148.80996,55.62124 148.95636,56.09284 148.95636,56.69764 C148.95636,56.74564 148.94916,56.87044 148.93436,57.07204 L148.93436,57.07204 Z" id="Fill-61" fill="#184E82" sketch:type="MSShapeGroup" mask="url(#mask-6)"></path>
                    </g>
                    <g id="Group-66">
                        <mask id="mask-8" sketch:name="Clip 65" fill="white">
                            <use xlink:href="#path-7"></use>
                        </mask>
                        <g id="Clip-65"></g>
                        <path d="M150.7416,57.99004 C150.7752,58.03564 150.8308,58.05844 150.9072,58.05844 C150.9796,58.05844 151.0512,58.04644 151.1232,58.02244 L151.3176,58.67044 C151.1116,58.75684 150.8928,58.80004 150.6628,58.80004 C150.3744,58.80004 150.1536,58.71724 150,58.55164 C149.8468,58.38604 149.7696,58.14484 149.7696,57.82804 L149.7696,53.35684 L150.6912,53.25604 L150.6912,57.76324 C150.6912,57.86884 150.708,57.94444 150.7416,57.99004" id="Fill-64" fill="#184E82" sketch:type="MSShapeGroup" mask="url(#mask-8)"></path>
                    </g>
                    <g id="Group-69">
                        <mask id="mask-10" sketch:name="Clip 68" fill="white">
                            <use xlink:href="#path-9"></use>
                        </mask>
                        <g id="Clip-68"></g>
                        <path d="M154.06816,56.43124 C154.06816,55.76404 153.82096,55.43044 153.32656,55.43044 C153.10096,55.43044 152.92456,55.51324 152.79736,55.67884 C152.67016,55.84444 152.59416,56.10964 152.57056,56.47444 L154.06816,56.47444 L154.06816,56.43124 Z M154.96056,57.07204 L152.57056,57.07204 C152.59936,57.44164 152.69496,57.70564 152.85856,57.86404 C153.02176,58.02244 153.23776,58.10164 153.50656,58.10164 C153.67456,58.10164 153.83296,58.07404 153.98176,58.01884 C154.13016,57.96364 154.28896,57.87844 154.45696,57.76324 L154.83856,58.28884 C154.41616,58.62964 153.94576,58.80004 153.42696,58.80004 C152.84616,58.80004 152.39896,58.62244 152.08456,58.26724 C151.77016,57.91204 151.61296,57.42724 151.61296,56.81284 C151.61296,56.42404 151.68016,56.07484 151.81456,55.76524 C151.94896,55.45564 152.14336,55.21324 152.39776,55.03804 C152.65216,54.86284 152.95456,54.77524 153.30496,54.77524 C153.83776,54.77524 154.25056,54.94444 154.54296,55.28284 C154.83616,55.62124 154.98256,56.09284 154.98256,56.69764 C154.98256,56.74564 154.97536,56.87044 154.96056,57.07204 L154.96056,57.07204 Z" id="Fill-67" fill="#184E82" sketch:type="MSShapeGroup" mask="url(#mask-10)"></path>
                    </g>
                    <path d="M158.09276,54.8328 L157.93436,55.7256 C157.81876,55.6968 157.70636,55.6824 157.59596,55.6824 C157.36996,55.6824 157.19276,55.7628 157.06316,55.9236 C156.93356,56.0844 156.83036,56.3304 156.75356,56.6616 L156.75356,58.692 L155.83196,58.692 L155.83196,54.8832 L156.63116,54.8832 L156.71756,55.632 C156.80876,55.3584 156.94076,55.1484 157.11356,55.002 C157.28636,54.8556 157.48516,54.7824 157.71116,54.7824 C157.85036,54.7824 157.97756,54.7992 158.09276,54.8328" id="Fill-70" fill="#184E82" sketch:type="MSShapeGroup"></path>
                    <path d="M159.38184,53.7168 L159.25944,55.668 L158.62584,55.668 L158.49624,53.7168 L159.38184,53.7168 Z" id="Fill-72" fill="#184E82" sketch:type="MSShapeGroup"></path>
                    <path d="M162.88104,55.22872 L162.52104,55.78312 C162.20424,55.56712 161.89184,55.45912 161.58504,55.45912 C161.39264,55.45912 161.24504,55.49432 161.14184,55.56352 C161.03904,55.63312 160.98744,55.72552 160.98744,55.84072 C160.98744,55.92712 161.00864,55.99912 161.05224,56.05672 C161.09504,56.11432 161.17304,56.16832 161.28624,56.21872 C161.39904,56.26912 161.56584,56.32552 161.78664,56.38792 C162.19944,56.49832 162.50544,56.64512 162.70464,56.82712 C162.90384,57.00952 163.00344,57.26392 163.00344,57.59032 C163.00344,57.96992 162.84984,58.26592 162.54224,58.47952 C162.23544,58.69312 161.85384,58.79992 161.39784,58.79992 C161.08584,58.79992 160.80144,58.75192 160.54424,58.65592 C160.28784,58.55992 160.06584,58.42832 159.87824,58.25992 L160.34664,57.73432 C160.66344,57.98872 161.00424,58.11592 161.36904,58.11592 C161.57504,58.11592 161.74064,58.07512 161.86584,57.99352 C161.99024,57.91192 162.05304,57.80392 162.05304,57.66952 C162.05304,57.55432 162.02984,57.46432 161.98464,57.39952 C161.93904,57.33472 161.85704,57.27592 161.73944,57.22312 C161.62224,57.17032 161.43864,57.10792 161.18904,57.03592 C160.80024,56.93032 160.51464,56.78272 160.33224,56.59312 C160.14984,56.40392 160.05824,56.16712 160.05824,55.88392 C160.05824,55.67272 160.11984,55.48312 160.24184,55.31512 C160.36464,55.14712 160.53744,55.01512 160.76024,54.91912 C160.98384,54.82312 161.23944,54.77512 161.52704,54.77512 C162.04064,54.77512 162.49184,54.92632 162.88104,55.22872" id="Fill-74" fill="#184E82" sketch:type="MSShapeGroup"></path>
                    <g id="Group-78">
                        <mask id="mask-12" sketch:name="Clip 77" fill="white">
                            <use xlink:href="#path-11"></use>
                        </mask>
                        <g id="Clip-77"></g>
                        <path d="M168.27712,53.73848 C168.50472,53.82488 168.72432,53.95688 168.93552,54.13448 L168.44632,54.70328 C168.16312,54.46328 167.85592,54.34328 167.52472,54.34328 C167.15472,54.34328 166.85992,54.49208 166.63872,54.78968 C166.41832,55.08728 166.30792,55.55528 166.30792,56.19368 C166.30792,56.82248 166.41832,57.28688 166.63872,57.58688 C166.85992,57.88688 167.15992,58.03688 167.53872,58.03688 C167.73112,58.03688 167.90152,58.00088 168.05032,57.92888 C168.19912,57.85688 168.36472,57.75368 168.54712,57.61928 L168.99352,58.19528 C168.82512,58.36808 168.61312,58.51208 168.35632,58.62728 C168.09952,58.74248 167.81272,58.80008 167.49592,58.80008 C167.06392,58.80008 166.68232,58.69928 166.35112,58.49768 C166.01952,58.29608 165.76312,57.99968 165.58072,57.60848 C165.39832,57.21728 165.30712,56.74568 165.30712,56.19368 C165.30712,55.65128 165.40192,55.18568 165.59152,54.79688 C165.78112,54.40808 166.03872,54.11288 166.36552,53.91128 C166.69192,53.70968 167.05912,53.60888 167.46712,53.60888 C167.77912,53.60888 168.04912,53.65208 168.27712,53.73848" id="Fill-76" fill="#184E82" sketch:type="MSShapeGroup" mask="url(#mask-12)"></path>
                    </g>
                    <g id="Group-81">
                        <mask id="mask-14" sketch:name="Clip 80" fill="white">
                            <use xlink:href="#path-13"></use>
                        </mask>
                        <g id="Clip-80"></g>
                        <path d="M170.57752,57.99004 C170.61112,58.03564 170.66672,58.05844 170.74312,58.05844 C170.81552,58.05844 170.88712,58.04644 170.95912,58.02244 L171.15352,58.67044 C170.94752,58.75684 170.72872,58.80004 170.49872,58.80004 C170.21032,58.80004 169.98952,58.71724 169.83592,58.55164 C169.68272,58.38604 169.60552,58.14484 169.60552,57.82804 L169.60552,53.35684 L170.52712,53.25604 L170.52712,57.76324 C170.52712,57.86884 170.54392,57.94444 170.57752,57.99004" id="Fill-79" fill="#184E82" sketch:type="MSShapeGroup" mask="url(#mask-14)"></path>
                    </g>
                    <path d="M174.01192,58.692 L173.96152,58.1592 C173.82192,58.3752 173.65792,58.536 173.46832,58.6416 C173.27872,58.7472 173.05432,58.8 172.79512,58.8 C172.45392,58.8 172.19152,58.6956 172.00672,58.4868 C171.82192,58.278 171.72952,57.9888 171.72952,57.6192 L171.72952,54.8832 L172.65112,54.8832 L172.65112,57.504 C172.65112,57.72 172.68792,57.8736 172.76272,57.9648 C172.83672,58.056 172.95592,58.1016 173.11912,58.1016 C173.41192,58.1016 173.66872,57.9216 173.88952,57.5616 L173.88952,54.8832 L174.81112,54.8832 L174.81112,58.692 L174.01192,58.692 Z" id="Fill-82" fill="#184E82" sketch:type="MSShapeGroup"></path>
                    <g id="Group-86">
                        <mask id="mask-16" sketch:name="Clip 85" fill="white">
                            <use xlink:href="#path-15"></use>
                        </mask>
                        <g id="Clip-85"></g>
                        <path d="M178.13028,57.78848 C178.26948,57.57488 178.33868,57.24008 178.33868,56.78408 C178.33868,56.30408 178.27428,55.96448 178.14468,55.76528 C178.01508,55.56608 177.83268,55.46648 177.59748,55.46648 C177.30468,55.46648 177.05268,55.63928 176.84148,55.98488 L176.84148,57.66968 C176.92788,57.80888 177.03228,57.91688 177.15468,57.99368 C177.27708,58.07048 177.41028,58.10888 177.55428,58.10888 C177.79908,58.10888 177.99068,58.00208 178.13028,57.78848 M178.92948,55.30088 C179.17908,55.65128 179.30388,56.14568 179.30388,56.78408 C179.30388,57.17768 179.24268,57.52688 179.12028,57.83168 C178.99788,58.13648 178.82348,58.37408 178.59828,58.54448 C178.37228,58.71448 178.10588,58.80008 177.79908,58.80008 C177.59268,58.80008 177.40428,58.75688 177.23388,58.67048 C177.06348,58.58408 176.91588,58.46168 176.79108,58.30328 L176.73348,58.69208 L175.91988,58.69208 L175.91988,53.35688 L176.84148,53.25608 L176.84148,55.31528 C176.96628,55.14248 177.11748,55.00928 177.29508,54.91568 C177.47228,54.82208 177.66708,54.77528 177.87828,54.77528 C178.32948,54.77528 178.67988,54.95048 178.92948,55.30088" id="Fill-84" fill="#184E82" sketch:type="MSShapeGroup" mask="url(#mask-16)"></path>
                    </g>
                </g>
            </g>
        </g>
    </g>
</svg>